SplineFontDB: 3.2
FontName: Problemiste
FullName: Problemiste
FamilyName: Problemiste
Weight: Light
Copyright: Copyright (c) 1995-2000 Matthieu LESCHEMELLE
Version: 1.00
ItalicAngle: 0
UnderlinePosition: -127
UnderlineWidth: 51
Ascent: 819
Descent: 205
InvalidEm: 0
sfntRevision: 0x00010000
woffMajor: 1
woffMinor: 0
LayerCount: 2
Layer: 0 1 "Sfondo" 1
Layer: 1 1 "Fore" 0
XUID: [1021 279 526073520 23583]
StyleMap: 0x0040
FSType: 0
OS2Version: 1
OS2_WeightWidthSlopeOnly: 0
OS2_UseTypoMetrics: 0
CreationTime: -2082844800
ModificationTime: 1591954382
PfmFamily: 81
TTFWeight: 300
TTFWidth: 5
LineGap: 0
VLineGap: 0
Panose: 0 0 4 0 0 0 0 0 0 0
OS2TypoAscent: 735
OS2TypoAOffset: 0
OS2TypoDescent: -212
OS2TypoDOffset: 0
OS2TypoLinegap: 0
OS2WinAscent: 901
OS2WinAOffset: 0
OS2WinDescent: 230
OS2WinDOffset: 0
HheadAscent: 735
HheadAOffset: 0
HheadDescent: -212
HheadDOffset: 0
OS2SubXSize: 512
OS2SubYSize: 512
OS2SubXOff: 0
OS2SubYOff: -512
OS2SupXSize: 512
OS2SupYSize: 512
OS2SupXOff: 0
OS2SupYOff: 256
OS2StrikeYSize: 51
OS2StrikeYPos: 256
OS2Vendor: 'DTPS'
OS2CodePages: 20000000.00000000
OS2UnicodeRanges: 00000000.00000000.00000000.00000000
MarkAttachClasses: 1
DEI: 91125
TtTable: prep
PUSHW_2
 511
 512
SCANTYPE
SCANCTRL
SVTCA[y-axis]
EndTTInstrs
TtTable: fpgm
PUSHB_5
 4
 3
 2
 1
 0
FDEF
DUP
GC[cur]
DUP
ROUND[Grey]
SUB
ABS
PUSHB_1
 3
CINDEX
GC[cur]
DUP
ROUND[Grey]
SUB
ABS
GT
IF
SWAP
DUP
PUSHB_1
 0
SWAP
WS
MDAP[rnd]
MDRP[rp0,min,rnd,grey]
SLOOP
ALIGNRP
PUSHB_1
 3
LOOPCALL
PUSHB_1
 0
RS
MDAP[rnd]
SLOOP
ALIGNRP
PUSHB_1
 3
LOOPCALL
ELSE
MDAP[rnd]
PUSHB_1
 0
SWAP
WS
SLOOP
ALIGNRP
PUSHB_1
 3
LOOPCALL
PUSHB_1
 0
RS
MDRP[rp0,min,rnd,grey]
SLOOP
ALIGNRP
PUSHB_1
 3
LOOPCALL
EIF
ENDF
FDEF
MDRP[min,rnd,grey]
ENDF
FDEF
SRP1
SRP2
SLOOP
IP
ENDF
FDEF
MPPEM
PUSHB_1
 65
LT
IF
ALIGNRP
ELSE
POP
EIF
ENDF
FDEF
PUSHB_5
 0
 0
 0
 0
 6
MINDEX
PUSHB_1
 6
MINDEX
PUSHB_1
 0
CALL
ENDF
SVTCA[y-axis]
SVTCA[y-axis]
EndTTInstrs
ShortTable: cvt  12
  0
  718
  523
  688
  0
  0
  0
  281
  409
  -207
  0
  0

StartChar: .notdef
Encoding: 255 255 0
AltUni2: 0025ca.ffffffff.0 002260.ffffffff.0 002044.ffffffff.0 000178.ffffffff.0
Width: 512
Flags: W
LayerCount: 2
Fore
SplineSet
220 723 m 1,0,-1
 127 723 l 1,1,-1
 127 618 l 1,2,-1
 220 618 l 1,3,-1
 220 723 l 1,0,-1
386 723 m 1,4,-1
 293 723 l 1,5,-1
 293 618 l 1,6,-1
 386 618 l 1,7,-1
 386 723 l 1,4,-1
258 99 m 1,8,-1
 256 99 l 1,9,-1
 114 536 l 1,10,-1
 11 536 l 1,11,-1
 210 -14 l 1,12,-1
 210 -14 l 1,13,14
 192 -62 192 -62 182 -84 c 128,-1,15
 172 -106 172 -106 163.5 -118 c 128,-1,16
 155 -130 155 -130 144 -134 c 128,-1,17
 133 -138 133 -138 115 -138 c 0,18,19
 86 -138 86 -138 60 -129 c 1,20,-1
 60 -211 l 1,21,22
 67 -213 67 -213 69 -213 c 0,23,24
 88 -219 88 -219 98 -219 c 0,25,26
 146 -219 146 -219 171 -213 c 128,-1,27
 196 -207 196 -207 214.5 -186 c 128,-1,28
 233 -165 233 -165 252 -124.5 c 128,-1,29
 271 -84 271 -84 308 10 c 0,30,31
 367 163 367 163 477 470 c 2,32,-1
 501 536 l 1,33,-1
 401 536 l 1,34,-1
 258 99 l 1,8,-1
EndSplineSet
EndChar

StartChar: exclam
Encoding: 33 33 4
Width: 284
GlyphClass: 2
Flags: W
LayerCount: 2
Fore
SplineSet
191 104 m 1,0,-1
 92 104 l 1,1,-1
 92 0 l 1,2,-1
 191 0 l 1,3,-1
 191 104 l 1,0,-1
167 175 m 1,4,-1
 191 493 l 1,5,-1
 191 735 l 1,6,-1
 92 735 l 1,7,-1
 92 493 l 1,8,-1
 117 175 l 1,9,-1
 167 175 l 1,4,-1
EndSplineSet
EndChar

StartChar: quotedbl
Encoding: 34 34 5
Width: 363
GlyphClass: 2
Flags: W
LayerCount: 2
Fore
SplineSet
72 474 m 1,0,-1
 146 474 l 1,1,-1
 146 735 l 1,2,-1
 72 735 l 1,3,-1
 72 474 l 1,0,-1
217 474 m 1,4,-1
 292 474 l 1,5,-1
 292 735 l 1,6,-1
 217 735 l 1,7,-1
 217 474 l 1,4,-1
EndSplineSet
EndChar

StartChar: numbersign
Encoding: 35 35 6
Width: 723
GlyphClass: 2
Flags: W
LayerCount: 2
Fore
SplineSet
98 165 m 1,0,-1
 348 165 l 1,1,-1
 312 -8 l 1,2,-1
 374 -8 l 1,3,-1
 410 165 l 1,4,-1
 713 165 l 1,5,-1
 713 224 l 1,6,-1
 421 224 l 1,7,-1
 452 371 l 1,8,-1
 713 371 l 1,9,-1
 713 431 l 1,10,-1
 463 431 l 1,11,-1
 500 606 l 1,12,-1
 438 606 l 1,13,-1
 401 431 l 1,14,-1
 98 431 l 1,15,-1
 98 371 l 1,16,-1
 391 371 l 1,17,-1
 359 224 l 1,18,-1
 98 224 l 1,19,-1
 98 165 l 1,0,-1
EndSplineSet
EndChar

StartChar: dollar
Encoding: 36 36 7
Width: 569
GlyphClass: 2
Flags: W
LayerCount: 2
Fore
SplineSet
259 419 m 1,0,1
 207 428 207 428 172 456 c 128,-1,2
 137 484 137 484 137 535 c 0,3,4
 137 584 137 584 170 618.5 c 128,-1,5
 203 653 203 653 259 653 c 1,6,-1
 259 419 l 1,0,1
307 315 m 1,7,-1
 362 298 l 2,8,9
 396 288 396 288 419 256.5 c 128,-1,10
 442 225 442 225 442 184 c 0,11,12
 442 130 442 130 407 92.5 c 128,-1,13
 372 55 372 55 307 55 c 1,14,-1
 307 315 l 1,7,-1
515 534 m 1,15,16
 513 592 513 592 491 630 c 128,-1,17
 469 668 469 668 436.5 688.5 c 128,-1,18
 404 709 404 709 372 717 c 128,-1,19
 340 725 340 725 307 728 c 1,20,-1
 307 794 l 1,21,-1
 259 794 l 1,22,-1
 259 728 l 1,23,24
 214 728 214 728 175 712.5 c 128,-1,25
 136 697 136 697 107.5 669.5 c 128,-1,26
 79 642 79 642 63 605.5 c 128,-1,27
 47 569 47 569 47 528 c 0,28,29
 47 478 47 478 64.5 443 c 128,-1,30
 82 408 82 408 111.5 386 c 128,-1,31
 141 364 141 364 176.5 351 c 128,-1,32
 212 338 212 338 259 327 c 1,33,-1
 259 55 l 1,34,35
 220 61 220 61 195 72.5 c 128,-1,36
 170 84 170 84 155 102 c 128,-1,37
 140 120 140 120 132.5 148 c 128,-1,38
 125 176 125 176 123 218 c 1,39,-1
 33 218 l 1,40,41
 33 153 33 153 50 109 c 128,-1,42
 67 65 67 65 97.5 37 c 128,-1,43
 128 9 128 9 168 -3.5 c 128,-1,44
 208 -16 208 -16 259 -19 c 1,45,-1
 259 -118 l 1,46,-1
 307 -118 l 1,47,-1
 307 -19 l 1,48,49
 343 -19 343 -19 381.5 -8.5 c 128,-1,50
 420 2 420 2 454 27 c 128,-1,51
 488 52 488 52 510 95.5 c 128,-1,52
 532 139 532 139 532 201 c 0,53,54
 532 253 532 253 517.5 287 c 128,-1,55
 503 321 503 321 474.5 341.5 c 128,-1,56
 446 362 446 362 410 375.5 c 128,-1,57
 374 389 374 389 308 409 c 1,58,-1
 307 409 l 1,59,-1
 307 653 l 1,60,61
 372 641 372 641 397 611.5 c 128,-1,62
 422 582 422 582 428 534 c 1,63,-1
 515 534 l 1,15,16
EndSplineSet
EndChar

StartChar: percent
Encoding: 37 37 8
Width: 910
GlyphClass: 2
Flags: W
LayerCount: 2
Fore
SplineSet
40 539 m 256,0,1
 40 503 40 503 54 470.5 c 128,-1,2
 68 438 68 438 92 414 c 128,-1,3
 116 390 116 390 147.5 377 c 128,-1,4
 179 364 179 364 215 364 c 256,5,6
 251 364 251 364 282.5 377.5 c 128,-1,7
 314 391 314 391 338 415 c 128,-1,8
 362 439 362 439 375.5 471 c 128,-1,9
 389 503 389 503 389 539 c 256,10,11
 389 575 389 575 375 606.5 c 128,-1,12
 361 638 361 638 337 661.5 c 128,-1,13
 313 685 313 685 281.5 698.5 c 128,-1,14
 250 712 250 712 215 712 c 0,15,16
 179 712 179 712 147.5 698.5 c 128,-1,17
 116 685 116 685 92 661.5 c 128,-1,18
 68 638 68 638 54 606.5 c 128,-1,19
 40 575 40 575 40 539 c 256,0,1
112 539 m 0,20,21
 112 581 112 581 142 610.5 c 128,-1,22
 172 640 172 640 215 640 c 256,23,24
 258 640 258 640 287.5 611 c 128,-1,25
 317 582 317 582 317 539 c 256,26,27
 317 496 317 496 287.5 465.5 c 128,-1,28
 258 435 258 435 214 435 c 0,29,30
 172 435 172 435 142 464 c 128,-1,31
 112 493 112 493 112 539 c 0,20,21
521 168 m 256,32,33
 521 132 521 132 535 100 c 128,-1,34
 549 68 549 68 573 43.5 c 128,-1,35
 597 19 597 19 628.5 6 c 128,-1,36
 660 -7 660 -7 696 -7 c 256,37,38
 732 -7 732 -7 764 6.5 c 128,-1,39
 796 20 796 20 820 44.5 c 128,-1,40
 844 69 844 69 857 100.5 c 128,-1,41
 870 132 870 132 870 168 c 256,42,43
 870 204 870 204 856.5 235.5 c 128,-1,44
 843 267 843 267 819 290.5 c 128,-1,45
 795 314 795 314 763 327.5 c 128,-1,46
 731 341 731 341 696 341 c 0,47,48
 660 341 660 341 628.5 327.5 c 128,-1,49
 597 314 597 314 573 290.5 c 128,-1,50
 549 267 549 267 535 235.5 c 128,-1,51
 521 204 521 204 521 168 c 256,32,33
593 168 m 0,52,53
 593 210 593 210 623 239.5 c 128,-1,54
 653 269 653 269 696 269 c 256,55,56
 739 269 739 269 769 240 c 128,-1,57
 799 211 799 211 799 168 c 256,58,59
 799 125 799 125 769 95 c 128,-1,60
 739 65 739 65 695 65 c 0,61,62
 653 65 653 65 623 93.5 c 128,-1,63
 593 122 593 122 593 168 c 0,52,53
685 720 m 1,64,-1
 629 720 l 1,65,-1
 224 -19 l 1,66,-1
 280 -19 l 1,67,-1
 685 720 l 1,64,-1
EndSplineSet
EndChar

StartChar: ampersand
Encoding: 38 38 9
Width: 683
GlyphClass: 2
Flags: W
LayerCount: 2
Fore
SplineSet
427 144 m 1,0,1
 368 62 368 62 267 62 c 0,2,3
 251 62 251 62 228.5 69 c 128,-1,4
 206 76 206 76 184.5 90 c 128,-1,5
 163 104 163 104 149 128 c 128,-1,6
 135 152 135 152 135 184 c 0,7,8
 135 238 135 238 164 270.5 c 128,-1,9
 193 303 193 303 261 347 c 1,10,-1
 427 144 l 1,0,1
293 450 m 1,11,12
 264 479 264 479 242 512.5 c 128,-1,13
 220 546 220 546 220 578 c 0,14,15
 220 590 220 590 223 602.5 c 128,-1,16
 226 615 226 615 235.5 628 c 128,-1,17
 245 641 245 641 262.5 649 c 128,-1,18
 280 657 280 657 306 657 c 0,19,20
 336 657 336 657 360.5 639 c 128,-1,21
 385 621 385 621 385 577 c 0,22,23
 385 536 385 536 359.5 507.5 c 128,-1,24
 334 479 334 479 293 450 c 1,11,12
529 159 m 1,25,26
 556 208 556 208 571 256.5 c 128,-1,27
 586 305 586 305 589 346 c 1,28,-1
 504 346 l 1,29,30
 497 306 497 306 491.5 285.5 c 128,-1,31
 486 265 486 265 474 231 c 1,32,-1
 340 391 l 1,33,-1
 341 392 l 1,34,35
 371 412 371 412 390.5 427 c 128,-1,36
 410 442 410 442 429.5 464.5 c 128,-1,37
 449 487 449 487 460.5 517 c 128,-1,38
 472 547 472 547 472 584 c 0,39,40
 472 645 472 645 430 690 c 128,-1,41
 388 735 388 735 307 735 c 256,42,43
 226 735 226 735 179.5 687 c 128,-1,44
 133 639 133 639 133 571 c 0,45,46
 133 527 133 527 149.5 495.5 c 128,-1,47
 166 464 166 464 211 409 c 1,48,49
 160 380 160 380 127.5 354.5 c 128,-1,50
 95 329 95 329 77 302.5 c 128,-1,51
 59 276 59 276 52 246.5 c 128,-1,52
 45 217 45 217 45 177 c 0,53,54
 45 151 45 151 54 119.5 c 128,-1,55
 63 88 63 88 87 57 c 128,-1,56
 111 26 111 26 154.5 5.5 c 128,-1,57
 198 -15 198 -15 261 -15 c 0,58,59
 336 -15 336 -15 384 10.5 c 128,-1,60
 432 36 432 36 475 84 c 1,61,-1
 544 0 l 1,62,-1
 660 0 l 1,63,-1
 529 159 l 1,25,26
EndSplineSet
EndChar

StartChar: quoteright
Encoding: 39 39 10
Width: 227
GlyphClass: 2
Flags: W
LayerCount: 2
Fore
SplineSet
54 627 m 1,0,-1
 109 627 l 1,1,2
 109 610 109 610 107 594 c 128,-1,3
 105 578 105 578 100 563 c 128,-1,4
 95 548 95 548 84 536.5 c 128,-1,5
 73 525 73 525 54 522 c 1,6,-1
 54 474 l 1,7,8
 112 487 112 487 136.5 528.5 c 128,-1,9
 161 570 161 570 161 635 c 2,10,-1
 161 735 l 1,11,-1
 54 735 l 1,12,-1
 54 627 l 1,0,-1
EndSplineSet
EndChar

StartChar: parenleft
Encoding: 40 40 11
Width: 340
GlyphClass: 2
Flags: W
LayerCount: 2
Fore
SplineSet
243 751 m 1,0,1
 156 627 156 627 113 512 c 128,-1,2
 70 397 70 397 70 267 c 0,3,4
 70 197 70 197 82 136 c 128,-1,5
 94 75 94 75 116.5 18.5 c 128,-1,6
 139 -38 139 -38 170 -91 c 128,-1,7
 201 -144 201 -144 246 -212 c 1,8,-1
 306 -212 l 1,9,10
 270 -142 270 -142 246 -90 c 128,-1,11
 222 -38 222 -38 203.5 16 c 128,-1,12
 185 70 185 70 175.5 125.5 c 128,-1,13
 166 181 166 181 166 243 c 0,14,15
 166 332 166 332 175 400.5 c 128,-1,16
 184 469 184 469 201.5 524 c 128,-1,17
 219 579 219 579 241.5 626.5 c 128,-1,18
 264 674 264 674 305 751 c 1,19,-1
 243 751 l 1,0,1
EndSplineSet
EndChar

StartChar: parenright
Encoding: 41 41 12
Width: 340
GlyphClass: 2
Flags: W
LayerCount: 2
Fore
SplineSet
98 -212 m 1,0,1
 185 -88 185 -88 228 26.5 c 128,-1,2
 271 141 271 141 271 271 c 0,3,4
 271 341 271 341 259 402.5 c 128,-1,5
 247 464 247 464 224.5 520.5 c 128,-1,6
 202 577 202 577 171 630 c 128,-1,7
 140 683 140 683 95 751 c 1,8,-1
 35 751 l 1,9,10
 71 681 71 681 95 629 c 128,-1,11
 119 577 119 577 137.5 523 c 128,-1,12
 156 469 156 469 165.5 413 c 128,-1,13
 175 357 175 357 175 296 c 0,14,15
 175 207 175 207 166 138.5 c 128,-1,16
 157 70 157 70 139.5 15 c 128,-1,17
 122 -40 122 -40 99.5 -87.5 c 128,-1,18
 77 -135 77 -135 36 -212 c 1,19,-1
 98 -212 l 1,0,1
EndSplineSet
EndChar

StartChar: asterisk
Encoding: 42 42 13
Width: 398
GlyphClass: 2
Flags: W
LayerCount: 2
Fore
SplineSet
40 605 m 1,0,-1
 151 570 l 1,1,-1
 82 476 l 1,2,-1
 132 441 l 1,3,-1
 199 538 l 1,4,-1
 265 441 l 1,5,-1
 315 476 l 1,6,-1
 247 570 l 1,7,-1
 357 605 l 1,8,-1
 337 662 l 1,9,-1
 229 623 l 1,10,-1
 229 735 l 1,11,-1
 168 735 l 1,12,-1
 168 623 l 1,13,-1
 60 662 l 1,14,-1
 40 605 l 1,0,-1
EndSplineSet
EndChar

StartChar: plus
Encoding: 43 43 14
Width: 658
GlyphClass: 2
Flags: W
LayerCount: 2
Fore
SplineSet
290 342 m 1,0,-1
 31 342 l 1,1,-1
 31 255 l 1,2,-1
 290 255 l 1,3,-1
 290 -1 l 1,4,-1
 377 -1 l 1,5,-1
 377 255 l 1,6,-1
 635 255 l 1,7,-1
 635 342 l 1,8,-1
 377 342 l 1,9,-1
 377 598 l 1,10,-1
 290 598 l 1,11,-1
 290 342 l 1,0,-1
EndSplineSet
EndChar

StartChar: comma
Encoding: 44 44 15
Width: 284
GlyphClass: 2
Flags: W
LayerCount: 2
Fore
SplineSet
89 0 m 1,0,-1
 143 0 l 1,1,2
 143 -42 143 -42 131 -71 c 128,-1,3
 119 -100 119 -100 89 -103 c 1,4,-1
 89 -151 l 1,5,6
 102 -149 102 -149 118 -143 c 128,-1,7
 134 -137 134 -137 152.5 -120 c 128,-1,8
 171 -103 171 -103 183.5 -71.5 c 128,-1,9
 196 -40 196 -40 196 8 c 2,10,-1
 196 109 l 1,11,-1
 89 109 l 1,12,-1
 89 0 l 1,0,-1
EndSplineSet
EndChar

StartChar: hyphen
Encoding: 45 45 16
Width: 340
GlyphClass: 2
Flags: W
LayerCount: 2
Fore
SplineSet
296 330 m 1,0,-1
 45 330 l 1,1,-1
 45 238 l 1,2,-1
 296 238 l 1,3,-1
 296 330 l 1,0,-1
EndSplineSet
EndChar

StartChar: period
Encoding: 46 46 17
Width: 284
GlyphClass: 2
Flags: W
LayerCount: 2
Fore
SplineSet
196 109 m 1,0,-1
 89 109 l 1,1,-1
 89 0 l 1,2,-1
 196 0 l 1,3,-1
 196 109 l 1,0,-1
EndSplineSet
EndChar

StartChar: slash
Encoding: 47 47 18
Width: 284
GlyphClass: 2
Flags: W
LayerCount: 2
Fore
SplineSet
302 755 m 1,0,-1
 234 755 l 1,1,-1
 -17 -19 l 1,2,-1
 51 -19 l 1,3,-1
 302 755 l 1,0,-1
EndSplineSet
EndChar

StartChar: zero
Encoding: 48 48 19
Width: 569
GlyphClass: 2
Flags: W
LayerCount: 2
Fore
SplineSet
435 350 m 256,0,1
 435 212 435 212 397.5 136.5 c 128,-1,2
 360 61 360 61 285 61 c 0,3,4
 209 61 209 61 171.5 136.5 c 128,-1,5
 134 212 134 212 134 350 c 256,6,7
 134 488 134 488 171.5 563.5 c 128,-1,8
 209 639 209 639 285 639 c 256,9,10
 361 639 361 639 398 563.5 c 128,-1,11
 435 488 435 488 435 350 c 256,0,1
531 350 m 256,12,13
 531 413 531 413 521 476.5 c 128,-1,14
 511 540 511 540 484 595 c 128,-1,15
 457 650 457 650 407.5 685 c 128,-1,16
 358 720 358 720 285 720 c 0,17,18
 211 720 211 720 162 685 c 128,-1,19
 113 650 113 650 86 595 c 128,-1,20
 59 540 59 540 48.5 477 c 128,-1,21
 38 414 38 414 38 350 c 0,22,23
 38 287 38 287 48.5 224 c 128,-1,24
 59 161 59 161 86 105.5 c 128,-1,25
 113 50 113 50 162 15.5 c 128,-1,26
 211 -19 211 -19 285 -19 c 256,27,28
 359 -19 359 -19 408 15.5 c 128,-1,29
 457 50 457 50 484 105.5 c 128,-1,30
 511 161 511 161 521 224 c 128,-1,31
 531 287 531 287 531 350 c 256,12,13
EndSplineSet
EndChar

StartChar: one
Encoding: 49 49 20
Width: 569
GlyphClass: 2
Flags: W
LayerCount: 2
Fore
SplineSet
368 720 m 1,0,-1
 297 720 l 1,1,2
 287 676 287 676 271.5 650.5 c 128,-1,3
 256 625 256 625 234.5 611.5 c 128,-1,4
 213 598 213 598 183.5 592 c 128,-1,5
 154 586 154 586 103 583 c 1,6,-1
 103 511 l 1,7,-1
 271 511 l 1,8,-1
 271 0 l 1,9,-1
 368 0 l 1,10,-1
 368 720 l 1,0,-1
EndSplineSet
EndChar

StartChar: two
Encoding: 50 50 21
Width: 569
GlyphClass: 2
Flags: W
LayerCount: 2
Fore
SplineSet
135 462 m 1,0,-1
 135 464 l 2,1,2
 137 494 137 494 141.5 520 c 128,-1,3
 146 546 146 546 160 574 c 128,-1,4
 174 602 174 602 203.5 620.5 c 128,-1,5
 233 639 233 639 281 639 c 0,6,7
 319 639 319 639 346.5 627 c 128,-1,8
 374 615 374 615 391 596.5 c 128,-1,9
 408 578 408 578 415.5 555 c 128,-1,10
 423 532 423 532 423 509 c 0,11,12
 423 475 423 475 413.5 451 c 128,-1,13
 404 427 404 427 388 409 c 128,-1,14
 372 391 372 391 351.5 377.5 c 128,-1,15
 331 364 331 364 296 344 c 2,16,-1
 291 341 l 1,17,-1
 196 286 l 2,18,19
 117 240 117 240 74 172.5 c 128,-1,20
 31 105 31 105 27 0 c 1,21,-1
 519 0 l 1,22,-1
 519 85 l 1,23,-1
 128 85 l 1,24,25
 132 115 132 115 159.5 151 c 128,-1,26
 187 187 187 187 252 223 c 2,27,-1
 327 264 l 2,28,29
 376 290 376 290 407.5 311.5 c 128,-1,30
 439 333 439 333 464.5 360 c 128,-1,31
 490 387 490 387 504.5 423 c 128,-1,32
 519 459 519 459 519 505 c 0,33,34
 519 603 519 603 454 663 c 0,35,36
 423 691 423 691 382 705.5 c 128,-1,37
 341 720 341 720 294 720 c 0,38,39
 256 720 256 720 215.5 711 c 128,-1,40
 175 702 175 702 136 675.5 c 128,-1,41
 97 649 97 649 71 596.5 c 128,-1,42
 45 544 45 544 45 462 c 1,43,-1
 135 462 l 1,0,-1
EndSplineSet
EndChar

StartChar: three
Encoding: 51 51 22
Width: 569
GlyphClass: 2
Flags: W
LayerCount: 2
Fore
SplineSet
229 332 m 2,0,1
 232 332 232 332 250 333 c 0,2,3
 267 333 267 333 270 333 c 0,4,5
 300 333 300 333 327 329 c 128,-1,6
 354 325 354 325 380 311.5 c 128,-1,7
 406 298 406 298 422 271 c 128,-1,8
 438 244 438 244 438 201 c 0,9,10
 438 140 438 140 394.5 100.5 c 128,-1,11
 351 61 351 61 282 61 c 0,12,13
 235 61 235 61 204 75.5 c 128,-1,14
 173 90 173 90 157 113 c 128,-1,15
 141 136 141 136 135.5 162 c 128,-1,16
 130 188 130 188 128 220 c 1,17,-1
 35 220 l 1,18,19
 40 147 40 147 63.5 94 c 128,-1,20
 87 41 87 41 142 12 c 0,21,22
 202 -20 202 -20 275 -19 c 0,23,24
 342 -19 342 -19 391.5 -0.5 c 128,-1,25
 441 18 441 18 472.5 51 c 128,-1,26
 504 84 504 84 519.5 125.5 c 128,-1,27
 535 167 535 167 535 212 c 0,28,29
 535 281 535 281 503 321 c 128,-1,30
 471 361 471 361 415 380 c 1,31,-1
 415 382 l 1,32,33
 451 393 451 393 479 430.5 c 128,-1,34
 507 468 507 468 507 530 c 0,35,36
 507 614 507 614 447 667 c 128,-1,37
 387 720 387 720 285 720 c 0,38,39
 217 720 217 720 171 699 c 128,-1,40
 125 678 125 678 99 643.5 c 128,-1,41
 73 609 73 609 62.5 568.5 c 128,-1,42
 52 528 52 528 52 484 c 1,43,-1
 140 484 l 1,44,-1
 140 484 l 1,45,46
 142 514 142 514 147 536.5 c 128,-1,47
 152 559 152 559 165.5 583 c 128,-1,48
 179 607 179 607 207.5 623 c 128,-1,49
 236 639 236 639 281 639 c 0,50,51
 319 639 319 639 345.5 628 c 128,-1,52
 372 617 372 617 386.5 600 c 128,-1,53
 401 583 401 583 407.5 563.5 c 128,-1,54
 414 544 414 544 414 525 c 0,55,56
 414 463 414 463 375 435.5 c 128,-1,57
 336 408 336 408 276 408 c 0,58,59
 260 408 260 408 229 410 c 1,60,-1
 229 332 l 2,0,1
EndSplineSet
EndChar

StartChar: four
Encoding: 52 52 23
Width: 569
GlyphClass: 2
Flags: W
LayerCount: 2
Fore
SplineSet
536 175 m 1,0,-1
 536 253 l 1,1,-1
 430 253 l 1,2,-1
 430 720 l 1,3,-1
 355 720 l 1,4,-1
 26 263 l 1,5,-1
 26 175 l 1,6,-1
 340 175 l 1,7,-1
 340 0 l 1,8,-1
 430 0 l 1,9,-1
 430 175 l 1,10,-1
 536 175 l 1,0,-1
338 580 m 1,11,-1
 340 580 l 1,12,-1
 340 253 l 1,13,-1
 109 253 l 1,14,-1
 338 580 l 1,11,-1
EndSplineSet
EndChar

StartChar: five
Encoding: 53 53 24
Width: 569
GlyphClass: 2
Flags: W
LayerCount: 2
Fore
SplineSet
181 616 m 1,0,-1
 486 616 l 1,1,-1
 486 705 l 1,2,-1
 114 705 l 1,3,-1
 59 318 l 1,4,-1
 137 314 l 1,5,6
 163 347 163 347 197 365 c 128,-1,7
 231 383 231 383 270 383 c 0,8,9
 340 383 340 383 385 340.5 c 128,-1,10
 430 298 430 298 430 223 c 0,11,12
 430 153 430 153 388.5 105.5 c 128,-1,13
 347 58 347 58 279 58 c 0,14,15
 216 58 216 58 174.5 88.5 c 128,-1,16
 133 119 133 119 126 179 c 1,17,-1
 33 179 l 1,18,19
 39 122 39 122 62 82.5 c 128,-1,20
 85 43 85 43 118.5 21 c 128,-1,21
 152 -1 152 -1 189 -10 c 128,-1,22
 226 -19 226 -19 265 -19 c 0,23,24
 344 -19 344 -19 397 7 c 128,-1,25
 450 33 450 33 478 73.5 c 128,-1,26
 506 114 506 114 516 155.5 c 128,-1,27
 526 197 526 197 526 233 c 0,28,29
 526 287 526 287 506 330.5 c 128,-1,30
 486 374 486 374 452.5 403.5 c 128,-1,31
 419 433 419 433 376.5 448.5 c 128,-1,32
 334 464 334 464 290 464 c 256,33,34
 246 464 246 464 211.5 451.5 c 128,-1,35
 177 439 177 439 151 419 c 1,36,-1
 181 616 l 1,0,-1
EndSplineSet
EndChar

StartChar: six
Encoding: 54 54 25
Width: 569
GlyphClass: 2
Flags: W
LayerCount: 2
Fore
SplineSet
515 528 m 1,0,1
 512 580 512 580 491.5 617.5 c 128,-1,2
 471 655 471 655 440 677.5 c 128,-1,3
 409 700 409 700 374 710 c 128,-1,4
 339 720 339 720 305 720 c 0,5,6
 228 720 228 720 176 684 c 128,-1,7
 124 648 124 648 93.5 591 c 128,-1,8
 63 534 63 534 51 467.5 c 128,-1,9
 39 401 39 401 39 335 c 0,10,11
 39 258 39 258 51 195.5 c 128,-1,12
 63 133 63 133 94 85 c 0,13,14
 129 31 129 31 179.5 6 c 128,-1,15
 230 -19 230 -19 280 -19 c 0,16,17
 351 -19 351 -19 390.5 -2 c 128,-1,18
 430 15 430 15 462 50 c 0,19,20
 499 90 499 90 514.5 132.5 c 128,-1,21
 530 175 530 175 530 230 c 0,22,23
 530 291 530 291 508.5 335.5 c 128,-1,24
 487 380 487 380 453 407 c 128,-1,25
 419 434 419 434 380 446.5 c 128,-1,26
 341 459 341 459 305 459 c 0,27,28
 238 459 238 459 196.5 433 c 128,-1,29
 155 407 155 407 134 371 c 1,30,-1
 132 373 l 1,31,32
 132 408 132 408 139.5 452 c 128,-1,33
 147 496 147 496 166 539 c 128,-1,34
 185 582 185 582 219.5 610.5 c 128,-1,35
 254 639 254 639 303 639 c 0,36,37
 358 639 358 639 388 609.5 c 128,-1,38
 418 580 418 580 427 528 c 1,39,-1
 515 528 l 1,0,1
144 221 m 0,40,41
 144 289 144 289 182.5 333.5 c 128,-1,42
 221 378 221 378 292 378 c 0,43,44
 332 378 332 378 360 364 c 128,-1,45
 388 350 388 350 405.5 327 c 128,-1,46
 423 304 423 304 430 278.5 c 128,-1,47
 437 253 437 253 437 226 c 0,48,49
 437 152 437 152 398.5 106.5 c 128,-1,50
 360 61 360 61 296 61 c 0,51,52
 222 61 222 61 183 108.5 c 128,-1,53
 144 156 144 156 144 221 c 0,40,41
EndSplineSet
EndChar

StartChar: seven
Encoding: 55 55 26
Width: 569
GlyphClass: 2
Flags: W
LayerCount: 2
Fore
SplineSet
38 616 m 1,0,-1
 434 616 l 1,1,2
 383 557 383 557 334 481.5 c 128,-1,3
 285 406 285 406 244.5 322 c 128,-1,4
 204 238 204 238 177 155.5 c 128,-1,5
 150 73 150 73 140 0 c 1,6,-1
 240 0 l 1,7,8
 258 113 258 113 295 214.5 c 128,-1,9
 332 316 332 316 376 396.5 c 128,-1,10
 420 477 420 477 461.5 534 c 128,-1,11
 503 591 503 591 536 626 c 1,12,-1
 536 705 l 1,13,-1
 38 705 l 1,14,-1
 38 616 l 1,0,-1
EndSplineSet
EndChar

StartChar: eight
Encoding: 56 56 27
Width: 569
GlyphClass: 2
Flags: W
LayerCount: 2
Fore
SplineSet
504 535 m 0,0,1
 504 568 504 568 491 600.5 c 128,-1,2
 478 633 478 633 451 660 c 128,-1,3
 424 687 424 687 381.5 703.5 c 128,-1,4
 339 720 339 720 282 720 c 0,5,6
 222 720 222 720 178.5 701 c 128,-1,7
 135 682 135 682 110 651.5 c 128,-1,8
 85 621 85 621 74 587.5 c 128,-1,9
 63 554 63 554 63 522 c 0,10,11
 63 472 63 472 89 435.5 c 128,-1,12
 115 399 115 399 161 382 c 1,13,14
 103 358 103 358 71 314.5 c 128,-1,15
 39 271 39 271 39 207 c 0,16,17
 39 187 39 187 40.5 169 c 128,-1,18
 42 151 42 151 48.5 127.5 c 128,-1,19
 55 104 55 104 71 80 c 128,-1,20
 87 56 87 56 113 36 c 0,21,22
 152 6 152 6 199.5 -6.5 c 128,-1,23
 247 -19 247 -19 286 -19 c 0,24,25
 347 -19 347 -19 393.5 -1 c 128,-1,26
 440 17 440 17 470.5 49.5 c 128,-1,27
 501 82 501 82 515 122.5 c 128,-1,28
 529 163 529 163 529 208 c 0,29,30
 529 232 529 232 524 255.5 c 128,-1,31
 519 279 519 279 506.5 302.5 c 128,-1,32
 494 326 494 326 470 347.5 c 128,-1,33
 446 369 446 369 412 383 c 1,34,35
 429 392 429 392 443 401.5 c 128,-1,36
 457 411 457 411 471 428 c 128,-1,37
 485 445 485 445 494.5 472 c 128,-1,38
 504 499 504 499 504 535 c 0,0,1
284 338 m 0,39,40
 350 338 350 338 391.5 302.5 c 128,-1,41
 433 267 433 267 433 198 c 0,42,43
 433 158 433 158 420.5 130.5 c 128,-1,44
 408 103 408 103 387.5 88.5 c 128,-1,45
 367 74 367 74 341.5 67.5 c 128,-1,46
 316 61 316 61 289 61 c 0,47,48
 245 61 245 61 214 74.5 c 128,-1,49
 183 88 183 88 166.5 110 c 128,-1,50
 150 132 150 132 142.5 156.5 c 128,-1,51
 135 181 135 181 135 205 c 0,52,53
 135 259 135 259 173.5 298.5 c 128,-1,54
 212 338 212 338 284 338 c 0,39,40
283 416 m 0,55,56
 232 416 232 416 194.5 446.5 c 128,-1,57
 157 477 157 477 157 526 c 0,58,59
 157 545 157 545 162.5 565 c 128,-1,60
 168 585 168 585 181.5 601.5 c 128,-1,61
 195 618 195 618 219 628.5 c 128,-1,62
 243 639 243 639 276 639 c 0,63,64
 314 639 314 639 340.5 628.5 c 128,-1,65
 367 618 367 618 382 602.5 c 128,-1,66
 397 587 397 587 404 568.5 c 128,-1,67
 411 550 411 550 411 531 c 0,68,69
 411 481 411 481 375.5 448.5 c 128,-1,70
 340 416 340 416 283 416 c 0,55,56
EndSplineSet
EndChar

StartChar: nine
Encoding: 57 57 28
Width: 569
GlyphClass: 2
Flags: W
LayerCount: 2
Fore
SplineSet
269 241 m 0,0,1
 321 241 321 241 368 264 c 128,-1,2
 415 287 415 287 434 327 c 1,3,-1
 436 325 l 1,4,5
 420 185 420 185 378.5 120 c 128,-1,6
 337 55 337 55 263 55 c 0,7,8
 209 55 209 55 177 86.5 c 128,-1,9
 145 118 145 118 141 173 c 1,10,-1
 51 173 l 1,11,12
 51 143 51 143 62 111 c 128,-1,13
 73 79 73 79 97.5 48.5 c 128,-1,14
 122 18 122 18 164 -0.5 c 128,-1,15
 206 -19 206 -19 265 -19 c 0,16,17
 351 -19 351 -19 405.5 29 c 128,-1,18
 460 77 460 77 485.5 146 c 128,-1,19
 511 215 511 215 518.5 277 c 128,-1,20
 526 339 526 339 526 386 c 0,21,22
 526 442 526 442 518 496.5 c 128,-1,23
 510 551 510 551 484.5 602 c 128,-1,24
 459 653 459 653 407 686.5 c 128,-1,25
 355 720 355 720 274 720 c 0,26,27
 219 720 219 720 175.5 700.5 c 128,-1,28
 132 681 132 681 102.5 646.5 c 128,-1,29
 73 612 73 612 58 567 c 128,-1,30
 43 522 43 522 43 473 c 0,31,32
 43 367 43 367 106 304 c 128,-1,33
 169 241 169 241 269 241 c 0,0,1
283 322 m 0,34,35
 256 322 256 322 231.5 327.5 c 128,-1,36
 207 333 207 333 185 349.5 c 128,-1,37
 163 366 163 366 149.5 397 c 128,-1,38
 136 428 136 428 136 477 c 0,39,40
 136 550 136 550 174.5 594.5 c 128,-1,41
 213 639 213 639 275 639 c 0,42,43
 348 639 348 639 384.5 595.5 c 128,-1,44
 421 552 421 552 421 485 c 0,45,46
 421 435 421 435 407 402.5 c 128,-1,47
 393 370 393 370 371.5 352.5 c 128,-1,48
 350 335 350 335 327.5 328.5 c 128,-1,49
 305 322 305 322 283 322 c 0,34,35
EndSplineSet
EndChar

StartChar: colon
Encoding: 58 58 29
Width: 284
GlyphClass: 2
Flags: W
LayerCount: 2
Fore
SplineSet
196 109 m 1,0,-1
 89 109 l 1,1,-1
 89 0 l 1,2,-1
 196 0 l 1,3,-1
 196 109 l 1,0,-1
196 528 m 1,4,-1
 89 528 l 1,5,-1
 89 420 l 1,6,-1
 196 420 l 1,7,-1
 196 528 l 1,4,-1
EndSplineSet
EndChar

StartChar: semicolon
Encoding: 59 59 30
Width: 284
GlyphClass: 2
Flags: W
LayerCount: 2
Fore
SplineSet
89 0 m 1,0,-1
 143 0 l 1,1,2
 143 -42 143 -42 131 -71 c 128,-1,3
 119 -100 119 -100 89 -103 c 1,4,-1
 89 -151 l 1,5,6
 102 -149 102 -149 118 -143 c 128,-1,7
 134 -137 134 -137 152.5 -120 c 128,-1,8
 171 -103 171 -103 183.5 -71.5 c 128,-1,9
 196 -40 196 -40 196 8 c 2,10,-1
 196 109 l 1,11,-1
 89 109 l 1,12,-1
 89 0 l 1,0,-1
196 420 m 1,13,-1
 196 528 l 1,14,-1
 89 528 l 1,15,-1
 89 420 l 1,16,-1
 196 420 l 1,13,-1
EndSplineSet
EndChar

StartChar: less
Encoding: 60 60 31
Width: 598
GlyphClass: 2
Flags: W
LayerCount: 2
Fore
SplineSet
549 93 m 1,0,-1
 150 259 l 1,1,-1
 549 425 l 1,2,-1
 549 507 l 1,3,-1
 49 295 l 1,4,-1
 49 223 l 1,5,-1
 549 11 l 1,6,-1
 549 93 l 1,0,-1
EndSplineSet
EndChar

StartChar: equal
Encoding: 61 61 32
Width: 598
GlyphClass: 2
Flags: W
LayerCount: 2
Fore
SplineSet
558 399 m 1,0,-1
 40 399 l 1,1,-1
 40 325 l 1,2,-1
 558 325 l 1,3,-1
 558 399 l 1,0,-1
558 193 m 1,4,-1
 40 193 l 1,5,-1
 40 118 l 1,6,-1
 558 118 l 1,7,-1
 558 193 l 1,4,-1
EndSplineSet
EndChar

StartChar: greater
Encoding: 62 62 33
Width: 598
GlyphClass: 2
Flags: W
LayerCount: 2
Fore
SplineSet
49 425 m 1,0,-1
 449 259 l 1,1,-1
 49 93 l 1,2,-1
 49 11 l 1,3,-1
 549 223 l 1,4,-1
 549 295 l 1,5,-1
 49 507 l 1,6,-1
 49 425 l 1,0,-1
EndSplineSet
EndChar

StartChar: question
Encoding: 63 63 34
Width: 569
GlyphClass: 2
Flags: W
LayerCount: 2
Fore
SplineSet
147 505 m 1,0,1
 147 530 147 530 151 555 c 128,-1,2
 155 580 155 580 168 606 c 128,-1,3
 181 632 181 632 209.5 649.5 c 128,-1,4
 238 667 238 667 284 667 c 0,5,6
 319 667 319 667 343.5 655.5 c 128,-1,7
 368 644 368 644 381.5 626 c 128,-1,8
 395 608 395 608 401.5 588 c 128,-1,9
 408 568 408 568 408 550 c 0,10,11
 408 527 408 527 404 512.5 c 128,-1,12
 400 498 400 498 392.5 484.5 c 128,-1,13
 385 471 385 471 371 455.5 c 128,-1,14
 357 440 357 440 328 410 c 2,15,-1
 326 408 l 2,16,17
 295 376 295 376 277.5 355.5 c 128,-1,18
 260 335 260 335 249.5 312.5 c 128,-1,19
 239 290 239 290 233.5 260 c 128,-1,20
 228 230 228 230 228 187 c 1,21,-1
 318 187 l 1,22,23
 318 225 318 225 323.5 250 c 128,-1,24
 329 275 329 275 338.5 294 c 128,-1,25
 348 313 348 313 362.5 329 c 128,-1,26
 377 345 377 345 404 372 c 1,27,-1
 408 375 l 1,28,29
 463 428 463 428 483.5 462 c 128,-1,30
 504 496 504 496 504 544 c 0,31,32
 504 638 504 638 441 691 c 128,-1,33
 378 744 378 744 287 744 c 0,34,35
 199 744 199 744 138 697 c 0,36,37
 88 658 88 658 74 615.5 c 128,-1,38
 60 573 60 573 57 505 c 1,39,-1
 147 505 l 1,0,1
326 104 m 1,40,-1
 226 104 l 1,41,-1
 226 0 l 1,42,-1
 326 0 l 1,43,-1
 326 104 l 1,40,-1
EndSplineSet
EndChar

StartChar: at
Encoding: 64 64 35
Width: 1039
GlyphClass: 2
Flags: W
LayerCount: 2
Fore
SplineSet
626 418 m 0,0,1
 626 387 626 387 614 351 c 128,-1,2
 602 315 602 315 581 283.5 c 128,-1,3
 560 252 560 252 532 232.5 c 128,-1,4
 504 213 504 213 473 213 c 0,5,6
 435 213 435 213 411 240.5 c 128,-1,7
 387 268 387 268 387 312 c 0,8,9
 387 344 387 344 398.5 379.5 c 128,-1,10
 410 415 410 415 431 445 c 128,-1,11
 452 475 452 475 480.5 493.5 c 128,-1,12
 509 512 509 512 542 512 c 0,13,14
 576 512 576 512 601 484 c 128,-1,15
 626 456 626 456 626 418 c 0,0,1
657 506 m 1,16,17
 638 548 638 548 608.5 567 c 128,-1,18
 579 586 579 586 540 586 c 0,19,20
 489 586 489 586 444.5 562 c 128,-1,21
 400 538 400 538 368.5 497.5 c 128,-1,22
 337 457 337 457 320 406 c 128,-1,23
 303 355 303 355 303 303 c 0,24,25
 303 235 303 235 346 187 c 128,-1,26
 389 139 389 139 454 139 c 0,27,28
 488 139 488 139 519.5 157 c 128,-1,29
 551 175 551 175 577 203 c 1,30,-1
 579 204 l 1,31,32
 580 172 580 172 598 155.5 c 128,-1,33
 616 139 616 139 644 139 c 0,34,35
 679 139 679 139 721.5 159.5 c 128,-1,36
 764 180 764 180 802.5 219.5 c 128,-1,37
 841 259 841 259 865 314.5 c 128,-1,38
 889 370 889 370 889 435 c 0,39,40
 889 504 889 504 861.5 563 c 128,-1,41
 834 622 834 622 784.5 665 c 128,-1,42
 735 708 735 708 671 731.5 c 128,-1,43
 607 755 607 755 537 755 c 0,44,45
 459 755 459 755 388.5 725 c 128,-1,46
 318 695 318 695 264.5 642 c 128,-1,47
 211 589 211 589 181 519 c 128,-1,48
 151 449 151 449 151 370 c 0,49,50
 151 290 151 290 180.5 218 c 128,-1,51
 210 146 210 146 263.5 93 c 128,-1,52
 317 40 317 40 389 10.5 c 128,-1,53
 461 -19 461 -19 542 -19 c 0,54,55
 640 -19 640 -19 725.5 29 c 128,-1,56
 811 77 811 77 861 161 c 1,57,-1
 793 161 l 1,58,59
 749 108 749 108 682 76 c 128,-1,60
 615 44 615 44 544 44 c 0,61,62
 477 44 477 44 419 68 c 128,-1,63
 361 92 361 92 317 135.5 c 128,-1,64
 273 179 273 179 249 238 c 128,-1,65
 225 297 225 297 225 364 c 0,66,67
 225 432 225 432 247.5 491 c 128,-1,68
 270 550 270 550 312 595.5 c 128,-1,69
 354 641 354 641 411.5 666 c 128,-1,70
 469 691 469 691 537 691 c 0,71,72
 595 691 595 691 646.5 672.5 c 128,-1,73
 698 654 698 654 737.5 620 c 128,-1,74
 777 586 777 586 799.5 536.5 c 128,-1,75
 822 487 822 487 822 427 c 0,76,77
 822 387 822 387 810 347.5 c 128,-1,78
 798 308 798 308 776.5 276 c 128,-1,79
 755 244 755 244 728.5 225 c 128,-1,80
 702 206 702 206 677 206 c 0,81,82
 655 206 655 206 655 236 c 0,83,84
 655 247 655 247 667 289.5 c 128,-1,85
 679 332 679 332 699 401 c 0,86,87
 716 459 716 459 726 492.5 c 128,-1,88
 736 526 736 526 748 569 c 1,89,-1
 678 569 l 1,90,-1
 657 506 l 1,16,17
EndSplineSet
EndChar

StartChar: A
Encoding: 65 65 36
Width: 683
GlyphClass: 2
Flags: W
LayerCount: 2
Fore
SplineSet
488 214 m 1,0,-1
 561 0 l 1,1,-1
 670 0 l 1,2,-1
 403 735 l 1,3,-1
 291 735 l 1,4,-1
 14 0 l 1,5,-1
 117 0 l 1,6,-1
 194 214 l 1,7,-1
 488 214 l 1,0,-1
224 302 m 1,8,-1
 342 626 l 1,9,-1
 344 626 l 1,10,-1
 453 302 l 1,11,-1
 224 302 l 1,8,-1
EndSplineSet
EndChar

StartChar: B
Encoding: 66 66 37
Width: 683
GlyphClass: 2
Flags: W
LayerCount: 2
Fore
SplineSet
175 650 m 1,0,-1
 355 650 l 2,1,2
 436 650 436 650 472 623 c 128,-1,3
 508 596 508 596 508 543 c 0,4,5
 508 478 508 478 469 451 c 128,-1,6
 430 424 430 424 354 424 c 2,7,-1
 175 424 l 1,8,-1
 175 650 l 1,0,-1
76 0 m 1,9,-1
 392 0 l 2,10,11
 510 0 510 0 576 62.5 c 128,-1,12
 642 125 642 125 642 217 c 0,13,14
 642 261 642 261 629 293 c 128,-1,15
 616 325 616 325 596.5 344.5 c 128,-1,16
 577 364 577 364 557 374.5 c 128,-1,17
 537 385 537 385 510 396 c 1,18,-1
 509 396 l 1,19,20
 564 422 564 422 585.5 463.5 c 128,-1,21
 607 505 607 505 607 550 c 0,22,23
 607 630 607 630 552.5 682.5 c 128,-1,24
 498 735 498 735 399 735 c 2,25,-1
 76 735 l 1,26,-1
 76 0 l 1,9,-1
175 343 m 1,27,-1
 371 343 l 2,28,29
 406 343 406 343 435 338 c 128,-1,30
 464 333 464 333 488.5 319 c 128,-1,31
 513 305 513 305 528 280.5 c 128,-1,32
 543 256 543 256 543 219 c 0,33,34
 543 157 543 157 503 121 c 128,-1,35
 463 85 463 85 387 85 c 2,36,-1
 175 85 l 1,37,-1
 175 343 l 1,27,-1
EndSplineSet
EndChar

StartChar: C
Encoding: 67 67 38
Width: 739
GlyphClass: 2
Flags: W
LayerCount: 2
Fore
SplineSet
690 514 m 1,0,1
 685 561 685 561 663 604.5 c 128,-1,2
 641 648 641 648 603 682 c 128,-1,3
 565 716 565 716 511 735.5 c 128,-1,4
 457 755 457 755 388 755 c 0,5,6
 309 755 309 755 245 727 c 128,-1,7
 181 699 181 699 136.5 648.5 c 128,-1,8
 92 598 92 598 68.5 527.5 c 128,-1,9
 45 457 45 457 45 372 c 0,10,11
 45 270 45 270 72 194.5 c 128,-1,12
 99 119 99 119 146 72.5 c 128,-1,13
 193 26 193 26 251.5 3.5 c 128,-1,14
 310 -19 310 -19 376 -19 c 0,15,16
 411 -19 411 -19 454.5 -11 c 128,-1,17
 498 -3 498 -3 549 25 c 128,-1,18
 600 53 600 53 641.5 113.5 c 128,-1,19
 683 174 683 174 697 270 c 1,20,-1
 601 270 l 1,21,22
 590 210 590 210 565.5 169.5 c 128,-1,23
 541 129 541 129 510.5 107 c 128,-1,24
 480 85 480 85 450 77 c 128,-1,25
 420 69 420 69 391 69 c 0,26,27
 324 69 324 69 277 92 c 128,-1,28
 230 115 230 115 201.5 156 c 128,-1,29
 173 197 173 197 160 252 c 128,-1,30
 147 307 147 307 147 375 c 0,31,32
 147 514 147 514 215.5 590.5 c 128,-1,33
 284 667 284 667 388 667 c 0,34,35
 419 667 419 667 449.5 660.5 c 128,-1,36
 480 654 480 654 509.5 637.5 c 128,-1,37
 539 621 539 621 561.5 590.5 c 128,-1,38
 584 560 584 560 594 514 c 1,39,-1
 690 514 l 1,0,1
EndSplineSet
EndChar

StartChar: D
Encoding: 68 68 39
Width: 739
GlyphClass: 2
Flags: W
LayerCount: 2
Fore
SplineSet
83 0 m 1,0,-1
 377 0 l 2,1,2
 463 0 463 0 524.5 34 c 128,-1,3
 586 68 586 68 622 123.5 c 128,-1,4
 658 179 658 179 674 245 c 128,-1,5
 690 311 690 311 690 378 c 0,6,7
 690 457 690 457 668.5 523 c 128,-1,8
 647 589 647 589 607 636.5 c 128,-1,9
 567 684 567 684 509.5 709.5 c 128,-1,10
 452 735 452 735 381 735 c 2,11,-1
 83 735 l 1,12,-1
 83 0 l 1,0,-1
182 650 m 1,13,-1
 368 650 l 2,14,15
 471 650 471 650 529.5 579 c 128,-1,16
 588 508 588 508 588 372 c 256,17,18
 588 236 588 236 530.5 160.5 c 128,-1,19
 473 85 473 85 375 85 c 2,20,-1
 182 85 l 1,21,-1
 182 650 l 1,13,-1
EndSplineSet
EndChar

StartChar: E
Encoding: 69 69 40
Width: 683
GlyphClass: 2
Flags: W
LayerCount: 2
Fore
SplineSet
631 88 m 1,0,-1
 187 88 l 1,1,-1
 187 334 l 1,2,-1
 590 334 l 1,3,-1
 590 422 l 1,4,-1
 187 422 l 1,5,-1
 187 647 l 1,6,-1
 624 647 l 1,7,-1
 624 735 l 1,8,-1
 88 735 l 1,9,-1
 88 0 l 1,10,-1
 631 0 l 1,11,-1
 631 88 l 1,0,-1
EndSplineSet
EndChar

StartChar: F
Encoding: 70 70 41
Width: 625
GlyphClass: 2
Flags: W
LayerCount: 2
Fore
SplineSet
187 334 m 1,0,-1
 548 334 l 1,1,-1
 548 422 l 1,2,-1
 187 422 l 1,3,-1
 187 647 l 1,4,-1
 597 647 l 1,5,-1
 597 735 l 1,6,-1
 88 735 l 1,7,-1
 88 0 l 1,8,-1
 187 0 l 1,9,-1
 187 334 l 1,0,-1
EndSplineSet
EndChar

StartChar: G
Encoding: 71 71 42
Width: 796
GlyphClass: 2
Flags: W
LayerCount: 2
Fore
SplineSet
398 308 m 1,0,-1
 628 308 l 1,1,2
 628 243 628 243 610 195.5 c 128,-1,3
 592 148 592 148 547 113 c 0,4,5
 511 84 511 84 472.5 75 c 128,-1,6
 434 66 434 66 396 66 c 0,7,8
 326 66 326 66 277.5 91 c 128,-1,9
 229 116 229 116 202 159 c 128,-1,10
 175 202 175 202 163.5 255 c 128,-1,11
 152 308 152 308 152 369 c 0,12,13
 152 440 152 440 170 495.5 c 128,-1,14
 188 551 188 551 221.5 589.5 c 128,-1,15
 255 628 255 628 298.5 647.5 c 128,-1,16
 342 667 342 667 392 667 c 0,17,18
 426 667 426 667 459.5 660 c 128,-1,19
 493 653 493 653 523.5 636.5 c 128,-1,20
 554 620 554 620 577.5 589 c 128,-1,21
 601 558 601 558 612 512 c 1,22,-1
 709 512 l 1,23,24
 702 571 702 571 672 617.5 c 128,-1,25
 642 664 642 664 598 694.5 c 128,-1,26
 554 725 554 725 502 740 c 128,-1,27
 450 755 450 755 397 755 c 0,28,29
 311 755 311 755 244.5 722 c 128,-1,30
 178 689 178 689 135 634 c 128,-1,31
 92 579 92 579 70.5 511 c 128,-1,32
 49 443 49 443 49 374 c 0,33,34
 49 334 49 334 52 299.5 c 128,-1,35
 55 265 55 265 66 225 c 128,-1,36
 77 185 77 185 101 143 c 128,-1,37
 125 101 125 101 165 63 c 0,38,39
 202 27 202 27 254 4 c 128,-1,40
 306 -19 306 -19 390 -19 c 0,41,42
 465 -19 465 -19 530 12 c 128,-1,43
 595 43 595 43 633 95 c 1,44,-1
 656 0 l 1,45,-1
 721 0 l 1,46,-1
 721 393 l 1,47,-1
 398 393 l 1,48,-1
 398 308 l 1,0,-1
EndSplineSet
EndChar

StartChar: H
Encoding: 72 72 43
Width: 739
GlyphClass: 2
Flags: W
LayerCount: 2
Fore
SplineSet
562 431 m 1,0,-1
 178 431 l 1,1,-1
 178 735 l 1,2,-1
 79 735 l 1,3,-1
 79 0 l 1,4,-1
 178 0 l 1,5,-1
 178 343 l 1,6,-1
 562 343 l 1,7,-1
 562 0 l 1,8,-1
 662 0 l 1,9,-1
 662 735 l 1,10,-1
 562 735 l 1,11,-1
 562 431 l 1,0,-1
EndSplineSet
EndChar

StartChar: I
Encoding: 73 73 44
Width: 284
GlyphClass: 2
Flags: W
LayerCount: 2
Fore
SplineSet
193 735 m 1,0,-1
 93 735 l 1,1,-1
 93 0 l 1,2,-1
 193 0 l 1,3,-1
 193 735 l 1,0,-1
EndSplineSet
EndChar

StartChar: J
Encoding: 74 74 45
Width: 512
GlyphClass: 2
Flags: W
LayerCount: 2
Fore
SplineSet
17 237 m 1,0,-1
 17 164 l 2,1,2
 17 134 17 134 27 103 c 128,-1,3
 37 72 37 72 60 44 c 128,-1,4
 83 16 83 16 124.5 -1.5 c 128,-1,5
 166 -19 166 -19 226 -19 c 0,6,7
 266 -19 266 -19 303.5 -8.5 c 128,-1,8
 341 2 341 2 371 26.5 c 128,-1,9
 401 51 401 51 419.5 94 c 128,-1,10
 438 137 438 137 438 199 c 2,11,-1
 438 735 l 1,12,-1
 339 735 l 1,13,-1
 339 193 l 2,14,15
 339 134 339 134 312.5 100 c 128,-1,16
 286 66 286 66 221 66 c 0,17,18
 167 66 167 66 139 94 c 128,-1,19
 111 122 111 122 111 185 c 2,20,-1
 111 237 l 1,21,-1
 17 237 l 1,0,-1
EndSplineSet
EndChar

StartChar: K
Encoding: 75 75 46
Width: 683
GlyphClass: 2
Flags: W
LayerCount: 2
Fore
SplineSet
177 258 m 1,0,-1
 293 369 l 1,1,-1
 550 0 l 1,2,-1
 679 0 l 1,3,-1
 365 438 l 1,4,-1
 671 735 l 1,5,-1
 534 735 l 1,6,-1
 177 379 l 1,7,-1
 177 735 l 1,8,-1
 78 735 l 1,9,-1
 78 0 l 1,10,-1
 177 0 l 1,11,-1
 177 258 l 1,0,-1
EndSplineSet
EndChar

StartChar: L
Encoding: 76 76 47
Width: 569
GlyphClass: 2
Flags: W
LayerCount: 2
Fore
SplineSet
177 735 m 1,0,-1
 78 735 l 1,1,-1
 78 0 l 1,2,-1
 550 0 l 1,3,-1
 550 88 l 1,4,-1
 177 88 l 1,5,-1
 177 735 l 1,0,-1
EndSplineSet
EndChar

StartChar: M
Encoding: 77 77 48
Width: 852
GlyphClass: 2
Flags: W
LayerCount: 2
Fore
SplineSet
779 0 m 1,0,-1
 779 735 l 1,1,-1
 638 735 l 1,2,-1
 429 114 l 1,3,-1
 427 114 l 1,4,-1
 217 735 l 1,5,-1
 75 735 l 1,6,-1
 75 0 l 1,7,-1
 171 0 l 1,8,-1
 171 434 l 2,9,10
 171 437 171 437 170 481 c 0,11,12
 169 571 169 571 169 616 c 1,13,-1
 171 616 l 1,14,-1
 378 0 l 1,15,-1
 476 0 l 1,16,-1
 683 617 l 1,17,-1
 685 617 l 1,18,19
 685 571 685 571 684 480 c 0,20,21
 683 437 683 437 683 434 c 2,22,-1
 683 0 l 1,23,-1
 779 0 l 1,0,-1
EndSplineSet
EndChar

StartChar: N
Encoding: 78 78 49
Width: 739
GlyphClass: 2
Flags: W
LayerCount: 2
Fore
SplineSet
565 141 m 1,0,-1
 563 141 l 1,1,-1
 196 735 l 1,2,-1
 78 735 l 1,3,-1
 78 0 l 1,4,-1
 174 0 l 1,5,-1
 174 594 l 1,6,-1
 176 594 l 1,7,-1
 550 0 l 1,8,-1
 662 0 l 1,9,-1
 662 735 l 1,10,-1
 565 735 l 1,11,-1
 565 141 l 1,0,-1
EndSplineSet
EndChar

StartChar: O
Encoding: 79 79 50
Width: 796
GlyphClass: 2
Flags: W
LayerCount: 2
Fore
SplineSet
654 368 m 0,0,1
 654 303 654 303 637 248.5 c 128,-1,2
 620 194 620 194 586.5 153.5 c 128,-1,3
 553 113 553 113 505.5 91 c 128,-1,4
 458 69 458 69 398 69 c 0,5,6
 339 69 339 69 291.5 91 c 128,-1,7
 244 113 244 113 210.5 153 c 128,-1,8
 177 193 177 193 159.5 248 c 128,-1,9
 142 303 142 303 142 368 c 0,10,11
 142 434 142 434 159.5 488 c 128,-1,12
 177 542 177 542 210.5 582.5 c 128,-1,13
 244 623 244 623 291.5 645 c 128,-1,14
 339 667 339 667 398 667 c 256,15,16
 457 667 457 667 505 645 c 128,-1,17
 553 623 553 623 586.5 583 c 128,-1,18
 620 543 620 543 637 488.5 c 128,-1,19
 654 434 654 434 654 368 c 0,0,1
757 368 m 256,20,21
 757 433 757 433 738.5 499.5 c 128,-1,22
 720 566 720 566 678 624.5 c 128,-1,23
 636 683 636 683 566 719 c 128,-1,24
 496 755 496 755 398 755 c 0,25,26
 301 755 301 755 231 719 c 128,-1,27
 161 683 161 683 119.5 624.5 c 128,-1,28
 78 566 78 566 59 499 c 128,-1,29
 40 432 40 432 40 368 c 0,30,31
 40 303 40 303 58.5 236 c 128,-1,32
 77 169 77 169 119 110.5 c 128,-1,33
 161 52 161 52 231 16.5 c 128,-1,34
 301 -19 301 -19 398 -19 c 256,35,36
 495 -19 495 -19 565.5 16.5 c 128,-1,37
 636 52 636 52 678 110.5 c 128,-1,38
 720 169 720 169 738.5 236 c 128,-1,39
 757 303 757 303 757 368 c 256,20,21
EndSplineSet
EndChar

StartChar: P
Encoding: 80 80 51
Width: 683
GlyphClass: 2
Flags: W
LayerCount: 2
Fore
SplineSet
187 650 m 1,0,-1
 389 650 l 2,1,2
 457 650 457 650 496 621.5 c 128,-1,3
 535 593 535 593 535 527 c 0,4,5
 535 456 535 456 496 425.5 c 128,-1,6
 457 395 457 395 385 395 c 2,7,-1
 187 395 l 1,8,-1
 187 650 l 1,0,-1
187 310 m 1,9,-1
 419 310 l 2,10,11
 476 310 476 310 518 329 c 128,-1,12
 560 348 560 348 586 379.5 c 128,-1,13
 612 411 612 411 624.5 449 c 128,-1,14
 637 487 637 487 637 528 c 0,15,16
 637 619 637 619 578 677 c 128,-1,17
 519 735 519 735 419 735 c 2,18,-1
 88 735 l 1,19,-1
 88 0 l 1,20,-1
 187 0 l 1,21,-1
 187 310 l 1,9,-1
EndSplineSet
EndChar

StartChar: Q
Encoding: 81 81 52
Width: 796
GlyphClass: 2
Flags: W
LayerCount: 2
Fore
SplineSet
430 152 m 1,0,-1
 507 92 l 1,1,2
 460 68 460 68 398 69 c 0,3,4
 339 69 339 69 291.5 91 c 128,-1,5
 244 113 244 113 210.5 153 c 128,-1,6
 177 193 177 193 159.5 248 c 128,-1,7
 142 303 142 303 142 368 c 0,8,9
 142 434 142 434 159.5 488 c 128,-1,10
 177 542 177 542 210.5 582.5 c 128,-1,11
 244 623 244 623 291.5 645 c 128,-1,12
 339 667 339 667 398 667 c 256,13,14
 457 667 457 667 505 645 c 128,-1,15
 553 623 553 623 586.5 583 c 128,-1,16
 620 543 620 543 637 488 c 128,-1,17
 654 433 654 433 654 368 c 0,18,19
 654 297 654 297 633 238 c 128,-1,20
 612 179 612 179 573 140 c 1,21,-1
 480 213 l 1,22,-1
 430 152 l 1,0,-1
751 2 m 1,23,-1
 650 80 l 1,24,25
 704 135 704 135 730.5 212.5 c 128,-1,26
 757 290 757 290 757 368 c 0,27,28
 757 433 757 433 738.5 499.5 c 128,-1,29
 720 566 720 566 678 624.5 c 128,-1,30
 636 683 636 683 566 719 c 128,-1,31
 496 755 496 755 398 755 c 0,32,33
 301 755 301 755 231 719 c 128,-1,34
 161 683 161 683 119.5 624.5 c 128,-1,35
 78 566 78 566 59 499 c 128,-1,36
 40 432 40 432 40 368 c 0,37,38
 40 303 40 303 58.5 236 c 128,-1,39
 77 169 77 169 119 110.5 c 128,-1,40
 161 52 161 52 231 16.5 c 128,-1,41
 301 -19 301 -19 398 -19 c 0,42,43
 511 -19 511 -19 588 30 c 1,44,-1
 700 -57 l 1,45,-1
 751 2 l 1,23,-1
EndSplineSet
EndChar

StartChar: R
Encoding: 82 82 53
Width: 739
GlyphClass: 2
Flags: W
LayerCount: 2
Fore
SplineSet
189 315 m 1,0,-1
 430 315 l 2,1,2
 472 315 472 315 498.5 304 c 128,-1,3
 525 293 525 293 539 274 c 128,-1,4
 553 255 553 255 557 233 c 128,-1,5
 561 211 561 211 561 184 c 0,6,7
 561 171 561 171 562 145.5 c 128,-1,8
 563 120 563 120 564.5 94 c 128,-1,9
 566 68 566 68 569.5 41.5 c 128,-1,10
 573 15 573 15 579 0 c 1,11,-1
 700 0 l 1,12,-1
 700 16 l 1,13,14
 677 28 677 28 671 43 c 128,-1,15
 665 58 665 58 664 90 c 2,16,-1
 657 223 l 2,17,18
 656 260 656 260 648.5 284 c 128,-1,19
 641 308 641 308 628.5 323 c 128,-1,20
 616 338 616 338 603 345.5 c 128,-1,21
 590 353 590 353 569 361 c 1,22,23
 591 373 591 373 608 387 c 128,-1,24
 625 401 625 401 639.5 421 c 128,-1,25
 654 441 654 441 663 470 c 128,-1,26
 672 499 672 499 672 538 c 0,27,28
 672 594 672 594 652 632.5 c 128,-1,29
 632 671 632 671 598 693.5 c 128,-1,30
 564 716 564 716 521 725.5 c 128,-1,31
 478 735 478 735 430 735 c 2,32,-1
 90 735 l 1,33,-1
 90 0 l 1,34,-1
 189 0 l 1,35,-1
 189 315 l 1,0,-1
189 650 m 1,36,-1
 437 650 l 2,37,38
 461 650 461 650 482.5 646 c 128,-1,39
 504 642 504 642 524 629.5 c 128,-1,40
 544 617 544 617 556.5 592 c 128,-1,41
 569 567 569 567 569 527 c 0,42,43
 569 488 569 488 557 462.5 c 128,-1,44
 545 437 545 437 523.5 424 c 128,-1,45
 502 411 502 411 476.5 405.5 c 128,-1,46
 451 400 451 400 420 400 c 2,47,-1
 189 400 l 1,48,-1
 189 650 l 1,36,-1
EndSplineSet
EndChar

StartChar: S
Encoding: 83 83 54
Width: 683
GlyphClass: 2
Flags: W
LayerCount: 2
Fore
SplineSet
614 520 m 1,0,1
 612 560 612 560 602 598 c 128,-1,2
 592 636 592 636 563 672 c 128,-1,3
 534 708 534 708 476 731.5 c 128,-1,4
 418 755 418 755 328 755 c 0,5,6
 263 755 263 755 214.5 736.5 c 128,-1,7
 166 718 166 718 135 685.5 c 128,-1,8
 104 653 104 653 89.5 612 c 128,-1,9
 75 571 75 571 75 527 c 0,10,11
 75 482 75 482 91.5 450.5 c 128,-1,12
 108 419 108 419 132.5 399.5 c 128,-1,13
 157 380 157 380 182 370 c 128,-1,14
 207 360 207 360 231 354 c 2,15,-1
 382 319 l 2,16,17
 430 308 430 308 459 297.5 c 128,-1,18
 488 287 488 287 505.5 272.5 c 128,-1,19
 523 258 523 258 531 238.5 c 128,-1,20
 539 219 539 219 539 189 c 0,21,22
 539 152 539 152 520 127 c 128,-1,23
 501 102 501 102 471.5 89 c 128,-1,24
 442 76 442 76 410 71 c 128,-1,25
 378 66 378 66 346 66 c 0,26,27
 308 66 308 66 273 74.5 c 128,-1,28
 238 83 238 83 208 103 c 128,-1,29
 178 123 178 123 160.5 156.5 c 128,-1,30
 143 190 143 190 143 238 c 1,31,-1
 50 238 l 1,32,33
 50 180 50 180 65.5 135 c 128,-1,34
 81 90 81 90 125 51 c 0,35,36
 141 37 141 37 158 25.5 c 128,-1,37
 175 14 175 14 200 4 c 128,-1,38
 225 -6 225 -6 262 -12.5 c 128,-1,39
 299 -19 299 -19 347 -19 c 0,40,41
 399 -19 399 -19 449 -8 c 128,-1,42
 499 3 499 3 541.5 28 c 128,-1,43
 584 53 584 53 609.5 97 c 128,-1,44
 635 141 635 141 635 203 c 0,45,46
 635 286 635 286 590 333.5 c 128,-1,47
 545 381 545 381 468 399 c 2,48,-1
 258 447 l 2,49,50
 219 456 219 456 195 477.5 c 128,-1,51
 171 499 171 499 171 541 c 0,52,53
 171 581 171 581 187.5 606.5 c 128,-1,54
 204 632 204 632 229.5 645.5 c 128,-1,55
 255 659 255 659 282.5 664.5 c 128,-1,56
 310 670 310 670 339 670 c 0,57,58
 372 670 372 670 403 662 c 128,-1,59
 434 654 434 654 460 637 c 128,-1,60
 486 620 486 620 502.5 590.5 c 128,-1,61
 519 561 519 561 521 520 c 1,62,-1
 614 520 l 1,0,1
EndSplineSet
EndChar

StartChar: T
Encoding: 84 84 55
Width: 625
GlyphClass: 2
Flags: W
LayerCount: 2
Fore
SplineSet
14 647 m 1,0,-1
 263 647 l 1,1,-1
 263 0 l 1,2,-1
 362 0 l 1,3,-1
 362 647 l 1,4,-1
 611 647 l 1,5,-1
 611 735 l 1,6,-1
 14 735 l 1,7,-1
 14 647 l 1,0,-1
EndSplineSet
EndChar

StartChar: U
Encoding: 85 85 56
Width: 739
GlyphClass: 2
Flags: W
LayerCount: 2
Fore
SplineSet
560 735 m 1,0,-1
 560 270 l 2,1,2
 560 213 560 213 543.5 173.5 c 128,-1,3
 527 134 527 134 499.5 111 c 128,-1,4
 472 88 472 88 438 78.5 c 128,-1,5
 404 69 404 69 367 69 c 0,6,7
 331 69 331 69 298 79 c 128,-1,8
 265 89 265 89 238.5 112 c 128,-1,9
 212 135 212 135 196 175 c 128,-1,10
 180 215 180 215 180 272 c 2,11,-1
 180 735 l 1,12,-1
 81 735 l 1,13,-1
 81 245 l 2,14,15
 81 192 81 192 98 144.5 c 128,-1,16
 115 97 115 97 149.5 60 c 128,-1,17
 184 23 184 23 238 2 c 128,-1,18
 292 -19 292 -19 364 -19 c 0,19,20
 438 -19 438 -19 493.5 2.5 c 128,-1,21
 549 24 549 24 586.5 62 c 128,-1,22
 624 100 624 100 641.5 150.5 c 128,-1,23
 659 201 659 201 659 258 c 2,24,-1
 659 735 l 1,25,-1
 560 735 l 1,0,-1
EndSplineSet
EndChar

StartChar: V
Encoding: 86 86 57
Width: 683
GlyphClass: 2
Flags: W
LayerCount: 2
Fore
SplineSet
343 109 m 1,0,-1
 341 109 l 1,1,-1
 131 735 l 1,2,-1
 20 735 l 1,3,-1
 289 0 l 1,4,-1
 394 0 l 1,5,-1
 663 735 l 1,6,-1
 551 735 l 1,7,-1
 343 109 l 1,0,-1
EndSplineSet
EndChar

StartChar: W
Encoding: 87 87 58
Width: 966
GlyphClass: 2
Flags: W
LayerCount: 2
Fore
SplineSet
482 609 m 1,0,-1
 484 609 l 1,1,-1
 652 0 l 1,2,-1
 757 0 l 1,3,-1
 950 735 l 1,4,-1
 841 735 l 1,5,-1
 703 137 l 1,6,-1
 701 137 l 1,7,-1
 537 735 l 1,8,-1
 428 735 l 1,9,-1
 263 137 l 1,10,-1
 261 137 l 1,11,-1
 124 735 l 1,12,-1
 16 735 l 1,13,-1
 208 0 l 1,14,-1
 312 0 l 1,15,-1
 482 609 l 1,0,-1
EndSplineSet
EndChar

StartChar: X
Encoding: 88 88 59
Width: 683
GlyphClass: 2
Flags: W
LayerCount: 2
Fore
SplineSet
406 377 m 1,0,-1
 652 735 l 1,1,-1
 534 735 l 1,2,-1
 347 454 l 1,3,-1
 161 735 l 1,4,-1
 36 735 l 1,5,-1
 283 377 l 1,6,-1
 19 0 l 1,7,-1
 139 0 l 1,8,-1
 343 302 l 1,9,-1
 541 0 l 1,10,-1
 664 0 l 1,11,-1
 406 377 l 1,0,-1
EndSplineSet
EndChar

StartChar: Y
Encoding: 89 89 60
Width: 683
GlyphClass: 2
Flags: W
LayerCount: 2
Fore
SplineSet
391 296 m 1,0,-1
 669 735 l 1,1,-1
 552 735 l 1,2,-1
 341 382 l 1,3,-1
 130 735 l 1,4,-1
 14 735 l 1,5,-1
 292 296 l 1,6,-1
 292 0 l 1,7,-1
 391 0 l 1,8,-1
 391 296 l 1,0,-1
EndSplineSet
EndChar

StartChar: Z
Encoding: 90 90 61
Width: 625
GlyphClass: 2
Flags: W
LayerCount: 2
Fore
SplineSet
602 88 m 1,0,-1
 150 88 l 1,1,-1
 602 649 l 1,2,-1
 602 735 l 1,3,-1
 57 735 l 1,4,-1
 57 647 l 1,5,-1
 474 647 l 1,6,-1
 24 83 l 1,7,-1
 24 0 l 1,8,-1
 602 0 l 1,9,-1
 602 88 l 1,0,-1
EndSplineSet
EndChar

StartChar: bracketleft
Encoding: 91 91 62
Width: 284
GlyphClass: 2
Flags: W
LayerCount: 2
Fore
SplineSet
145 667 m 1,0,-1
 256 667 l 1,1,-1
 256 739 l 1,2,-1
 65 739 l 1,3,-1
 65 -201 l 1,4,-1
 256 -201 l 1,5,-1
 256 -128 l 1,6,-1
 145 -128 l 1,7,-1
 145 667 l 1,0,-1
EndSplineSet
EndChar

StartChar: backslash
Encoding: 92 92 63
Width: 284
GlyphClass: 2
Flags: W
LayerCount: 2
Fore
SplineSet
233 -19 m 1,0,-1
 302 -19 l 1,1,-1
 50 755 l 1,2,-1
 -17 755 l 1,3,-1
 233 -19 l 1,0,-1
EndSplineSet
EndChar

StartChar: bracketright
Encoding: 93 93 64
Width: 284
GlyphClass: 2
Flags: W
LayerCount: 2
Fore
SplineSet
139 -128 m 1,0,-1
 29 -128 l 1,1,-1
 29 -201 l 1,2,-1
 220 -201 l 1,3,-1
 220 739 l 1,4,-1
 29 739 l 1,5,-1
 29 667 l 1,6,-1
 139 667 l 1,7,-1
 139 -128 l 1,0,-1
EndSplineSet
EndChar

StartChar: asciicircum
Encoding: 94 94 65
Width: 480
GlyphClass: 2
Flags: W
LayerCount: 2
Fore
SplineSet
495 270 m 1,0,-1
 278 705 l 1,1,-1
 204 705 l 1,2,-1
 -14 270 l 1,3,-1
 66 270 l 1,4,-1
 241 623 l 1,5,-1
 416 270 l 1,6,-1
 495 270 l 1,0,-1
EndSplineSet
EndChar

StartChar: underscore
Encoding: 95 95 66
Width: 569
GlyphClass: 2
Flags: W
LayerCount: 2
Fore
SplineSet
569 -128 m 1,0,-1
 569 -77 l 1,1,-1
 0 -77 l 1,2,-1
 0 -128 l 1,3,-1
 569 -128 l 1,0,-1
EndSplineSet
EndChar

StartChar: quoteleft
Encoding: 96 96 67
Width: 227
GlyphClass: 2
Flags: W
LayerCount: 2
Fore
SplineSet
173 590 m 1,0,-1
 119 590 l 1,1,2
 119 607 119 607 120.5 623 c 128,-1,3
 122 639 122 639 127 654 c 128,-1,4
 132 669 132 669 143.5 680 c 128,-1,5
 155 691 155 691 173 694 c 1,6,-1
 173 742 l 1,7,8
 115 729 115 729 91 687.5 c 128,-1,9
 67 646 67 646 67 582 c 2,10,-1
 67 481 l 1,11,-1
 173 481 l 1,12,-1
 173 590 l 1,0,-1
EndSplineSet
EndChar

StartChar: a
Encoding: 97 97 68
Width: 569
GlyphClass: 2
Flags: W
LayerCount: 2
Fore
SplineSet
146 373 m 1,0,1
 149 393 149 393 155 409.5 c 128,-1,2
 161 426 161 426 173.5 441.5 c 128,-1,3
 186 457 186 457 209.5 466.5 c 128,-1,4
 233 476 233 476 269 476 c 0,5,6
 395 476 395 476 395 389 c 0,7,8
 395 353 395 353 382.5 340.5 c 128,-1,9
 370 328 370 328 348 326 c 2,10,-1
 200 307 l 2,11,12
 148 301 148 301 114.5 281 c 128,-1,13
 81 261 81 261 64 235.5 c 128,-1,14
 47 210 47 210 42 186 c 128,-1,15
 37 162 37 162 37 139 c 0,16,17
 37 70 37 70 84 27.5 c 128,-1,18
 131 -15 131 -15 205 -15 c 0,19,20
 275 -15 275 -15 319.5 9.5 c 128,-1,21
 364 34 364 34 398 72 c 1,22,23
 401 34 401 34 420 12 c 128,-1,24
 439 -10 439 -10 494 -10 c 0,25,26
 509 -10 509 -10 531 -3 c 0,27,28
 538 -1 538 -1 543 0 c 1,29,-1
 543 66 l 1,30,31
 523 62 523 62 513 61 c 0,32,33
 483 61 483 61 483 93 c 2,34,-1
 483 401 l 2,35,36
 483 449 483 449 460 480 c 128,-1,37
 437 511 437 511 404 526 c 128,-1,38
 371 541 371 541 339.5 546 c 128,-1,39
 308 551 308 551 285 551 c 0,40,41
 182 551 182 551 124.5 508.5 c 128,-1,42
 67 466 67 466 63 373 c 1,43,-1
 146 373 l 1,0,1
393 185 m 2,44,45
 393 158 393 158 379.5 135.5 c 128,-1,46
 366 113 366 113 342 96 c 128,-1,47
 318 79 318 79 288 69 c 128,-1,48
 258 59 258 59 227 59 c 0,49,50
 178 59 178 59 154 83.5 c 128,-1,51
 130 108 130 108 130 153 c 0,52,53
 130 177 130 177 141 193 c 128,-1,54
 152 209 152 209 169 218 c 128,-1,55
 186 227 186 227 205 232 c 128,-1,56
 224 237 224 237 245 240 c 0,57,58
 323 250 323 250 352 257 c 128,-1,59
 381 264 381 264 393 273 c 1,60,-1
 393 185 l 2,44,45
EndSplineSet
EndChar

StartChar: b
Encoding: 98 98 69
Width: 569
GlyphClass: 2
Flags: W
LayerCount: 2
Fore
SplineSet
144 0 m 1,0,-1
 144 67 l 1,1,-1
 146 67 l 1,2,3
 155 53 155 53 166 39.5 c 128,-1,4
 177 26 177 26 194.5 13.5 c 128,-1,5
 212 1 212 1 237 -7 c 128,-1,6
 262 -15 262 -15 294 -15 c 0,7,8
 360 -15 360 -15 406 12 c 128,-1,9
 452 39 452 39 479 83 c 128,-1,10
 506 127 506 127 517.5 179 c 128,-1,11
 529 231 529 231 529 284 c 0,12,13
 529 401 529 401 470 476 c 128,-1,14
 411 551 411 551 306 551 c 0,15,16
 208 549 208 549 152 468 c 1,17,-1
 150 468 l 1,18,-1
 150 735 l 1,19,-1
 59 735 l 1,20,-1
 59 0 l 1,21,-1
 144 0 l 1,0,-1
436 269 m 0,22,23
 436 176 436 176 399 119 c 128,-1,24
 362 62 362 62 292 62 c 0,25,26
 268 62 268 62 243 71 c 128,-1,27
 218 80 218 80 195.5 101 c 128,-1,28
 173 122 173 122 159 157.5 c 128,-1,29
 145 193 145 193 145 243 c 0,30,31
 145 283 145 283 150.5 320 c 128,-1,32
 156 357 156 357 170.5 392 c 128,-1,33
 185 427 185 427 214.5 448.5 c 128,-1,34
 244 470 244 470 290 470 c 0,35,36
 339 470 339 470 369 450 c 128,-1,37
 399 430 399 430 413.5 399 c 128,-1,38
 428 368 428 368 432 336 c 128,-1,39
 436 304 436 304 436 269 c 0,22,23
EndSplineSet
EndChar

StartChar: c
Encoding: 99 99 70
Width: 512
GlyphClass: 2
Flags: W
LayerCount: 2
Fore
SplineSet
488 355 m 1,0,1
 485 392 485 392 473 427 c 128,-1,2
 461 462 461 462 437 490 c 128,-1,3
 413 518 413 518 375.5 534.5 c 128,-1,4
 338 551 338 551 288 551 c 0,5,6
 223 551 223 551 174.5 528.5 c 128,-1,7
 126 506 126 506 93.5 465 c 128,-1,8
 61 424 61 424 46 370 c 128,-1,9
 31 316 31 316 31 253 c 0,10,11
 31 134 31 134 95.5 59.5 c 128,-1,12
 160 -15 160 -15 270 -15 c 0,13,14
 326 -15 326 -15 367 4 c 128,-1,15
 408 23 408 23 433.5 53.5 c 128,-1,16
 459 84 459 84 471.5 119 c 128,-1,17
 484 154 484 154 488 189 c 1,18,-1
 401 189 l 1,19,20
 390 129 390 129 355.5 95.5 c 128,-1,21
 321 62 321 62 273 62 c 0,22,23
 229 62 229 62 200 80 c 128,-1,24
 171 98 171 98 155 128.5 c 128,-1,25
 139 159 139 159 133 194 c 128,-1,26
 127 229 127 229 127 268 c 0,27,28
 127 306 127 306 134.5 342 c 128,-1,29
 142 378 142 378 159.5 406.5 c 128,-1,30
 177 435 177 435 205.5 452.5 c 128,-1,31
 234 470 234 470 274 470 c 0,32,33
 329 470 329 470 361 440.5 c 128,-1,34
 393 411 393 411 401 355 c 1,35,-1
 488 355 l 1,0,1
EndSplineSet
EndChar

StartChar: d
Encoding: 100 100 71
Width: 569
GlyphClass: 2
Flags: W
LayerCount: 2
Fore
SplineSet
511 735 m 1,0,-1
 421 735 l 1,1,-1
 421 467 l 1,2,-1
 419 460 l 1,3,-1
 418 461 l 1,4,5
 406 479 406 479 394.5 492 c 128,-1,6
 383 505 383 505 364.5 519.5 c 128,-1,7
 346 534 346 534 319.5 542.5 c 128,-1,8
 293 551 293 551 259 551 c 0,9,10
 156 551 156 551 96 475.5 c 128,-1,11
 36 400 36 400 36 284 c 0,12,13
 36 232 36 232 48 179.5 c 128,-1,14
 60 127 60 127 87.5 83 c 128,-1,15
 115 39 115 39 161 12 c 128,-1,16
 207 -15 207 -15 271 -15 c 0,17,18
 317 -15 317 -15 357 5 c 128,-1,19
 397 25 397 25 424 74 c 1,20,-1
 426 74 l 1,21,-1
 426 0 l 1,22,-1
 511 0 l 1,23,-1
 511 735 l 1,0,-1
129 269 m 0,24,25
 129 304 129 304 133 336 c 128,-1,26
 137 368 137 368 151.5 399 c 128,-1,27
 166 430 166 430 196 450 c 128,-1,28
 226 470 226 470 275 470 c 0,29,30
 321 470 321 470 350.5 448.5 c 128,-1,31
 380 427 380 427 395 392.5 c 128,-1,32
 410 358 410 358 415 320.5 c 128,-1,33
 420 283 420 283 420 243 c 0,34,35
 420 193 420 193 406 157 c 128,-1,36
 392 121 392 121 370 100.5 c 128,-1,37
 348 80 348 80 322.5 71 c 128,-1,38
 297 62 297 62 273 62 c 0,39,40
 202 62 202 62 165.5 119 c 128,-1,41
 129 176 129 176 129 269 c 0,24,25
EndSplineSet
EndChar

StartChar: e
Encoding: 101 101 72
Width: 569
GlyphClass: 2
Flags: W
LayerCount: 2
Fore
SplineSet
431 168 m 1,0,1
 428 133 428 133 393 100 c 0,2,3
 374 83 374 83 349 72.5 c 128,-1,4
 324 62 324 62 293 62 c 0,5,6
 216 62 216 62 176.5 108 c 128,-1,7
 137 154 137 154 137 239 c 1,8,-1
 528 239 l 1,9,10
 528 385 528 385 470 468 c 128,-1,11
 412 551 412 551 298 551 c 0,12,13
 233 551 233 551 184.5 528.5 c 128,-1,14
 136 506 136 506 104 465 c 128,-1,15
 72 424 72 424 56.5 370 c 128,-1,16
 41 316 41 316 41 253 c 0,17,18
 41 134 41 134 105.5 59.5 c 128,-1,19
 170 -15 170 -15 281 -15 c 0,20,21
 338 -15 338 -15 369 -5 c 128,-1,22
 400 5 400 5 426 22 c 0,23,24
 450 37 450 37 467.5 58 c 128,-1,25
 485 79 485 79 498 102 c 0,26,27
 518 139 518 139 521 168 c 1,28,-1
 431 168 l 1,0,1
137 310 m 1,29,30
 137 341 137 341 148.5 370 c 128,-1,31
 160 399 160 399 180.5 421.5 c 128,-1,32
 201 444 201 444 228.5 457 c 128,-1,33
 256 470 256 470 286 470 c 0,34,35
 326 470 326 470 354 457 c 128,-1,36
 382 444 382 444 399 422 c 128,-1,37
 416 400 416 400 424.5 372 c 128,-1,38
 433 344 433 344 435 310 c 1,39,-1
 137 310 l 1,29,30
EndSplineSet
EndChar

StartChar: f
Encoding: 102 102 73
Width: 284
GlyphClass: 2
Flags: W
LayerCount: 2
Fore
SplineSet
268 461 m 1,0,-1
 268 536 l 1,1,-1
 178 536 l 1,2,-1
 178 602 l 2,3,4
 178 635 178 635 190.5 650 c 128,-1,5
 203 665 203 665 231 665 c 0,6,7
 245 665 245 665 268 663 c 1,8,-1
 268 743 l 1,9,-1
 265 743 l 2,10,11
 238 745 238 745 227 745 c 0,12,13
 159 745 159 745 123.5 716 c 128,-1,14
 88 687 88 687 88 628 c 2,15,-1
 88 536 l 1,16,-1
 14 536 l 1,17,-1
 14 461 l 1,18,-1
 88 461 l 1,19,-1
 88 0 l 1,20,-1
 178 0 l 1,21,-1
 178 461 l 1,22,-1
 268 461 l 1,0,-1
EndSplineSet
EndChar

StartChar: g
Encoding: 103 103 74
Width: 569
GlyphClass: 2
Flags: W
LayerCount: 2
Fore
SplineSet
134 269 m 0,0,1
 134 304 134 304 138 336 c 128,-1,2
 142 368 142 368 156.5 399 c 128,-1,3
 171 430 171 430 201 450 c 128,-1,4
 231 470 231 470 281 470 c 0,5,6
 327 470 327 470 356 448.5 c 128,-1,7
 385 427 385 427 400 392.5 c 128,-1,8
 415 358 415 358 420 320.5 c 128,-1,9
 425 283 425 283 425 243 c 0,10,11
 425 193 425 193 411 157 c 128,-1,12
 397 121 397 121 375 100.5 c 128,-1,13
 353 80 353 80 327.5 71 c 128,-1,14
 302 62 302 62 279 62 c 0,15,16
 208 62 208 62 171 119 c 128,-1,17
 134 176 134 176 134 269 c 0,0,1
511 536 m 1,18,-1
 426 536 l 1,19,-1
 426 460 l 1,20,-1
 424 460 l 1,21,-1
 423 461 l 1,22,23
 411 479 411 479 399.5 492 c 128,-1,24
 388 505 388 505 369.5 519.5 c 128,-1,25
 351 534 351 534 324.5 542.5 c 128,-1,26
 298 551 298 551 264 551 c 0,27,28
 161 551 161 551 101 475.5 c 128,-1,29
 41 400 41 400 41 284 c 0,30,31
 41 232 41 232 53.5 179.5 c 128,-1,32
 66 127 66 127 93 83 c 128,-1,33
 120 39 120 39 166 12 c 128,-1,34
 212 -15 212 -15 276 -15 c 0,35,36
 326 -15 326 -15 362.5 5.5 c 128,-1,37
 399 26 399 26 419 56 c 1,38,-1
 419 60 l 1,39,-1
 421 60 l 1,40,-1
 421 38 l 2,41,42
 421 0 421 0 417.5 -29 c 128,-1,43
 414 -58 414 -58 399.5 -86.5 c 128,-1,44
 385 -115 385 -115 353.5 -133 c 128,-1,45
 322 -151 322 -151 268 -151 c 0,46,47
 254 -151 254 -151 238 -148.5 c 128,-1,48
 222 -146 222 -146 203 -138.5 c 128,-1,49
 184 -131 184 -131 169 -113 c 128,-1,50
 154 -95 154 -95 147 -66 c 1,51,-1
 57 -66 l 1,52,53
 63 -116 63 -116 86 -148 c 128,-1,54
 109 -180 109 -180 139.5 -197 c 128,-1,55
 170 -214 170 -214 201 -219.5 c 128,-1,56
 232 -225 232 -225 262 -225 c 0,57,58
 349 -225 349 -225 401.5 -196.5 c 128,-1,59
 454 -168 454 -168 477 -125 c 128,-1,60
 500 -82 500 -82 505.5 -41.5 c 128,-1,61
 511 -1 511 -1 511 44 c 2,62,-1
 511 536 l 1,18,-1
EndSplineSet
EndChar

StartChar: h
Encoding: 104 104 75
Width: 569
GlyphClass: 2
Flags: W
LayerCount: 2
Fore
SplineSet
503 365 m 2,0,1
 503 419 503 419 486.5 456 c 128,-1,2
 470 493 470 493 442.5 514 c 128,-1,3
 415 535 415 535 382.5 543 c 128,-1,4
 350 551 350 551 315 551 c 0,5,6
 259 551 259 551 222.5 526 c 128,-1,7
 186 501 186 501 159 464 c 1,8,-1
 157 464 l 1,9,-1
 157 735 l 1,10,-1
 67 735 l 1,11,-1
 67 0 l 1,12,-1
 157 0 l 1,13,-1
 157 292 l 2,14,15
 157 341 157 341 169 375.5 c 128,-1,16
 181 410 181 410 202.5 431 c 128,-1,17
 224 452 224 452 250 461 c 128,-1,18
 276 470 276 470 306 470 c 0,19,20
 366 470 366 470 389.5 440 c 128,-1,21
 413 410 413 410 413 350 c 2,22,-1
 413 0 l 1,23,-1
 503 0 l 1,24,-1
 503 365 l 2,0,1
EndSplineSet
EndChar

StartChar: i
Encoding: 105 105 76
Width: 227
GlyphClass: 2
Flags: W
LayerCount: 2
Fore
SplineSet
159 536 m 1,0,-1
 69 536 l 1,1,-1
 69 0 l 1,2,-1
 159 0 l 1,3,-1
 159 536 l 1,0,-1
159 633 m 1,4,-1
 159 735 l 1,5,-1
 69 735 l 1,6,-1
 69 633 l 1,7,-1
 159 633 l 1,4,-1
EndSplineSet
EndChar

StartChar: j
Encoding: 106 106 77
Width: 227
GlyphClass: 2
Flags: W
LayerCount: 2
Fore
SplineSet
159 536 m 1,0,-1
 69 536 l 1,1,-1
 69 -69 l 2,2,3
 69 -113 69 -113 56.5 -123.5 c 128,-1,4
 44 -134 44 -134 2 -134 c 2,5,-1
 -16 -134 l 1,6,-1
 -16 -212 l 1,7,8
 4 -215 4 -215 22 -215 c 0,9,10
 69 -215 69 -215 97.5 -201 c 128,-1,11
 126 -187 126 -187 139 -166 c 128,-1,12
 152 -145 152 -145 155.5 -124 c 128,-1,13
 159 -103 159 -103 159 -79 c 2,14,-1
 159 536 l 1,0,-1
159 735 m 1,15,-1
 69 735 l 1,16,-1
 69 633 l 1,17,-1
 159 633 l 1,18,-1
 159 735 l 1,15,-1
EndSplineSet
EndChar

StartChar: k
Encoding: 107 107 78
Width: 512
GlyphClass: 2
Flags: W
LayerCount: 2
Fore
SplineSet
296 336 m 1,0,-1
 501 536 l 1,1,-1
 386 536 l 1,2,-1
 156 309 l 1,3,-1
 156 735 l 1,4,-1
 69 735 l 1,5,-1
 69 0 l 1,6,-1
 156 0 l 1,7,-1
 156 203 l 1,8,-1
 230 270 l 1,9,-1
 397 0 l 1,10,-1
 513 0 l 1,11,-1
 296 336 l 1,0,-1
EndSplineSet
EndChar

StartChar: l
Encoding: 108 108 79
Width: 227
GlyphClass: 2
Flags: W
LayerCount: 2
Fore
SplineSet
159 735 m 1,0,-1
 69 735 l 1,1,-1
 69 0 l 1,2,-1
 159 0 l 1,3,-1
 159 735 l 1,0,-1
EndSplineSet
EndChar

StartChar: m
Encoding: 109 109 80
Width: 852
GlyphClass: 2
Flags: W
LayerCount: 2
Fore
SplineSet
67 0 m 1,0,-1
 157 0 l 1,1,-1
 157 292 l 2,2,3
 157 343 157 343 170.5 378.5 c 128,-1,4
 184 414 184 414 206 434 c 128,-1,5
 228 454 228 454 252 462 c 128,-1,6
 276 470 276 470 298 470 c 0,7,8
 343 470 343 470 362.5 441 c 128,-1,9
 382 412 382 412 382 371 c 2,10,-1
 382 0 l 1,11,-1
 472 0 l 1,12,-1
 472 327 l 2,13,14
 472 383 472 383 508 426.5 c 128,-1,15
 544 470 544 470 598 470 c 256,16,17
 652 470 652 470 674.5 438 c 128,-1,18
 697 406 697 406 697 346 c 2,19,-1
 697 0 l 1,20,-1
 787 0 l 1,21,-1
 787 371 l 2,22,23
 787 424 787 424 771 460 c 128,-1,24
 755 496 755 496 728.5 516 c 128,-1,25
 702 536 702 536 674.5 543.5 c 128,-1,26
 647 551 647 551 622 551 c 0,27,28
 566 551 566 551 532.5 530.5 c 128,-1,29
 499 510 499 510 458 464 c 1,30,-1
 458 465 l 1,31,32
 450 480 450 480 440 493.5 c 128,-1,33
 430 507 430 507 414 520.5 c 128,-1,34
 398 534 398 534 373.5 542.5 c 128,-1,35
 349 551 349 551 315 551 c 256,36,37
 281 551 281 551 254 541 c 128,-1,38
 227 531 227 531 207.5 517.5 c 128,-1,39
 188 504 188 504 176.5 489.5 c 128,-1,40
 165 475 165 475 154 460 c 1,41,-1
 152 460 l 1,42,-1
 152 536 l 1,43,-1
 67 536 l 1,44,-1
 67 0 l 1,0,-1
EndSplineSet
EndChar

StartChar: n
Encoding: 110 110 81
Width: 569
GlyphClass: 2
Flags: W
LayerCount: 2
Fore
SplineSet
503 365 m 2,0,1
 503 419 503 419 486.5 456 c 128,-1,2
 470 493 470 493 442.5 514 c 128,-1,3
 415 535 415 535 382.5 543 c 128,-1,4
 350 551 350 551 315 551 c 0,5,6
 282 551 282 551 255.5 541 c 128,-1,7
 229 531 229 531 209 517 c 128,-1,8
 189 503 189 503 176.5 488.5 c 128,-1,9
 164 474 164 474 154 460 c 1,10,-1
 152 460 l 1,11,-1
 152 536 l 1,12,-1
 67 536 l 1,13,-1
 67 0 l 1,14,-1
 157 0 l 1,15,-1
 157 292 l 2,16,17
 157 343 157 343 170.5 378.5 c 128,-1,18
 184 414 184 414 206 434 c 128,-1,19
 228 454 228 454 252 462 c 128,-1,20
 276 470 276 470 298 470 c 0,21,22
 361 470 361 470 387 436 c 128,-1,23
 413 402 413 402 413 330 c 2,24,-1
 413 0 l 1,25,-1
 503 0 l 1,26,-1
 503 365 l 2,0,1
EndSplineSet
EndChar

StartChar: o
Encoding: 111 111 82
Width: 569
GlyphClass: 2
Flags: W
LayerCount: 2
Fore
SplineSet
36 268 m 256,0,1
 36 215 36 215 51.5 165 c 128,-1,2
 67 115 67 115 97.5 74 c 128,-1,3
 128 33 128 33 175.5 9.5 c 128,-1,4
 223 -14 223 -14 285 -14 c 0,5,6
 346 -14 346 -14 393.5 9.5 c 128,-1,7
 441 33 441 33 472 74 c 128,-1,8
 503 115 503 115 518.5 165 c 128,-1,9
 534 215 534 215 534 268 c 256,10,11
 534 321 534 321 518.5 372 c 128,-1,12
 503 423 503 423 472 463.5 c 128,-1,13
 441 504 441 504 393.5 527.5 c 128,-1,14
 346 551 346 551 285 551 c 256,15,16
 224 551 224 551 176 527.5 c 128,-1,17
 128 504 128 504 97.5 463 c 128,-1,18
 67 422 67 422 51.5 371.5 c 128,-1,19
 36 321 36 321 36 268 c 256,0,1
129 268 m 256,20,21
 129 299 129 299 136 334 c 128,-1,22
 143 369 143 369 160 400.5 c 128,-1,23
 177 432 177 432 208 452.5 c 128,-1,24
 239 473 239 473 285 473 c 256,25,26
 331 473 331 473 361.5 452.5 c 128,-1,27
 392 432 392 432 409.5 400.5 c 128,-1,28
 427 369 427 369 433.5 334 c 128,-1,29
 440 299 440 299 440 268 c 256,30,31
 440 237 440 237 433.5 202.5 c 128,-1,32
 427 168 427 168 409.5 136 c 128,-1,33
 392 104 392 104 361.5 83.5 c 128,-1,34
 331 63 331 63 285 63 c 256,35,36
 239 63 239 63 208 83.5 c 128,-1,37
 177 104 177 104 160 136 c 128,-1,38
 143 168 143 168 136 202.5 c 128,-1,39
 129 237 129 237 129 268 c 256,20,21
EndSplineSet
EndChar

StartChar: p
Encoding: 112 112 83
Width: 569
GlyphClass: 2
Flags: W
LayerCount: 2
Fore
SplineSet
145 243 m 0,0,1
 145 283 145 283 150.5 320 c 128,-1,2
 156 357 156 357 170.5 392 c 128,-1,3
 185 427 185 427 214.5 448.5 c 128,-1,4
 244 470 244 470 290 470 c 0,5,6
 339 470 339 470 369 450 c 128,-1,7
 399 430 399 430 413.5 399 c 128,-1,8
 428 368 428 368 432 336 c 128,-1,9
 436 304 436 304 436 269 c 0,10,11
 436 176 436 176 399 119 c 128,-1,12
 362 62 362 62 292 62 c 0,13,14
 268 62 268 62 243 71 c 128,-1,15
 218 80 218 80 195.5 101 c 128,-1,16
 173 122 173 122 159 157.5 c 128,-1,17
 145 193 145 193 145 243 c 0,0,1
59 -212 m 1,18,-1
 150 -212 l 1,19,-1
 150 56 l 1,20,-1
 152 56 l 1,21,22
 171 25 171 25 207.5 5 c 128,-1,23
 244 -15 244 -15 294 -15 c 0,24,25
 360 -15 360 -15 406 12 c 128,-1,26
 452 39 452 39 479 83 c 128,-1,27
 506 127 506 127 517.5 179 c 128,-1,28
 529 231 529 231 529 284 c 0,29,30
 529 401 529 401 470 476 c 128,-1,31
 411 551 411 551 306 551 c 0,32,33
 272 551 272 551 246 542.5 c 128,-1,34
 220 534 220 534 201 519.5 c 128,-1,35
 182 505 182 505 170.5 491 c 128,-1,36
 159 477 159 477 147 461 c 2,37,-1
 146 460 l 1,38,-1
 144 460 l 1,39,-1
 144 536 l 1,40,-1
 59 536 l 1,41,-1
 59 -212 l 1,18,-1
EndSplineSet
EndChar

StartChar: q
Encoding: 113 113 84
Width: 569
GlyphClass: 2
Flags: W
LayerCount: 2
Fore
SplineSet
506 536 m 1,0,-1
 421 536 l 1,1,-1
 421 460 l 1,2,-1
 419 460 l 1,3,-1
 418 461 l 1,4,5
 406 479 406 479 394.5 492 c 128,-1,6
 383 505 383 505 364.5 519.5 c 128,-1,7
 346 534 346 534 319.5 542.5 c 128,-1,8
 293 551 293 551 259 551 c 0,9,10
 156 551 156 551 96 475.5 c 128,-1,11
 36 400 36 400 36 284 c 0,12,13
 36 232 36 232 48 179.5 c 128,-1,14
 60 127 60 127 87.5 83 c 128,-1,15
 115 39 115 39 161 12 c 128,-1,16
 207 -15 207 -15 271 -15 c 0,17,18
 321 -15 321 -15 357.5 5.5 c 128,-1,19
 394 26 394 26 414 56 c 1,20,-1
 416 56 l 1,21,-1
 416 -212 l 1,22,-1
 506 -212 l 1,23,-1
 506 536 l 1,0,-1
420 243 m 0,24,25
 420 193 420 193 406 157 c 128,-1,26
 392 121 392 121 370 100.5 c 128,-1,27
 348 80 348 80 322.5 71 c 128,-1,28
 297 62 297 62 273 62 c 0,29,30
 202 62 202 62 165.5 119 c 128,-1,31
 129 176 129 176 129 269 c 0,32,33
 129 304 129 304 133 336 c 128,-1,34
 137 368 137 368 151.5 399 c 128,-1,35
 166 430 166 430 196 450 c 128,-1,36
 226 470 226 470 275 470 c 0,37,38
 321 470 321 470 350.5 448.5 c 128,-1,39
 380 427 380 427 395 392.5 c 128,-1,40
 410 358 410 358 415 320.5 c 128,-1,41
 420 283 420 283 420 243 c 0,24,25
EndSplineSet
EndChar

StartChar: r
Encoding: 114 114 85
Width: 340
GlyphClass: 2
Flags: W
LayerCount: 2
Fore
SplineSet
169 311 m 2,0,1
 169 371 169 371 207 413 c 128,-1,2
 245 455 245 455 306 455 c 2,3,-1
 340 455 l 1,4,-1
 340 548 l 1,5,6
 330 551 330 551 316 551 c 0,7,8
 268 551 268 551 231.5 524 c 128,-1,9
 195 497 195 497 166 446 c 1,10,-1
 164 446 l 1,11,-1
 164 536 l 1,12,-1
 79 536 l 1,13,-1
 79 0 l 1,14,-1
 169 0 l 1,15,-1
 169 311 l 2,0,1
EndSplineSet
EndChar

StartChar: s
Encoding: 115 115 86
Width: 512
GlyphClass: 2
Flags: W
LayerCount: 2
Fore
SplineSet
458 383 m 1,0,1
 458 400 458 400 451 426.5 c 128,-1,2
 444 453 444 453 423.5 481.5 c 128,-1,3
 403 510 403 510 361 530.5 c 128,-1,4
 319 551 319 551 253 551 c 0,5,6
 167 551 167 551 112 510 c 0,7,8
 83 487 83 487 66.5 455 c 128,-1,9
 50 423 50 423 50 380 c 0,10,11
 50 327 50 327 82.5 295.5 c 128,-1,12
 115 264 115 264 174 250 c 2,13,-1
 279 224 l 2,14,15
 339 209 339 209 362 193.5 c 128,-1,16
 385 178 385 178 385 147 c 0,17,18
 385 105 385 105 349.5 83.5 c 128,-1,19
 314 62 314 62 262 62 c 0,20,21
 218 62 218 62 189.5 72.5 c 128,-1,22
 161 83 161 83 146 100 c 128,-1,23
 131 117 131 117 126.5 134 c 128,-1,24
 122 151 122 151 120 172 c 1,25,-1
 33 172 l 1,26,27
 34 139 34 139 41.5 109.5 c 128,-1,28
 49 80 49 80 72 51 c 128,-1,29
 95 22 95 22 141.5 3.5 c 128,-1,30
 188 -15 188 -15 263 -15 c 0,31,32
 356 -15 356 -15 415.5 33 c 128,-1,33
 475 81 475 81 475 162 c 0,34,35
 475 217 475 217 441.5 250 c 128,-1,36
 408 283 408 283 325 303 c 2,37,-1
 234 326 l 2,38,39
 177 340 177 340 157 353.5 c 128,-1,40
 137 367 137 367 137 397 c 0,41,42
 137 421 137 421 149 436.5 c 128,-1,43
 161 452 161 452 178.5 460 c 128,-1,44
 196 468 196 468 213 470.5 c 128,-1,45
 230 473 230 473 244 473 c 0,46,47
 284 473 284 473 310 464.5 c 128,-1,48
 336 456 336 456 348.5 442 c 128,-1,49
 361 428 361 428 365.5 413.5 c 128,-1,50
 370 399 370 399 371 383 c 1,51,-1
 458 383 l 1,0,1
EndSplineSet
EndChar

StartChar: t
Encoding: 116 116 87
Width: 284
GlyphClass: 2
Flags: W
LayerCount: 2
Fore
SplineSet
263 461 m 1,0,-1
 263 536 l 1,1,-1
 177 536 l 1,2,-1
 177 685 l 1,3,-1
 87 685 l 1,4,-1
 87 536 l 1,5,-1
 14 536 l 1,6,-1
 14 461 l 1,7,-1
 87 461 l 1,8,-1
 87 108 l 2,9,10
 87 54 87 54 110.5 23.5 c 128,-1,11
 134 -7 134 -7 196 -7 c 0,12,13
 201 -7 201 -7 222 -4 c 0,14,15
 252 -1 252 -1 263 0 c 1,16,-1
 263 71 l 1,17,-1
 231 71 l 2,18,19
 208 71 208 71 192.5 78 c 128,-1,20
 177 85 177 85 177 113 c 2,21,-1
 177 461 l 1,22,-1
 263 461 l 1,0,-1
EndSplineSet
EndChar

StartChar: u
Encoding: 117 117 88
Width: 569
GlyphClass: 2
Flags: W
LayerCount: 2
Fore
SplineSet
501 0 m 1,0,-1
 501 536 l 1,1,-1
 411 536 l 1,2,-1
 411 241 l 2,3,4
 411 209 411 209 403 178 c 128,-1,5
 395 147 395 147 378 120.5 c 128,-1,6
 361 94 361 94 332.5 78 c 128,-1,7
 304 62 304 62 263 62 c 0,8,9
 215 62 215 62 187.5 90 c 128,-1,10
 160 118 160 118 160 180 c 2,11,-1
 160 536 l 1,12,-1
 70 536 l 1,13,-1
 70 151 l 2,14,15
 70 105 70 105 85 72.5 c 128,-1,16
 100 40 100 40 126 20.5 c 128,-1,17
 152 1 152 1 182 -7 c 128,-1,18
 212 -15 212 -15 244 -15 c 0,19,20
 306 -15 306 -15 345 8 c 128,-1,21
 384 31 384 31 414 80 c 1,22,-1
 416 78 l 1,23,-1
 416 0 l 1,24,-1
 501 0 l 1,0,-1
EndSplineSet
EndChar

StartChar: v
Encoding: 118 118 89
Width: 512
GlyphClass: 2
Flags: W
LayerCount: 2
Fore
SplineSet
254 99 m 1,0,-1
 252 99 l 1,1,-1
 113 536 l 1,2,-1
 8 536 l 1,3,-1
 204 0 l 1,4,-1
 300 0 l 1,5,-1
 504 536 l 1,6,-1
 406 536 l 1,7,-1
 254 99 l 1,0,-1
EndSplineSet
EndChar

StartChar: w
Encoding: 119 119 90
Width: 739
GlyphClass: 2
Flags: W
LayerCount: 2
Fore
SplineSet
367 415 m 1,0,-1
 369 415 l 1,1,-1
 477 0 l 1,2,-1
 570 0 l 1,3,-1
 726 536 l 1,4,-1
 636 536 l 1,5,-1
 527 115 l 1,6,-1
 525 115 l 1,7,-1
 421 536 l 1,8,-1
 321 536 l 1,9,-1
 217 115 l 1,10,-1
 215 115 l 1,11,-1
 113 536 l 1,12,-1
 14 536 l 1,13,-1
 169 0 l 1,14,-1
 262 0 l 1,15,-1
 367 415 l 1,0,-1
EndSplineSet
EndChar

StartChar: x
Encoding: 120 120 91
Width: 512
GlyphClass: 2
Flags: W
LayerCount: 2
Fore
SplineSet
313 275 m 1,0,-1
 495 536 l 1,1,-1
 384 536 l 1,2,-1
 260 347 l 1,3,-1
 136 536 l 1,4,-1
 20 536 l 1,5,-1
 200 275 l 1,6,-1
 11 0 l 1,7,-1
 125 0 l 1,8,-1
 254 202 l 1,9,-1
 387 0 l 1,10,-1
 502 0 l 1,11,-1
 313 275 l 1,0,-1
EndSplineSet
EndChar

StartChar: y
Encoding: 121 121 92
Width: 512
GlyphClass: 2
Flags: W
LayerCount: 2
Fore
SplineSet
258 99 m 1,0,-1
 256 99 l 1,1,-1
 114 536 l 1,2,-1
 11 536 l 1,3,-1
 210 -14 l 1,4,-1
 210 -14 l 1,5,6
 192 -62 192 -62 182 -84 c 128,-1,7
 172 -106 172 -106 163.5 -118 c 128,-1,8
 155 -130 155 -130 144 -134 c 128,-1,9
 133 -138 133 -138 115 -138 c 0,10,11
 86 -138 86 -138 60 -129 c 1,12,-1
 60 -211 l 1,13,14
 67 -213 67 -213 69 -213 c 0,15,16
 88 -219 88 -219 98 -219 c 0,17,18
 146 -219 146 -219 171 -213 c 128,-1,19
 196 -207 196 -207 214.5 -186 c 128,-1,20
 233 -165 233 -165 252 -124.5 c 128,-1,21
 271 -84 271 -84 308 10 c 0,22,23
 367 163 367 163 477 470 c 2,24,-1
 501 536 l 1,25,-1
 401 536 l 1,26,-1
 258 99 l 1,0,-1
EndSplineSet
EndChar

StartChar: z
Encoding: 122 122 93
Width: 512
GlyphClass: 2
Flags: W
LayerCount: 2
Fore
SplineSet
471 462 m 1,0,-1
 471 536 l 1,1,-1
 56 536 l 1,2,-1
 56 461 l 1,3,-1
 354 461 l 1,4,-1
 32 71 l 1,5,-1
 32 0 l 1,6,-1
 480 0 l 1,7,-1
 480 75 l 1,8,-1
 152 75 l 1,9,-1
 471 462 l 1,0,-1
EndSplineSet
EndChar

StartChar: braceleft
Encoding: 123 123 94
Width: 342
GlyphClass: 2
Flags: W
LayerCount: 2
Fore
SplineSet
43 240 m 1,0,1
 79 240 79 240 102.5 202 c 128,-1,2
 126 164 126 164 126 106 c 2,3,-1
 126 -69 l 2,4,5
 126 -129 126 -129 157 -165 c 128,-1,6
 188 -201 188 -201 230 -201 c 2,7,-1
 299 -201 l 1,8,-1
 299 -134 l 1,9,-1
 254 -134 l 2,10,11
 229 -134 229 -134 218 -111 c 128,-1,12
 207 -88 207 -88 207 -50 c 2,13,-1
 207 123 l 2,14,15
 205 160 205 160 194 187.5 c 128,-1,16
 183 215 183 215 169 232 c 128,-1,17
 155 249 155 249 141 257.5 c 128,-1,18
 127 266 127 266 117 269 c 1,19,-1
 117 271 l 1,20,21
 126 273 126 273 140.5 282.5 c 128,-1,22
 155 292 155 292 169 309 c 128,-1,23
 183 326 183 326 194 353 c 128,-1,24
 205 380 205 380 207 415 c 2,25,-1
 207 589 l 2,26,27
 207 627 207 627 217.5 650 c 128,-1,28
 228 673 228 673 254 673 c 2,29,-1
 299 673 l 1,30,-1
 299 739 l 1,31,-1
 230 739 l 2,32,33
 188 739 188 739 157 703.5 c 128,-1,34
 126 668 126 668 126 607 c 2,35,-1
 126 431 l 2,36,37
 126 375 126 375 102.5 338 c 128,-1,38
 79 301 79 301 43 301 c 1,39,-1
 43 240 l 1,0,1
EndSplineSet
EndChar

StartChar: bar
Encoding: 124 124 95
Width: 266
GlyphClass: 2
Flags: W
LayerCount: 2
Fore
SplineSet
96 -19 m 1,0,-1
 171 -19 l 1,1,-1
 171 755 l 1,2,-1
 96 755 l 1,3,-1
 96 -19 l 1,0,-1
EndSplineSet
EndChar

StartChar: braceright
Encoding: 125 125 96
Width: 342
GlyphClass: 2
Flags: W
LayerCount: 2
Fore
SplineSet
299 301 m 1,0,1
 263 301 263 301 239.5 338 c 128,-1,2
 216 375 216 375 216 431 c 2,3,-1
 216 607 l 2,4,5
 216 667 216 667 185 703 c 128,-1,6
 154 739 154 739 112 739 c 2,7,-1
 43 739 l 1,8,-1
 43 673 l 1,9,-1
 88 673 l 2,10,11
 114 673 114 673 124.5 650 c 128,-1,12
 135 627 135 627 135 589 c 2,13,-1
 135 415 l 2,14,15
 137 380 137 380 148 353.5 c 128,-1,16
 159 327 159 327 173.5 309.5 c 128,-1,17
 188 292 188 292 202 283 c 128,-1,18
 216 274 216 274 225 271 c 1,19,-1
 225 269 l 1,20,21
 215 266 215 266 201 257.5 c 128,-1,22
 187 249 187 249 173 232 c 128,-1,23
 159 215 159 215 148 187.5 c 128,-1,24
 137 160 137 160 135 123 c 2,25,-1
 135 -50 l 2,26,27
 135 -88 135 -88 124.5 -111 c 128,-1,28
 114 -134 114 -134 88 -134 c 2,29,-1
 43 -134 l 1,30,-1
 43 -201 l 1,31,-1
 112 -201 l 2,32,33
 154 -201 154 -201 185 -165 c 128,-1,34
 216 -129 216 -129 216 -69 c 2,35,-1
 216 106 l 2,36,37
 216 163 216 163 239.5 201.5 c 128,-1,38
 263 240 263 240 299 240 c 1,39,-1
 299 301 l 1,0,1
EndSplineSet
EndChar

StartChar: asciitilde
Encoding: 126 126 97
Width: 751
GlyphClass: 2
Flags: W
LayerCount: 2
Fore
SplineSet
674 357 m 1,0,1
 637 303 637 303 608.5 275.5 c 128,-1,2
 580 248 580 248 539 248 c 0,3,4
 502 248 502 248 382 302 c 0,5,6
 332 325 332 325 290 338 c 128,-1,7
 248 351 248 351 211 351 c 0,8,9
 141 351 141 351 95 315 c 128,-1,10
 49 279 49 279 18 220 c 1,11,-1
 74 134 l 1,12,13
 97 183 97 183 127.5 214 c 128,-1,14
 158 245 158 245 204 245 c 0,15,16
 252 245 252 245 293.5 230.5 c 128,-1,17
 335 216 335 216 380 190 c 0,18,19
 427 165 427 165 463 152.5 c 128,-1,20
 499 140 499 140 537 140 c 0,21,22
 595 140 595 140 643 175.5 c 128,-1,23
 691 211 691 211 729 271 c 1,24,-1
 674 357 l 1,0,1
EndSplineSet
EndChar

StartChar: fraction
Encoding: 167 167 98
Width: 569
GlyphClass: 2
Flags: W
LayerCount: 2
Fore
SplineSet
471 567 m 1,0,1
 471 621 471 621 454 658 c 128,-1,2
 437 695 437 695 409.5 716 c 128,-1,3
 382 737 382 737 349 746 c 128,-1,4
 316 755 316 755 283 755 c 0,5,6
 235 755 235 755 199.5 739 c 128,-1,7
 164 723 164 723 142 697.5 c 128,-1,8
 120 672 120 672 109 641.5 c 128,-1,9
 98 611 98 611 98 581 c 0,10,11
 98 552 98 552 109 530 c 128,-1,12
 120 508 120 508 146 478 c 1,13,14
 96 448 96 448 70 412.5 c 128,-1,15
 44 377 44 377 44 316 c 0,16,17
 44 285 44 285 59 250.5 c 128,-1,18
 74 216 74 216 111 191 c 2,19,-1
 326 48 l 2,20,21
 355 30 355 30 368.5 11 c 128,-1,22
 382 -8 382 -8 382 -33 c 0,23,24
 382 -60 382 -60 371 -76.5 c 128,-1,25
 360 -93 360 -93 344 -102 c 128,-1,26
 328 -111 328 -111 310 -114.5 c 128,-1,27
 292 -118 292 -118 274 -118 c 0,28,29
 241 -118 241 -118 221.5 -105.5 c 128,-1,30
 202 -93 202 -93 191.5 -75 c 128,-1,31
 181 -57 181 -57 178 -38.5 c 128,-1,32
 175 -20 175 -20 175 -3 c 1,33,-1
 85 -3 l 1,34,35
 85 -100 85 -100 140.5 -148 c 128,-1,36
 196 -196 196 -196 287 -196 c 0,37,38
 321 -196 321 -196 353.5 -184.5 c 128,-1,39
 386 -173 386 -173 413 -151.5 c 128,-1,40
 440 -130 440 -130 456 -99.5 c 128,-1,41
 472 -69 472 -69 472 -31 c 0,42,43
 472 5 472 5 458.5 31 c 128,-1,44
 445 57 445 57 419 86 c 1,45,46
 467 117 467 117 495.5 154 c 128,-1,47
 524 191 524 191 524 250 c 256,48,49
 524 308 524 308 495.5 345 c 128,-1,50
 467 382 467 382 413 414 c 2,51,-1
 263 502 l 2,52,53
 225 525 225 525 206.5 546 c 128,-1,54
 188 567 188 567 188 594 c 0,55,56
 188 636 188 636 217.5 656.5 c 128,-1,57
 247 677 247 677 283 677 c 0,58,59
 316 677 316 677 336.5 665.5 c 128,-1,60
 357 654 357 654 367 637 c 128,-1,61
 377 620 377 620 380 603.5 c 128,-1,62
 383 587 383 587 384 568 c 2,63,-1
 384 567 l 1,64,-1
 471 567 l 1,0,1
376 329 m 2,65,66
 405 312 405 312 422 287 c 128,-1,67
 439 262 439 262 439 230 c 0,68,69
 439 194 439 194 421.5 172.5 c 128,-1,70
 404 151 404 151 369 127 c 1,71,-1
 175 252 l 2,72,73
 159 262 159 262 144 283 c 128,-1,74
 129 304 129 304 129 339 c 0,75,76
 129 373 129 373 147.5 397.5 c 128,-1,77
 166 422 166 422 198 438 c 1,78,-1
 376 329 l 2,65,66
EndSplineSet
EndChar

StartChar: section
Encoding: 223 223 99
Width: 514
GlyphClass: 2
Flags: W
LayerCount: 2
Fore
SplineSet
-1 0 m 1,0,-1
 511 0 l 1,1,-1
 511 512 l 1,2,-1
 -1 512 l 1,3,-1
 -1 0 l 1,0,-1
9 10 m 1,4,-1
 9 502 l 1,5,-1
 501 502 l 1,6,-1
 501 10 l 1,7,-1
 9 10 l 1,4,-1
EndSplineSet
EndChar

StartChar: copyright
Encoding: 169 169 100
Width: 754
GlyphClass: 2
Flags: W
LayerCount: 2
Fore
SplineSet
379 -19 m 256,0,1
 458 -19 458 -19 528.5 9.5 c 128,-1,2
 599 38 599 38 654 90.5 c 128,-1,3
 709 143 709 143 739.5 215 c 128,-1,4
 770 287 770 287 770 369 c 256,5,6
 770 451 770 451 739.5 521.5 c 128,-1,7
 709 592 709 592 654 644.5 c 128,-1,8
 599 697 599 697 528.5 726 c 128,-1,9
 458 755 458 755 379 755 c 256,10,11
 300 755 300 755 228.5 726 c 128,-1,12
 157 697 157 697 102.5 645 c 128,-1,13
 48 593 48 593 17 522 c 128,-1,14
 -14 451 -14 451 -14 369 c 256,15,16
 -14 287 -14 287 16.5 215 c 128,-1,17
 47 143 47 143 102 90.5 c 128,-1,18
 157 38 157 38 228.5 9.5 c 128,-1,19
 300 -19 300 -19 379 -19 c 256,0,1
63 369 m 0,20,21
 63 437 63 437 87.5 495.5 c 128,-1,22
 112 554 112 554 155 598 c 128,-1,23
 198 642 198 642 255.5 666 c 128,-1,24
 313 690 313 690 379 690 c 0,25,26
 444 690 444 690 501 666 c 128,-1,27
 558 642 558 642 601 598 c 128,-1,28
 644 554 644 554 668 495 c 128,-1,29
 692 436 692 436 692 369 c 0,30,31
 692 300 692 300 668 240.5 c 128,-1,32
 644 181 644 181 601 137 c 128,-1,33
 558 93 558 93 500.5 69 c 128,-1,34
 443 45 443 45 379 45 c 0,35,36
 313 45 313 45 255.5 69 c 128,-1,37
 198 93 198 93 155 137 c 128,-1,38
 112 181 112 181 87.5 240.5 c 128,-1,39
 63 300 63 300 63 369 c 0,20,21
513 296 m 1,40,41
 506 253 506 253 473 226 c 128,-1,42
 440 199 440 199 392 199 c 0,43,44
 324 199 324 199 283 249 c 128,-1,45
 242 299 242 299 242 371 c 0,46,47
 242 445 242 445 280.5 492 c 128,-1,48
 319 539 319 539 389 539 c 0,49,50
 437 539 437 539 470.5 513.5 c 128,-1,51
 504 488 504 488 513 445 c 1,52,-1
 582 445 l 1,53,54
 572 521 572 521 518 563.5 c 128,-1,55
 464 606 464 606 388 606 c 0,56,57
 286 606 286 606 225 540 c 128,-1,58
 164 474 164 474 164 370 c 0,59,60
 164 320 164 320 180 276 c 128,-1,61
 196 232 196 232 226 199.5 c 128,-1,62
 256 167 256 167 298.5 149 c 128,-1,63
 341 131 341 131 392 131 c 0,64,65
 464 131 464 131 516 176 c 128,-1,66
 568 221 568 221 583 296 c 1,67,-1
 513 296 l 1,40,41
EndSplineSet
EndChar

StartChar: quotedblleft
Encoding: 8482 8482 101
Width: 340
GlyphClass: 2
Flags: W
LayerCount: 2
Fore
SplineSet
314 590 m 1,0,-1
 260 590 l 1,1,2
 260 607 260 607 261.5 623 c 128,-1,3
 263 639 263 639 268 654 c 128,-1,4
 273 669 273 669 284.5 680 c 128,-1,5
 296 691 296 691 314 694 c 1,6,-1
 314 742 l 1,7,8
 256 729 256 729 232 687.5 c 128,-1,9
 208 646 208 646 208 582 c 2,10,-1
 208 481 l 1,11,-1
 314 481 l 1,12,-1
 314 590 l 1,0,-1
145 590 m 1,13,-1
 91 590 l 1,14,15
 91 607 91 607 92.5 623 c 128,-1,16
 94 639 94 639 99 654 c 128,-1,17
 104 669 104 669 115.5 680 c 128,-1,18
 127 691 127 691 145 694 c 1,19,-1
 145 742 l 1,20,21
 87 729 87 729 63 687.5 c 128,-1,22
 39 646 39 646 39 582 c 2,23,-1
 39 481 l 1,24,-1
 145 481 l 1,25,-1
 145 590 l 1,13,-1
EndSplineSet
EndChar

StartChar: guillemotleft
Encoding: 180 180 102
Width: 284
GlyphClass: 2
Flags: W
LayerCount: 2
Fore
SplineSet
143 323 m 0,0,1
 117 323 117 323 98 304.5 c 128,-1,2
 79 286 79 286 79 258 c 0,3,4
 79 232 79 232 98 213.5 c 128,-1,5
 117 195 117 195 142 195 c 0,6,7
 170 195 170 195 188.5 214 c 128,-1,8
 207 233 207 233 207 258 c 0,9,10
 207 285 207 285 187.5 304 c 128,-1,11
 168 323 168 323 143 323 c 0,0,1
EndSplineSet
EndChar

StartChar: degree
Encoding: 8734 8734 103
Width: 409
GlyphClass: 2
Flags: W
LayerCount: 2
Fore
SplineSet
205 676 m 256,0,1
 245 676 245 676 275 643.5 c 128,-1,2
 305 611 305 611 305 570 c 256,3,4
 305 529 305 529 275 497 c 128,-1,5
 245 465 245 465 205 465 c 256,6,7
 165 465 165 465 134.5 497 c 128,-1,8
 104 529 104 529 104 570 c 256,9,10
 104 611 104 611 134.5 643.5 c 128,-1,11
 165 676 165 676 205 676 c 256,0,1
354 570 m 256,12,13
 354 633 354 633 311 676.5 c 128,-1,14
 268 720 268 720 205 720 c 256,15,16
 142 720 142 720 98.5 677 c 128,-1,17
 55 634 55 634 55 570 c 0,18,19
 55 507 55 507 98 464 c 128,-1,20
 141 421 141 421 205 421 c 0,21,22
 268 421 268 421 311 464 c 128,-1,23
 354 507 354 507 354 570 c 256,12,13
EndSplineSet
EndChar

StartChar: twosuperior
Encoding: 8804 8804 104
Width: 340
GlyphClass: 2
Flags: W
LayerCount: 2
Fore
SplineSet
81 565 m 1,0,-1
 81 566 l 2,1,2
 82 582 82 582 85 596 c 128,-1,3
 88 610 88 610 97 625 c 128,-1,4
 106 640 106 640 124.5 650 c 128,-1,5
 143 660 143 660 173 660 c 0,6,7
 218 660 218 660 238.5 641.5 c 128,-1,8
 259 623 259 623 259 593 c 0,9,10
 259 556 259 556 241.5 538 c 128,-1,11
 224 520 224 520 179 497 c 2,12,-1
 172 493 l 1,13,-1
 111 459 l 2,14,15
 63 432 63 432 35 391.5 c 128,-1,16
 7 351 7 351 4 288 c 1,17,-1
 331 288 l 1,18,-1
 331 350 l 1,19,-1
 81 350 l 1,20,21
 93 370 93 370 111.5 387 c 128,-1,22
 130 404 130 404 163 422 c 2,23,-1
 209 445 l 2,24,25
 270 476 270 476 300.5 507 c 128,-1,26
 331 538 331 538 331 591 c 0,27,28
 331 649 331 649 288.5 684.5 c 128,-1,29
 246 720 246 720 181 720 c 0,30,31
 156 720 156 720 130 715 c 128,-1,32
 104 710 104 710 78.5 694 c 128,-1,33
 53 678 53 678 36 646 c 128,-1,34
 19 614 19 614 19 565 c 1,35,-1
 81 565 l 1,0,-1
EndSplineSet
EndChar

StartChar: threesuperior
Encoding: 8805 8805 105
Width: 340
GlyphClass: 2
Flags: W
LayerCount: 2
Fore
SplineSet
5 420 m 1,0,1
 9 377 9 377 24.5 345 c 128,-1,2
 40 313 40 313 76 296 c 0,3,4
 115 277 115 277 162 276 c 0,5,6
 248 276 248 276 290.5 316.5 c 128,-1,7
 333 357 333 357 333 416 c 0,8,9
 333 457 333 457 312.5 481 c 128,-1,10
 292 505 292 505 255 515 c 1,11,-1
 255 517 l 1,12,13
 279 523 279 523 297 545.5 c 128,-1,14
 315 568 315 568 315 606 c 0,15,16
 315 656 315 656 276.5 688 c 128,-1,17
 238 720 238 720 171 720 c 0,18,19
 127 720 127 720 97 707.5 c 128,-1,20
 67 695 67 695 49 674 c 128,-1,21
 31 653 31 653 23.5 629 c 128,-1,22
 16 605 16 605 16 579 c 1,23,-1
 79 579 l 1,24,25
 81 614 81 614 98.5 637 c 128,-1,26
 116 660 116 660 162 660 c 0,27,28
 209 660 209 660 226.5 643 c 128,-1,29
 244 626 244 626 244 603 c 0,30,31
 244 565 244 565 221 550 c 128,-1,32
 198 535 198 535 160 535 c 2,33,-1
 132 535 l 1,34,-1
 132 482 l 1,35,-1
 156 482 l 2,36,37
 176 482 176 482 192.5 480.5 c 128,-1,38
 209 479 209 479 225 472 c 128,-1,39
 241 465 241 465 251 449.5 c 128,-1,40
 261 434 261 434 261 409 c 0,41,42
 261 372 261 372 235 354 c 128,-1,43
 209 336 209 336 163 336 c 0,44,45
 135 336 135 336 117.5 343.5 c 128,-1,46
 100 351 100 351 91.5 363.5 c 128,-1,47
 83 376 83 376 79.5 389.5 c 128,-1,48
 76 403 76 403 75 420 c 1,49,-1
 5 420 l 1,0,1
EndSplineSet
EndChar

StartChar: periodcentered
Encoding: 165 165 106
Width: 514
GlyphClass: 2
Flags: W
LayerCount: 2
Fore
SplineSet
-1 0 m 1,0,-1
 511 0 l 1,1,-1
 511 512 l 1,2,-1
 -1 512 l 1,3,-1
 -1 0 l 1,0,-1
9 10 m 1,4,-1
 9 502 l 1,5,-1
 501 502 l 1,6,-1
 501 10 l 1,7,-1
 9 10 l 1,4,-1
EndSplineSet
EndChar

StartChar: paragraph
Encoding: 8706 8706 107
Width: 549
GlyphClass: 2
Flags: W
LayerCount: 2
Fore
SplineSet
238 -177 m 1,0,-1
 312 -177 l 1,1,-1
 312 674 l 1,2,-1
 434 674 l 1,3,-1
 434 -177 l 1,4,-1
 509 -177 l 1,5,-1
 509 735 l 1,6,-1
 255 735 l 2,7,8
 143 735 143 735 80.5 687 c 128,-1,9
 18 639 18 639 18 541 c 0,10,11
 18 501 18 501 34 466.5 c 128,-1,12
 50 432 50 432 79.5 406.5 c 128,-1,13
 109 381 109 381 149 366.5 c 128,-1,14
 189 352 189 352 238 352 c 1,15,-1
 238 -177 l 1,0,-1
EndSplineSet
EndChar

StartChar: bullet
Encoding: 8721 8721 108
Width: 358
GlyphClass: 2
Flags: W
LayerCount: 2
Fore
SplineSet
341 368 m 256,0,1
 341 401 341 401 328.5 430.5 c 128,-1,2
 316 460 316 460 293.5 482.5 c 128,-1,3
 271 505 271 505 241.5 517 c 128,-1,4
 212 529 212 529 179 529 c 256,5,6
 146 529 146 529 116.5 517 c 128,-1,7
 87 505 87 505 65 482.5 c 128,-1,8
 43 460 43 460 30.5 430 c 128,-1,9
 18 400 18 400 18 368 c 0,10,11
 18 335 18 335 30.5 305 c 128,-1,12
 43 275 43 275 66 254 c 0,13,14
 113 207 113 207 179 207 c 0,15,16
 212 207 212 207 241.5 219 c 128,-1,17
 271 231 271 231 293.5 253.5 c 128,-1,18
 316 276 316 276 328.5 305.5 c 128,-1,19
 341 335 341 335 341 368 c 256,0,1
EndSplineSet
EndChar

StartChar: quotesinglbase
Encoding: 8719 8719 109
Width: 227
GlyphClass: 2
Flags: W
LayerCount: 2
Fore
SplineSet
54 0 m 1,0,-1
 109 0 l 1,1,2
 109 -17 109 -17 107 -33 c 128,-1,3
 105 -49 105 -49 100 -64 c 128,-1,4
 95 -79 95 -79 84 -90 c 128,-1,5
 73 -101 73 -101 54 -104 c 1,6,-1
 54 -153 l 1,7,8
 112 -140 112 -140 136.5 -98 c 128,-1,9
 161 -56 161 -56 161 8 c 2,10,-1
 161 109 l 1,11,-1
 54 109 l 1,12,-1
 54 0 l 1,0,-1
EndSplineSet
EndChar

StartChar: quotedblbase
Encoding: 960 960 110
Width: 340
GlyphClass: 2
Flags: W
LayerCount: 2
Fore
SplineSet
27 0 m 1,0,-1
 81 0 l 1,1,2
 81 -17 81 -17 79.5 -33 c 128,-1,3
 78 -49 78 -49 73 -64 c 128,-1,4
 68 -79 68 -79 56.5 -90 c 128,-1,5
 45 -101 45 -101 27 -104 c 1,6,-1
 27 -153 l 1,7,8
 85 -140 85 -140 109 -98 c 128,-1,9
 133 -56 133 -56 133 8 c 2,10,-1
 133 109 l 1,11,-1
 27 109 l 1,12,-1
 27 0 l 1,0,-1
196 0 m 1,13,-1
 250 0 l 1,14,15
 250 -17 250 -17 248.5 -33 c 128,-1,16
 247 -49 247 -49 242 -64 c 128,-1,17
 237 -79 237 -79 225.5 -90 c 128,-1,18
 214 -101 214 -101 196 -104 c 1,19,-1
 196 -153 l 1,20,21
 254 -140 254 -140 278 -98 c 128,-1,22
 302 -56 302 -56 302 8 c 2,23,-1
 302 109 l 1,24,-1
 196 109 l 1,25,-1
 196 0 l 1,13,-1
EndSplineSet
EndChar

StartChar: quotedblright
Encoding: 8747 8747 111
Width: 340
GlyphClass: 2
Flags: W
LayerCount: 2
Fore
SplineSet
27 627 m 1,0,-1
 81 627 l 1,1,2
 81 610 81 610 79.5 594 c 128,-1,3
 78 578 78 578 73 563 c 128,-1,4
 68 548 68 548 56.5 536.5 c 128,-1,5
 45 525 45 525 27 522 c 1,6,-1
 27 474 l 1,7,8
 85 487 85 487 109 528.5 c 128,-1,9
 133 570 133 570 133 635 c 2,10,-1
 133 735 l 1,11,-1
 27 735 l 1,12,-1
 27 627 l 1,0,-1
196 627 m 1,13,-1
 250 627 l 1,14,15
 250 610 250 610 248.5 594 c 128,-1,16
 247 578 247 578 242 563 c 128,-1,17
 237 548 237 548 225.5 536.5 c 128,-1,18
 214 525 214 525 196 522 c 1,19,-1
 196 474 l 1,20,21
 254 487 254 487 278 528.5 c 128,-1,22
 302 570 302 570 302 635 c 2,23,-1
 302 735 l 1,24,-1
 196 735 l 1,25,-1
 196 627 l 1,13,-1
EndSplineSet
EndChar

StartChar: guillemotright
Encoding: 170 170 112
Width: 340
GlyphClass: 2
Flags: W
LayerCount: 2
Fore
SplineSet
314 590 m 1,0,-1
 260 590 l 1,1,2
 260 607 260 607 261.5 623 c 128,-1,3
 263 639 263 639 268 654 c 128,-1,4
 273 669 273 669 284.5 680 c 128,-1,5
 296 691 296 691 314 694 c 1,6,-1
 314 742 l 1,7,8
 256 729 256 729 232 687.5 c 128,-1,9
 208 646 208 646 208 582 c 2,10,-1
 208 481 l 1,11,-1
 314 481 l 1,12,-1
 314 590 l 1,0,-1
145 590 m 1,13,-1
 91 590 l 1,14,15
 91 607 91 607 92.5 623 c 128,-1,16
 94 639 94 639 99 654 c 128,-1,17
 104 669 104 669 115.5 680 c 128,-1,18
 127 691 127 691 145 694 c 1,19,-1
 145 742 l 1,20,21
 87 729 87 729 63 687.5 c 128,-1,22
 39 646 39 646 39 582 c 2,23,-1
 39 481 l 1,24,-1
 145 481 l 1,25,-1
 145 590 l 1,13,-1
EndSplineSet
EndChar

StartChar: ellipsis
Encoding: 186 186 113
Width: 340
GlyphClass: 2
Flags: W
LayerCount: 2
Fore
SplineSet
27 627 m 1,0,-1
 81 627 l 1,1,2
 81 610 81 610 79.5 594 c 128,-1,3
 78 578 78 578 73 563 c 128,-1,4
 68 548 68 548 56.5 536.5 c 128,-1,5
 45 525 45 525 27 522 c 1,6,-1
 27 474 l 1,7,8
 85 487 85 487 109 528.5 c 128,-1,9
 133 570 133 570 133 635 c 2,10,-1
 133 735 l 1,11,-1
 27 735 l 1,12,-1
 27 627 l 1,0,-1
196 627 m 1,13,-1
 250 627 l 1,14,15
 250 610 250 610 248.5 594 c 128,-1,16
 247 578 247 578 242 563 c 128,-1,17
 237 548 237 548 225.5 536.5 c 128,-1,18
 214 525 214 525 196 522 c 1,19,-1
 196 474 l 1,20,21
 254 487 254 487 278 528.5 c 128,-1,22
 302 570 302 570 302 635 c 2,23,-1
 302 735 l 1,24,-1
 196 735 l 1,25,-1
 196 627 l 1,13,-1
EndSplineSet
EndChar

StartChar: perthousand
Encoding: 937 937 114
AltUni2: 002126.ffffffff.0
Width: 1024
GlyphClass: 2
Flags: W
LayerCount: 2
Fore
SplineSet
7 552 m 256,0,1
 7 519 7 519 19.5 490 c 128,-1,2
 32 461 32 461 54 439 c 128,-1,3
 76 417 76 417 105 404.5 c 128,-1,4
 134 392 134 392 167 392 c 256,5,6
 200 392 200 392 229 404.5 c 128,-1,7
 258 417 258 417 280 439 c 128,-1,8
 302 461 302 461 314.5 490.5 c 128,-1,9
 327 520 327 520 327 552 c 0,10,11
 327 585 327 585 314.5 614 c 128,-1,12
 302 643 302 643 280 665 c 128,-1,13
 258 687 258 687 229 699.5 c 128,-1,14
 200 712 200 712 167 712 c 0,15,16
 135 712 135 712 105.5 699.5 c 128,-1,17
 76 687 76 687 54 665 c 128,-1,18
 32 643 32 643 19.5 614 c 128,-1,19
 7 585 7 585 7 552 c 256,0,1
72 552 m 256,20,21
 72 591 72 591 99.5 619 c 128,-1,22
 127 647 127 647 167 647 c 0,23,24
 206 647 206 647 234 619.5 c 128,-1,25
 262 592 262 592 262 552 c 0,26,27
 262 513 262 513 234 485 c 128,-1,28
 206 457 206 457 167 457 c 0,29,30
 127 457 127 457 99.5 485 c 128,-1,31
 72 513 72 513 72 552 c 256,20,21
327 153 m 256,32,33
 327 120 327 120 339 90.5 c 128,-1,34
 351 61 351 61 373 39 c 128,-1,35
 395 17 395 17 424.5 5 c 128,-1,36
 454 -7 454 -7 486 -7 c 0,37,38
 519 -7 519 -7 548.5 5 c 128,-1,39
 578 17 578 17 600 39 c 128,-1,40
 622 61 622 61 634 91 c 128,-1,41
 646 121 646 121 646 153 c 0,42,43
 646 186 646 186 634 215 c 128,-1,44
 622 244 622 244 600 266 c 128,-1,45
 578 288 578 288 548.5 300 c 128,-1,46
 519 312 519 312 486 312 c 0,47,48
 454 312 454 312 424.5 300 c 128,-1,49
 395 288 395 288 373 266 c 128,-1,50
 351 244 351 244 339 215 c 128,-1,51
 327 186 327 186 327 153 c 256,32,33
391 153 m 256,52,53
 391 192 391 192 418.5 220 c 128,-1,54
 446 248 446 248 486 248 c 0,55,56
 525 248 525 248 553.5 220.5 c 128,-1,57
 582 193 582 193 582 153 c 0,58,59
 582 114 582 114 553.5 85.5 c 128,-1,60
 525 57 525 57 486 57 c 0,61,62
 446 57 446 57 418.5 85.5 c 128,-1,63
 391 114 391 114 391 153 c 256,52,53
698 153 m 256,64,65
 698 120 698 120 710.5 90.5 c 128,-1,66
 723 61 723 61 745 39 c 128,-1,67
 767 17 767 17 796 5 c 128,-1,68
 825 -7 825 -7 858 -7 c 256,69,70
 891 -7 891 -7 920 5 c 128,-1,71
 949 17 949 17 971 39 c 128,-1,72
 993 61 993 61 1005.5 91 c 128,-1,73
 1018 121 1018 121 1018 153 c 0,74,75
 1018 186 1018 186 1005.5 215 c 128,-1,76
 993 244 993 244 971 266 c 128,-1,77
 949 288 949 288 920 300 c 128,-1,78
 891 312 891 312 858 312 c 0,79,80
 826 312 826 312 796.5 300 c 128,-1,81
 767 288 767 288 745 266 c 128,-1,82
 723 244 723 244 710.5 215 c 128,-1,83
 698 186 698 186 698 153 c 256,64,65
763 153 m 256,84,85
 763 192 763 192 790.5 220 c 128,-1,86
 818 248 818 248 858 248 c 0,87,88
 897 248 897 248 925 220.5 c 128,-1,89
 953 193 953 193 953 153 c 0,90,91
 953 114 953 114 925 85.5 c 128,-1,92
 897 57 897 57 858 57 c 0,93,94
 818 57 818 57 790.5 85.5 c 128,-1,95
 763 114 763 114 763 153 c 256,84,85
557 720 m 1,96,-1
 501 720 l 1,97,-1
 94 -19 l 1,98,-1
 151 -19 l 1,99,-1
 557 720 l 1,96,-1
EndSplineSet
EndChar

StartChar: RoiBlanc
Encoding: 191 191 115
Width: 514
GlyphClass: 2
Flags: W
LayerCount: 2
Fore
SplineSet
-1 0 m 1,0,-1
 511 0 l 1,1,-1
 511 512 l 1,2,-1
 -1 512 l 1,3,-1
 -1 0 l 1,0,-1
9 10 m 1,4,-1
 9 502 l 1,5,-1
 501 502 l 1,6,-1
 501 10 l 1,7,-1
 9 10 l 1,4,-1
EndSplineSet
EndChar

StartChar: DameBlanche
Encoding: 161 161 116
Width: 514
GlyphClass: 2
Flags: W
LayerCount: 2
Fore
SplineSet
-1 0 m 1,0,-1
 511 0 l 1,1,-1
 511 512 l 1,2,-1
 -1 512 l 1,3,-1
 -1 0 l 1,0,-1
9 10 m 1,4,-1
 9 502 l 1,5,-1
 501 502 l 1,6,-1
 501 10 l 1,7,-1
 9 10 l 1,4,-1
EndSplineSet
EndChar

StartChar: TourBlanche
Encoding: 172 172 117
Width: 514
GlyphClass: 2
Flags: W
LayerCount: 2
Fore
SplineSet
-1 0 m 1,0,-1
 511 0 l 1,1,-1
 511 512 l 1,2,-1
 -1 512 l 1,3,-1
 -1 0 l 1,0,-1
9 10 m 1,4,-1
 9 502 l 1,5,-1
 501 502 l 1,6,-1
 501 10 l 1,7,-1
 9 10 l 1,4,-1
EndSplineSet
EndChar

StartChar: FouBlanc
Encoding: 8730 8730 118
Width: 944
GlyphClass: 2
Flags: W
LayerCount: 2
Fore
SplineSet
486 55 m 1,0,1
 524 17 524 17 578.5 3.5 c 128,-1,2
 633 -10 633 -10 715 -17 c 0,3,4
 773 -22 773 -22 801 -29.5 c 128,-1,5
 829 -37 829 -37 835 -56 c 1,6,7
 859 -46 859 -46 872 -31 c 128,-1,8
 885 -16 885 -16 902 13 c 0,9,10
 918 41 918 41 930 55 c 1,11,12
 902 107 902 107 876.5 124.5 c 128,-1,13
 851 142 851 142 816 142 c 0,14,15
 806 142 806 142 782 141 c 0,16,17
 751 138 751 138 736 138 c 0,18,19
 706 138 706 138 673.5 144.5 c 128,-1,20
 641 151 641 151 604 165 c 1,21,22
 657 171 657 171 679 186 c 128,-1,23
 701 201 701 201 701 222 c 0,24,25
 701 237 701 237 687 272 c 256,26,27
 673 307 673 307 673 324 c 0,28,29
 673 332 673 332 676 339 c 0,30,31
 718 381 718 381 737 421.5 c 128,-1,32
 756 462 756 462 756 501 c 0,33,34
 756 549 756 549 730.5 591.5 c 128,-1,35
 705 634 705 634 668.5 665 c 128,-1,36
 632 696 632 696 598 715 c 128,-1,37
 564 734 564 734 552 736 c 1,38,39
 582 772 582 772 582 813 c 0,40,41
 582 849 582 849 557 873 c 128,-1,42
 532 897 532 897 486 897 c 256,43,44
 440 897 440 897 415.5 873 c 128,-1,45
 391 849 391 849 391 813 c 0,46,47
 391 772 391 772 421 736 c 1,48,49
 409 734 409 734 375 715 c 128,-1,50
 341 696 341 696 304.5 665.5 c 128,-1,51
 268 635 268 635 242.5 592 c 128,-1,52
 217 549 217 549 217 501 c 0,53,54
 217 462 217 462 236 421.5 c 128,-1,55
 255 381 255 381 297 339 c 0,56,57
 300 332 300 332 300 324 c 0,58,59
 300 308 300 308 286 272 c 0,60,61
 273 237 273 237 272 222 c 0,62,63
 272 200 272 200 293 185.5 c 128,-1,64
 314 171 314 171 369 165 c 1,65,66
 332 151 332 151 299 144.5 c 128,-1,67
 266 138 266 138 237 138 c 0,68,69
 222 138 222 138 190 141 c 0,70,71
 166 142 166 142 157 142 c 0,72,73
 122 142 122 142 96.5 125 c 128,-1,74
 71 108 71 108 43 55 c 1,75,76
 54 41 54 41 71 13 c 0,77,78
 88 -16 88 -16 102 -31 c 128,-1,79
 116 -46 116 -46 138 -56 c 1,80,81
 143 -37 143 -37 171 -30 c 128,-1,82
 199 -23 199 -23 258 -17 c 0,83,84
 340 -10 340 -10 380 0 c 0,85,86
 413 8 413 8 439.5 21.5 c 128,-1,87
 466 35 466 35 486 55 c 1,0,1
486 141 m 1,88,89
 468 115 468 115 436 97 c 128,-1,90
 404 79 404 79 366.5 68 c 128,-1,91
 329 57 329 57 290.5 53 c 128,-1,92
 252 49 252 49 219 49 c 0,93,94
 192 49 192 49 175 51.5 c 128,-1,95
 158 54 158 54 158 58 c 2,96,97
 158 58 158 58 158 59 c 2,98,99
 158 59 158 59 159 60 c 0,100,101
 159 64 159 64 169 66 c 128,-1,102
 179 68 179 68 207 70 c 0,103,104
 247 72 247 72 279 75.5 c 128,-1,105
 311 79 311 79 349 89.5 c 128,-1,106
 387 100 387 100 423.5 122.5 c 128,-1,107
 460 145 460 145 486 181 c 1,108,109
 513 145 513 145 549.5 122.5 c 128,-1,110
 586 100 586 100 624 89.5 c 128,-1,111
 662 79 662 79 694 75.5 c 128,-1,112
 726 72 726 72 767 70 c 0,113,114
 792 69 792 69 803 67 c 128,-1,115
 814 65 814 65 814 60 c 2,116,117
 814 60 814 60 815 59 c 2,118,119
 815 59 815 59 815 58 c 0,120,121
 815 54 815 54 798 51.5 c 128,-1,122
 781 49 781 49 754 49 c 0,123,124
 721 49 721 49 682.5 53.5 c 128,-1,125
 644 58 644 58 606 68.5 c 128,-1,126
 568 79 568 79 536 97 c 128,-1,127
 504 115 504 115 486 141 c 1,88,89
486 455 m 1,128,-1
 512 455 l 1,129,-1
 512 517 l 1,130,-1
 558 517 l 1,131,-1
 558 569 l 1,132,-1
 512 569 l 1,133,-1
 512 629 l 1,134,-1
 486 629 l 1,135,-1
 461 629 l 1,136,-1
 461 569 l 1,137,-1
 415 569 l 1,138,-1
 415 517 l 1,139,-1
 461 517 l 1,140,-1
 461 455 l 1,141,-1
 486 455 l 1,128,-1
486 398 m 0,142,143
 445 396 445 396 421 396 c 0,144,145
 384 396 384 396 362 401.5 c 128,-1,146
 340 407 340 407 327 419 c 128,-1,147
 314 431 314 431 308.5 452 c 128,-1,148
 303 473 303 473 300 510 c 0,149,150
 298 516 298 516 298 522 c 0,151,152
 298 546 298 546 319.5 576 c 128,-1,153
 341 606 341 606 373.5 634 c 128,-1,154
 406 662 406 662 437.5 680 c 128,-1,155
 469 698 469 698 486 700 c 0,156,157
 503 698 503 698 535 680 c 128,-1,158
 567 662 567 662 599.5 634 c 128,-1,159
 632 606 632 606 653.5 576 c 128,-1,160
 675 546 675 546 675 522 c 0,161,162
 675 516 675 516 673 510 c 0,163,164
 671 474 671 474 664.5 452.5 c 128,-1,165
 658 431 658 431 645.5 419 c 128,-1,166
 633 407 633 407 611 401.5 c 128,-1,167
 589 396 589 396 552 396 c 0,168,169
 527 396 527 396 486 398 c 0,142,143
486 257 m 0,170,171
 526 257 526 257 547.5 252 c 128,-1,172
 569 247 569 247 569 231 c 128,-1,173
 569 215 569 215 550 210.5 c 128,-1,174
 531 206 531 206 486 206 c 0,175,176
 445 206 445 206 423.5 211 c 128,-1,177
 402 216 402 216 402 231 c 0,178,179
 402 247 402 247 420.5 252 c 128,-1,180
 439 257 439 257 486 257 c 0,170,171
486 350 m 1,181,-1
 497 350 l 2,182,183
 563 347 563 347 593 341 c 128,-1,184
 623 335 623 335 623 315 c 0,185,186
 623 300 623 300 593.5 296 c 128,-1,187
 564 292 564 292 486 292 c 256,188,189
 408 292 408 292 379 296 c 128,-1,190
 350 300 350 300 350 315 c 0,191,192
 350 333 350 333 382.5 339.5 c 128,-1,193
 415 346 415 346 484 350 c 1,194,-1
 486 350 l 1,181,-1
486 841 m 256,195,196
 500 841 500 841 510.5 831 c 128,-1,197
 521 821 521 821 521 808 c 256,198,199
 521 795 521 795 511 784.5 c 128,-1,200
 501 774 501 774 486 774 c 0,201,202
 472 774 472 774 461.5 784.5 c 128,-1,203
 451 795 451 795 451 808 c 256,204,205
 451 821 451 821 461.5 831 c 128,-1,206
 472 841 472 841 486 841 c 256,195,196
EndSplineSet
EndChar

StartChar: CavaBlanc
Encoding: 402 402 119
Width: 873
GlyphClass: 2
Flags: W
LayerCount: 2
Fore
SplineSet
837 -3 m 1,0,1
 842 56 842 56 842 113 c 0,2,3
 842 261 842 261 807 373.5 c 128,-1,4
 772 486 772 486 718 557.5 c 128,-1,5
 664 629 664 629 605.5 663.5 c 128,-1,6
 547 698 547 698 501 698 c 0,7,8
 488 698 488 698 477 695 c 1,9,10
 462 747 462 747 448.5 768.5 c 128,-1,11
 435 790 435 790 401 807 c 0,12,13
 394 807 394 807 376.5 790.5 c 128,-1,14
 359 774 359 774 340 741 c 1,15,16
 340 743 340 743 325.5 751 c 128,-1,17
 311 759 311 759 288 767.5 c 128,-1,18
 265 776 265 776 238.5 781.5 c 128,-1,19
 212 787 212 787 187 787 c 1,20,-1
 187 786 l 1,21,22
 192 756 192 756 194 740 c 128,-1,23
 196 724 196 724 196 711 c 0,24,25
 196 696 196 696 194 678 c 0,26,27
 181 632 181 632 161 587 c 128,-1,28
 141 542 141 542 106 472 c 0,29,30
 69 397 69 397 50 351 c 128,-1,31
 31 305 31 305 24 262 c 1,32,33
 36 237 36 237 47.5 221.5 c 128,-1,34
 59 206 59 206 73 197 c 128,-1,35
 87 188 87 188 102.5 182.5 c 128,-1,36
 118 177 118 177 144 169 c 0,37,38
 187 157 187 157 218 145 c 1,39,40
 229 146 229 146 237.5 156 c 128,-1,41
 246 166 246 166 258 189 c 0,42,43
 285 235 285 235 318 270.5 c 128,-1,44
 351 306 351 306 417 334 c 1,45,46
 413 294 413 294 396.5 265.5 c 128,-1,47
 380 237 380 237 348 198 c 0,48,49
 309 149 309 149 287.5 107.5 c 128,-1,50
 266 66 266 66 262 -1 c 1,51,-1
 528 -2 l 1,52,-1
 837 -3 l 1,0,1
237 556 m 0,53,54
 236 556 236 556 233 556 c 0,55,56
 231 555 231 555 230 555 c 0,57,58
 217 555 217 555 217 567 c 0,59,60
 217 576 217 576 226 586 c 1,61,62
 278 592 278 592 310 616.5 c 128,-1,63
 342 641 342 641 370 676 c 0,64,65
 388 700 388 700 394 699 c 0,66,67
 399 697 399 697 402.5 690 c 128,-1,68
 406 683 406 683 410 666 c 0,69,70
 416 641 416 641 423 627 c 128,-1,71
 430 613 430 613 443 613 c 0,72,73
 444 613 444 613 446 613 c 0,74,75
 448 612 448 612 449 612 c 0,76,77
 455 612 455 612 465 622 c 0,78,79
 473 629 473 629 479.5 633 c 128,-1,80
 486 637 486 637 497 637 c 0,81,82
 506 637 506 637 517 633 c 1,83,84
 536 633 536 633 578.5 601.5 c 128,-1,85
 621 570 621 570 666 508.5 c 128,-1,86
 711 447 711 447 741.5 355 c 128,-1,87
 772 263 772 263 772 146 c 0,88,89
 772 102 772 102 767 58 c 1,90,-1
 350 58 l 1,91,92
 359 85 359 85 371 107 c 128,-1,93
 383 129 383 129 402 160 c 0,94,95
 426 196 426 196 441.5 224 c 128,-1,96
 457 252 457 252 470.5 293.5 c 128,-1,97
 484 335 484 335 492.5 392 c 128,-1,98
 501 449 501 449 501 524 c 1,99,100
 497 528 497 528 493 528 c 0,101,102
 482 528 482 528 467.5 511 c 128,-1,103
 453 494 453 494 427 456 c 0,104,105
 410 429 410 429 397.5 412 c 128,-1,106
 385 395 385 395 373 383 c 0,107,108
 360 369 360 369 326 352 c 0,109,110
 294 338 294 338 273.5 321 c 128,-1,111
 253 304 253 304 234 269 c 1,112,113
 226 275 226 275 215 275 c 256,114,115
 204 275 204 275 191.5 270.5 c 128,-1,116
 179 266 179 266 161 257 c 0,117,118
 138 246 138 246 132 246 c 0,119,120
 125 246 125 246 125 254 c 0,121,122
 125 255 125 255 126 258 c 0,123,124
 126 261 126 261 126 262 c 0,125,126
 174 289 174 289 174 318 c 128,-1,127
 174 347 174 347 129 362 c 1,128,129
 140 376 140 376 160 420 c 0,130,131
 174 450 174 450 183.5 465 c 128,-1,132
 193 480 193 480 202 484 c 0,133,134
 205 486 205 486 208 486 c 0,135,136
 213 486 213 486 225 482 c 0,137,138
 242 476 242 476 253 476 c 0,139,140
 267 476 267 476 279.5 486 c 128,-1,141
 292 496 292 496 303 518 c 0,142,143
 309 535 309 535 309 550 c 0,144,145
 309 562 309 562 305 574 c 1,146,147
 293 580 293 580 282 581 c 0,148,149
 272 581 272 581 264 575.5 c 128,-1,150
 256 570 256 570 249 562 c 0,151,152
 242 555 242 555 240 555 c 256,153,154
 238 555 238 555 237 556 c 0,53,54
EndSplineSet
EndChar

StartChar: PionBlanc
Encoding: 8776 8776 120
Width: 656
GlyphClass: 2
Flags: W
LayerCount: 2
Fore
SplineSet
632 4 m 1,0,1
 634 37 634 37 634 62 c 0,2,3
 634 112 634 112 626 155 c 128,-1,4
 618 198 618 198 598.5 236.5 c 128,-1,5
 579 275 579 275 542.5 309 c 128,-1,6
 506 343 506 343 450 371 c 1,7,8
 485 383 485 383 506 417.5 c 128,-1,9
 527 452 527 452 527 493 c 256,10,11
 527 534 527 534 503.5 569 c 128,-1,12
 480 604 480 604 433 624 c 1,13,14
 457 665 457 665 457 701 c 0,15,16
 457 749 457 749 419 778.5 c 128,-1,17
 381 808 381 808 339 808 c 256,18,19
 297 808 297 808 259 779 c 128,-1,20
 221 750 221 750 221 701 c 0,21,22
 221 664 221 664 245 624 c 1,23,24
 198 605 198 605 174.5 569.5 c 128,-1,25
 151 534 151 534 151 493 c 256,26,27
 151 452 151 452 172.5 417.5 c 128,-1,28
 194 383 194 383 228 371 c 1,29,30
 173 344 173 344 136.5 310 c 128,-1,31
 100 276 100 276 80 238.5 c 128,-1,32
 60 201 60 201 52.5 158.5 c 128,-1,33
 45 116 45 116 45 67 c 0,34,35
 45 40 45 40 47 4 c 1,36,-1
 632 4 l 1,0,1
548 77 m 1,37,-1
 124 77 l 1,38,39
 122 97 122 97 122 116 c 0,40,41
 122 154 122 154 132 184 c 128,-1,42
 142 214 142 214 159.5 235.5 c 128,-1,43
 177 257 177 257 195.5 271.5 c 128,-1,44
 214 286 214 286 242 304 c 0,45,46
 276 327 276 327 291.5 341.5 c 128,-1,47
 307 356 307 356 308 378 c 0,48,49
 308 391 308 391 300 400 c 128,-1,50
 292 409 292 409 274 419 c 0,51,52
 251 433 251 433 239 447 c 128,-1,53
 227 461 227 461 227 487 c 0,54,55
 228 519 228 519 241.5 535.5 c 128,-1,56
 255 552 255 552 281 568 c 0,57,58
 299 579 299 579 308 589 c 128,-1,59
 317 599 317 599 318 615 c 0,60,61
 318 628 318 628 314 638 c 128,-1,62
 310 648 310 648 303 658 c 0,63,64
 294 673 294 673 294 683 c 0,65,66
 294 689 294 689 296 695 c 0,67,68
 296 697 296 697 296 699 c 2,69,70
 296 699 296 699 295 703 c 0,71,72
 295 721 295 721 308.5 731.5 c 128,-1,73
 322 742 322 742 336 742 c 256,74,75
 350 742 350 742 363.5 732.5 c 128,-1,76
 377 723 377 723 377 703 c 1,77,-1
 376 699 l 2,78,79
 376 697 376 697 376 695 c 0,80,81
 378 688 378 688 378 682 c 0,82,83
 378 673 378 673 369 658 c 0,84,85
 362 647 362 647 358 638.5 c 128,-1,86
 354 630 354 630 353 615 c 0,87,88
 354 599 354 599 363 590 c 128,-1,89
 372 581 372 581 391 568 c 0,90,91
 417 552 417 552 430 535.5 c 128,-1,92
 443 519 443 519 444 487 c 0,93,94
 444 460 444 460 432 446.5 c 128,-1,95
 420 433 420 433 397 419 c 0,96,97
 380 409 380 409 372 400 c 128,-1,98
 364 391 364 391 364 378 c 0,99,100
 366 356 366 356 381.5 341.5 c 128,-1,101
 397 327 397 327 430 304 c 0,102,103
 457 287 457 287 476.5 272 c 128,-1,104
 496 257 496 257 512.5 235.5 c 128,-1,105
 529 214 529 214 540 184.5 c 128,-1,106
 551 155 551 155 551 116 c 0,107,108
 551 97 551 97 548 77 c 1,37,-1
EndSplineSet
EndChar

StartChar: RoiNoir
Encoding: 8710 8710 121
Width: 879
GlyphClass: 2
Flags: W
LayerCount: 2
Fore
SplineSet
106 474 m 0,0,1
 106 451 106 451 119.5 424.5 c 128,-1,2
 133 398 133 398 153 373.5 c 128,-1,3
 173 349 173 349 194.5 331 c 128,-1,4
 216 313 216 313 230 305 c 0,5,6
 235 304 235 304 243 303 c 0,7,8
 262 299 262 299 273 299 c 0,9,10
 275 299 275 299 283 299 c 0,11,12
 293 300 293 300 300 300 c 0,13,14
 308 301 308 301 317 301 c 0,15,16
 345 302 345 302 357.5 308 c 128,-1,17
 370 314 370 314 370 336 c 0,18,19
 369 392 369 392 351.5 433.5 c 128,-1,20
 334 475 334 475 308.5 501 c 128,-1,21
 283 527 283 527 254 540 c 128,-1,22
 225 553 225 553 200 553 c 0,23,24
 157 553 157 553 131.5 530.5 c 128,-1,25
 106 508 106 508 106 474 c 0,0,1
720 91 m 1,26,27
 720 141 720 141 727 180 c 128,-1,28
 734 219 734 219 746 247 c 128,-1,29
 758 275 758 275 770.5 296 c 128,-1,30
 783 317 783 317 803 342 c 0,31,32
 831 379 831 379 843.5 405.5 c 128,-1,33
 856 432 856 432 856 471 c 0,34,35
 856 508 856 508 841.5 538 c 128,-1,36
 827 568 827 568 802.5 590 c 128,-1,37
 778 612 778 612 747.5 624 c 128,-1,38
 717 636 717 636 686 636 c 0,39,40
 638 635 638 635 606 619 c 128,-1,41
 574 603 574 603 552 583 c 1,42,43
 551 594 551 594 550 613 c 0,44,45
 549 650 549 650 540 670 c 0,46,47
 532 684 532 684 517 700 c 128,-1,48
 502 716 502 716 475 734 c 1,49,-1
 475 766 l 1,50,-1
 530 800 l 1,51,-1
 530 849 l 1,52,-1
 481 849 l 1,53,-1
 463 901 l 1,54,-1
 442 901 l 1,55,-1
 418 901 l 1,56,-1
 400 849 l 1,57,-1
 350 849 l 1,58,-1
 350 800 l 1,59,-1
 406 766 l 1,60,-1
 406 734 l 1,61,62
 357 699 357 699 344.5 674.5 c 128,-1,63
 332 650 332 650 332 612 c 0,64,65
 331 592 331 592 330 583 c 1,66,-1
 330 583 l 1,67,68
 305 605 305 605 274 620 c 128,-1,69
 243 635 243 635 195 636 c 0,70,71
 164 636 164 636 133.5 624 c 128,-1,72
 103 612 103 612 78 590 c 128,-1,73
 53 568 53 568 39 537.5 c 128,-1,74
 25 507 25 507 25 471 c 0,75,76
 25 432 25 432 37.5 405.5 c 128,-1,77
 50 379 50 379 78 343 c 0,78,79
 98 315 98 315 110.5 295.5 c 128,-1,80
 123 276 123 276 135 247.5 c 128,-1,81
 147 219 147 219 154.5 179.5 c 128,-1,82
 162 140 162 140 162 89 c 1,83,84
 166 42 166 42 233.5 19.5 c 128,-1,85
 301 -3 301 -3 440 -3 c 256,86,87
 579 -3 579 -3 647.5 19.5 c 128,-1,88
 716 42 716 42 720 91 c 1,26,27
441 161 m 256,89,90
 445 161 445 161 456 161 c 0,91,92
 467 162 467 162 474 162 c 0,93,94
 501 162 501 162 530 159.5 c 128,-1,95
 559 157 559 157 584 152.5 c 128,-1,96
 609 148 609 148 625.5 142.5 c 128,-1,97
 642 137 642 137 642 130 c 0,98,99
 642 127 642 127 639 125 c 2,100,101
 639 125 639 125 640 122 c 0,102,103
 640 120 640 120 640 119 c 0,104,105
 640 107 640 107 609 106 c 0,106,107
 593 106 593 106 546 112 c 0,108,109
 476 119 476 119 440 119 c 256,110,111
 404 119 404 119 335 112 c 0,112,113
 288 107 288 107 271 106 c 0,114,115
 240 106 240 106 241 119 c 0,116,117
 241 120 241 120 242 122 c 2,118,119
 242 122 242 122 242 125 c 0,120,121
 239 128 239 128 239 130 c 0,122,123
 239 137 239 137 254.5 142.5 c 128,-1,124
 270 148 270 148 297 153 c 128,-1,125
 324 158 324 158 352.5 160 c 128,-1,126
 381 162 381 162 408 162 c 0,127,128
 415 162 415 162 427 161 c 0,129,130
 437 161 437 161 441 161 c 256,89,90
772 474 m 0,131,132
 772 508 772 508 747 530.5 c 128,-1,133
 722 553 722 553 679 553 c 0,134,135
 653 553 653 553 624.5 540 c 128,-1,136
 596 527 596 527 570.5 501 c 128,-1,137
 545 475 545 475 527.5 433.5 c 128,-1,138
 510 392 510 392 509 336 c 0,139,140
 509 314 509 314 521.5 308 c 128,-1,141
 534 302 534 302 561 301 c 0,142,143
 570 301 570 301 579 300 c 0,144,145
 586 300 586 300 596 299 c 0,146,147
 603 299 603 299 605 299 c 0,148,149
 616 299 616 299 636 303 c 0,150,151
 643 304 643 304 648 305 c 0,152,153
 662 312 662 312 684 330.5 c 128,-1,154
 706 349 706 349 725.5 373.5 c 128,-1,155
 745 398 745 398 758.5 424.5 c 128,-1,156
 772 451 772 451 772 474 c 0,131,132
476 340 m 0,157,158
 476 400 476 400 497.5 448 c 128,-1,159
 519 496 519 496 552 526.5 c 128,-1,160
 585 557 585 557 619.5 572.5 c 128,-1,161
 654 588 654 588 681 588 c 0,162,163
 735 588 735 588 769 558.5 c 128,-1,164
 803 529 803 529 803 473 c 0,165,166
 803 451 803 451 789 422 c 128,-1,167
 775 393 775 393 754.5 364.5 c 128,-1,168
 734 336 734 336 714.5 313.5 c 128,-1,169
 695 291 695 291 685 283 c 0,170,171
 672 271 672 271 660 268 c 128,-1,172
 648 265 648 265 616 265 c 0,173,174
 556 265 556 265 439 286 c 1,175,176
 322 266 322 266 262 265 c 0,177,178
 230 265 230 265 219 267.5 c 128,-1,179
 208 270 208 270 194 283 c 0,180,181
 184 291 184 291 164 313.5 c 128,-1,182
 144 336 144 336 123.5 364.5 c 128,-1,183
 103 393 103 393 89.5 422.5 c 128,-1,184
 76 452 76 452 76 473 c 0,185,186
 76 529 76 529 109.5 558.5 c 128,-1,187
 143 588 143 588 198 588 c 0,188,189
 225 588 225 588 259.5 572.5 c 128,-1,190
 294 557 294 557 326.5 526.5 c 128,-1,191
 359 496 359 496 380.5 448 c 128,-1,192
 402 400 402 400 402 340 c 0,193,194
 403 326 403 326 413.5 321 c 128,-1,195
 424 316 424 316 441 316 c 0,196,197
 455 316 455 316 465.5 322.5 c 128,-1,198
 476 329 476 329 476 340 c 0,157,158
EndSplineSet
EndChar

StartChar: DameNoire
Encoding: 171 171 122
Width: 569
GlyphClass: 2
Flags: W
LayerCount: 2
Fore
SplineSet
260 201 m 1,0,-1
 153 284 l 1,1,-1
 260 367 l 1,2,-1
 260 457 l 1,3,-1
 99 331 l 1,4,-1
 99 237 l 1,5,-1
 260 111 l 1,6,-1
 260 201 l 1,0,-1
470 201 m 1,7,-1
 362 284 l 1,8,-1
 470 367 l 1,9,-1
 470 457 l 1,10,-1
 309 331 l 1,11,-1
 309 237 l 1,12,-1
 470 111 l 1,13,-1
 470 201 l 1,7,-1
EndSplineSet
EndChar

StartChar: TourNoire
Encoding: 187 187 123
Width: 569
GlyphClass: 2
Flags: W
LayerCount: 2
Fore
SplineSet
260 237 m 1,0,-1
 260 331 l 1,1,-1
 99 457 l 1,2,-1
 99 367 l 1,3,-1
 207 284 l 1,4,-1
 99 201 l 1,5,-1
 99 111 l 1,6,-1
 260 237 l 1,0,-1
470 237 m 1,7,-1
 470 331 l 1,8,-1
 309 457 l 1,9,-1
 309 367 l 1,10,-1
 417 284 l 1,11,-1
 309 201 l 1,12,-1
 309 111 l 1,13,-1
 470 237 l 1,7,-1
EndSplineSet
EndChar

StartChar: FouNoir
Encoding: 8230 8230 124
Width: 971
GlyphClass: 2
Flags: W
LayerCount: 2
Fore
SplineSet
508 841 m 256,0,1
 522 841 522 841 532.5 831 c 128,-1,2
 543 821 543 821 543 808 c 256,3,4
 543 795 543 795 532.5 784.5 c 128,-1,5
 522 774 522 774 508 774 c 256,6,7
 494 774 494 774 483 784.5 c 128,-1,8
 472 795 472 795 472 808 c 256,9,10
 472 821 472 821 483 831 c 128,-1,11
 494 841 494 841 508 841 c 256,0,1
508 455 m 1,12,-1
 482 455 l 1,13,-1
 482 517 l 1,14,-1
 436 517 l 1,15,-1
 436 569 l 1,16,-1
 482 569 l 1,17,-1
 482 629 l 1,18,-1
 508 629 l 1,19,-1
 534 629 l 1,20,-1
 534 569 l 1,21,-1
 580 569 l 1,22,-1
 580 517 l 1,23,-1
 534 517 l 1,24,-1
 534 455 l 1,25,-1
 508 455 l 1,12,-1
508 55 m 1,26,27
 546 17 546 17 600 3.5 c 128,-1,28
 654 -10 654 -10 736 -17 c 0,29,30
 794 -22 794 -22 822.5 -29.5 c 128,-1,31
 851 -37 851 -37 856 -56 c 1,32,33
 880 -46 880 -46 893 -31 c 128,-1,34
 906 -16 906 -16 924 13 c 0,35,36
 940 41 940 41 951 55 c 1,37,38
 923 107 923 107 898 124.5 c 128,-1,39
 873 142 873 142 839 142 c 0,40,41
 828 142 828 142 805 140 c 0,42,43
 775 138 775 138 758 138 c 0,44,45
 727 138 727 138 695 144.5 c 128,-1,46
 663 151 663 151 626 165 c 1,47,48
 679 171 679 171 700.5 186 c 128,-1,49
 722 201 722 201 722 222 c 0,50,51
 722 236 722 236 708 274 c 0,52,53
 695 312 695 312 694 326 c 0,54,55
 694 334 694 334 697 339 c 0,56,57
 739 381 739 381 758 421.5 c 128,-1,58
 777 462 777 462 777 501 c 0,59,60
 777 549 777 549 751 591.5 c 128,-1,61
 725 634 725 634 688.5 665 c 128,-1,62
 652 696 652 696 619 715 c 128,-1,63
 586 734 586 734 573 736 c 1,64,65
 603 772 603 772 603 813 c 0,66,67
 603 849 603 849 578.5 873 c 128,-1,68
 554 897 554 897 508 897 c 256,69,70
 462 897 462 897 437.5 873 c 128,-1,71
 413 849 413 849 413 813 c 0,72,73
 413 772 413 772 442 736 c 1,74,75
 430 734 430 734 397 715 c 128,-1,76
 364 696 364 696 327 665 c 128,-1,77
 290 634 290 634 264.5 591.5 c 128,-1,78
 239 549 239 549 239 501 c 0,79,80
 239 462 239 462 257.5 421.5 c 128,-1,81
 276 381 276 381 318 339 c 0,82,83
 321 331 321 331 322 322 c 0,84,85
 322 306 322 306 307 270 c 0,86,87
 294 237 294 237 294 222 c 0,88,89
 294 200 294 200 315.5 185.5 c 128,-1,90
 337 171 337 171 390 165 c 1,91,92
 353 151 353 151 321 144.5 c 128,-1,93
 289 138 289 138 258 138 c 0,94,95
 241 138 241 138 211 140 c 0,96,97
 188 142 188 142 177 142 c 0,98,99
 143 142 143 142 117.5 124 c 128,-1,100
 92 106 92 106 65 55 c 1,101,102
 76 41 76 41 92 13 c 0,103,104
 109 -16 109 -16 123 -31 c 128,-1,105
 137 -46 137 -46 160 -56 c 1,106,107
 165 -37 165 -37 192.5 -30 c 128,-1,108
 220 -23 220 -23 280 -17 c 0,109,110
 362 -10 362 -10 401 0 c 0,111,112
 434 8 434 8 461 21.5 c 128,-1,113
 488 35 488 35 508 55 c 1,26,27
441 386 m 2,114,-1
 574 386 l 2,115,116
 610 386 610 386 627.5 382 c 128,-1,117
 645 378 645 378 645 365 c 0,118,119
 645 351 645 351 617 346.5 c 128,-1,120
 589 342 589 342 508 342 c 256,121,122
 427 342 427 342 399 346 c 128,-1,123
 371 350 371 350 371 365 c 0,124,125
 371 378 371 378 388 382 c 128,-1,126
 405 386 405 386 441 386 c 2,114,-1
441 300 m 2,127,-1
 574 300 l 2,128,129
 610 300 610 300 627.5 296 c 128,-1,130
 645 292 645 292 645 279 c 0,131,132
 645 265 645 265 617 260.5 c 128,-1,133
 589 256 589 256 508 256 c 256,134,135
 427 256 427 256 399 260 c 128,-1,136
 371 264 371 264 371 279 c 0,137,138
 371 292 371 292 388 296 c 128,-1,139
 405 300 405 300 441 300 c 2,127,-1
EndSplineSet
EndChar

StartChar: CavaNoir
Encoding: 160 160 125
Width: 514
GlyphClass: 2
Flags: W
LayerCount: 2
Fore
SplineSet
-1 0 m 1,0,-1
 511 0 l 1,1,-1
 511 512 l 1,2,-1
 -1 512 l 1,3,-1
 -1 0 l 1,0,-1
9 10 m 1,4,-1
 9 502 l 1,5,-1
 501 502 l 1,6,-1
 501 10 l 1,7,-1
 9 10 l 1,4,-1
EndSplineSet
EndChar

StartChar: Agrave
Encoding: 192 192 126
Width: 875
GlyphClass: 2
Flags: W
LayerCount: 2
Fore
SplineSet
436 655 m 0,0,1
 454 653 454 653 469 634.5 c 128,-1,2
 484 616 484 616 484 585 c 1,3,4
 468 526 468 526 455.5 495.5 c 128,-1,5
 443 465 443 465 436 455 c 1,6,7
 428 469 428 469 416 498 c 128,-1,8
 404 527 404 527 388 585 c 1,9,10
 388 617 388 617 403 635 c 128,-1,11
 418 653 418 653 436 655 c 0,0,1
436 50 m 256,12,13
 358 50 358 50 304 56.5 c 128,-1,14
 250 63 250 63 250 75 c 0,15,16
 250 92 250 92 299 99 c 128,-1,17
 348 106 348 106 436 110 c 1,18,19
 524 107 524 107 573.5 99.5 c 128,-1,20
 623 92 623 92 623 75 c 0,21,22
 623 64 623 64 568.5 57 c 128,-1,23
 514 50 514 50 436 50 c 256,12,13
79 458 m 1,24,25
 80 490 80 490 89.5 509.5 c 128,-1,26
 99 529 99 529 115 539.5 c 128,-1,27
 131 550 131 550 150.5 553.5 c 128,-1,28
 170 557 170 557 195 558 c 0,29,30
 211 556 211 556 242.5 545 c 128,-1,31
 274 534 274 534 309 508.5 c 128,-1,32
 344 483 344 483 368.5 439.5 c 128,-1,33
 393 396 393 396 393 335 c 0,34,35
 393 319 393 319 349.5 313.5 c 128,-1,36
 306 308 306 308 207 308 c 0,37,38
 206 308 206 308 204 308 c 256,39,40
 202 308 l 2,41,42
 175 308 175 308 141.5 344.5 c 128,-1,43
 108 381 108 381 79 458 c 1,24,25
795 470 m 0,44,45
 795 448 795 448 780 420 c 128,-1,46
 765 392 765 392 743 365 c 128,-1,47
 721 338 721 338 699.5 320.5 c 128,-1,48
 678 303 678 303 667 303 c 0,49,50
 558 307 558 307 519.5 312.5 c 128,-1,51
 481 318 481 318 481 335 c 0,52,53
 481 395 481 395 505.5 439 c 128,-1,54
 530 483 530 483 565.5 508.5 c 128,-1,55
 601 534 601 534 632.5 545 c 128,-1,56
 664 556 664 556 681 558 c 0,57,58
 706 557 706 557 725 553.5 c 128,-1,59
 744 550 744 550 760 540.5 c 128,-1,60
 776 531 776 531 785.5 514.5 c 128,-1,61
 795 498 795 498 795 470 c 0,44,45
716 88 m 1,62,63
 716 138 716 138 723 177 c 128,-1,64
 730 216 730 216 742 244 c 128,-1,65
 754 272 754 272 766.5 293 c 128,-1,66
 779 314 779 314 799 339 c 0,67,68
 827 376 827 376 839.5 402.5 c 128,-1,69
 852 429 852 429 852 468 c 0,70,71
 852 505 852 505 837.5 535 c 128,-1,72
 823 565 823 565 798.5 587 c 128,-1,73
 774 609 774 609 743.5 621 c 128,-1,74
 713 633 713 633 682 633 c 0,75,76
 634 632 634 632 602 616 c 128,-1,77
 570 600 570 600 548 580 c 1,78,79
 547 591 547 591 546 610 c 0,80,81
 545 647 545 647 536 667 c 0,82,83
 528 681 528 681 513 697 c 128,-1,84
 498 713 498 713 471 731 c 1,85,-1
 471 763 l 1,86,-1
 526 797 l 1,87,-1
 526 846 l 1,88,-1
 477 846 l 1,89,-1
 459 898 l 1,90,-1
 438 898 l 1,91,-1
 414 898 l 1,92,-1
 396 846 l 1,93,-1
 346 846 l 1,94,-1
 346 797 l 1,95,-1
 401 763 l 1,96,-1
 401 731 l 1,97,98
 352 696 352 696 340 671.5 c 128,-1,99
 328 647 328 647 328 609 c 0,100,101
 327 589 327 589 326 580 c 1,102,-1
 326 580 l 1,103,104
 301 602 301 602 270 617 c 128,-1,105
 239 632 239 632 190 633 c 0,106,107
 159 633 159 633 129 621 c 128,-1,108
 99 609 99 609 74 587 c 128,-1,109
 49 565 49 565 34.5 534.5 c 128,-1,110
 20 504 20 504 20 468 c 0,111,112
 20 429 20 429 33 402.5 c 128,-1,113
 46 376 46 376 74 340 c 0,114,115
 94 312 94 312 106.5 292.5 c 128,-1,116
 119 273 119 273 131 244.5 c 128,-1,117
 143 216 143 216 150.5 176.5 c 128,-1,118
 158 137 158 137 158 86 c 1,119,120
 162 39 162 39 229.5 16.5 c 128,-1,121
 297 -6 297 -6 436 -6 c 256,122,123
 575 -6 575 -6 643.5 16.5 c 128,-1,124
 712 39 712 39 716 88 c 1,62,63
435 162 m 0,125,126
 388 162 388 162 322 156 c 0,127,128
 281 153 281 153 265 153 c 1,129,130
 248 147 248 147 239 146 c 0,131,132
 225 146 225 146 224 163 c 0,133,134
 224 166 224 166 225 173 c 0,135,136
 225 180 225 180 225 184 c 0,137,138
 225 190 225 190 224 208 c 0,139,140
 223 218 223 218 223 221 c 0,141,142
 223 234 223 234 230 241 c 128,-1,143
 237 248 237 248 255 252 c 128,-1,144
 273 256 273 256 304.5 258.5 c 128,-1,145
 336 261 336 261 419 266 c 0,146,147
 427 266 427 266 438 267 c 0,148,149
 449 266 449 266 458 266 c 0,150,151
 533 261 533 261 568.5 258.5 c 128,-1,152
 604 256 604 256 622.5 252 c 128,-1,153
 641 248 641 248 647.5 241 c 128,-1,154
 654 234 654 234 654 221 c 0,155,156
 654 218 654 218 653 208 c 0,157,158
 652 191 652 191 652 184 c 256,159,160
 652 178 652 178 652 173 c 2,161,-1
 653 165 l 2,162,163
 653 147 653 147 639 146 c 0,164,165
 629 146 629 146 611 153 c 1,166,167
 594 153 594 153 556 156 c 0,168,169
 485 162 485 162 435 162 c 0,125,126
EndSplineSet
EndChar

StartChar: agrave
Encoding: 8225 8225 127
Width: 569
GlyphClass: 2
Flags: W
LayerCount: 2
Fore
SplineSet
262 607 m 1,0,-1
 331 607 l 1,1,-1
 240 752 l 1,2,-1
 129 752 l 1,3,-1
 262 607 l 1,0,-1
146 373 m 1,4,5
 149 393 149 393 155 409.5 c 128,-1,6
 161 426 161 426 173.5 441.5 c 128,-1,7
 186 457 186 457 209.5 466.5 c 128,-1,8
 233 476 233 476 269 476 c 0,9,10
 395 476 395 476 395 389 c 0,11,12
 395 353 395 353 382.5 340.5 c 128,-1,13
 370 328 370 328 348 326 c 2,14,-1
 200 307 l 2,15,16
 148 301 148 301 114.5 281 c 128,-1,17
 81 261 81 261 64 235.5 c 128,-1,18
 47 210 47 210 42 186 c 128,-1,19
 37 162 37 162 37 139 c 0,20,21
 37 70 37 70 84 27.5 c 128,-1,22
 131 -15 131 -15 205 -15 c 0,23,24
 275 -15 275 -15 319.5 9.5 c 128,-1,25
 364 34 364 34 398 72 c 1,26,27
 401 34 401 34 420 12 c 128,-1,28
 439 -10 439 -10 494 -10 c 0,29,30
 509 -10 509 -10 531 -3 c 0,31,32
 538 -1 538 -1 543 0 c 1,33,-1
 543 66 l 1,34,35
 523 62 523 62 513 61 c 0,36,37
 483 61 483 61 483 93 c 2,38,-1
 483 401 l 2,39,40
 483 449 483 449 460 480 c 128,-1,41
 437 511 437 511 404 526 c 128,-1,42
 371 541 371 541 339.5 546 c 128,-1,43
 308 551 308 551 285 551 c 0,44,45
 182 551 182 551 124.5 508.5 c 128,-1,46
 67 466 67 466 63 373 c 1,47,-1
 146 373 l 1,4,5
393 185 m 2,48,49
 393 158 393 158 379.5 135.5 c 128,-1,50
 366 113 366 113 342 96 c 128,-1,51
 318 79 318 79 288 69 c 128,-1,52
 258 59 258 59 227 59 c 0,53,54
 178 59 178 59 154 83.5 c 128,-1,55
 130 108 130 108 130 153 c 0,56,57
 130 177 130 177 141 193 c 128,-1,58
 152 209 152 209 169 218 c 128,-1,59
 186 227 186 227 205 232 c 128,-1,60
 224 237 224 237 245 240 c 0,61,62
 323 250 323 250 352 257 c 128,-1,63
 381 264 381 264 393 273 c 1,64,-1
 393 185 l 2,48,49
EndSplineSet
EndChar

StartChar: aacute
Encoding: 183 183 128
Width: 358
GlyphClass: 2
Flags: W
LayerCount: 2
Fore
SplineSet
341 368 m 256,0,1
 341 401 341 401 328.5 430.5 c 128,-1,2
 316 460 316 460 293.5 482.5 c 128,-1,3
 271 505 271 505 241.5 517 c 128,-1,4
 212 529 212 529 179 529 c 256,5,6
 146 529 146 529 116.5 517 c 128,-1,7
 87 505 87 505 65 482.5 c 128,-1,8
 43 460 43 460 30.5 430 c 128,-1,9
 18 400 18 400 18 368 c 256,10,11
 18 335 18 335 30.5 305 c 128,-1,12
 43 275 43 275 66 254 c 0,13,14
 113 207 113 207 179 207 c 0,15,16
 212 207 212 207 241.5 219 c 128,-1,17
 271 231 271 231 293.5 253.5 c 128,-1,18
 316 276 316 276 328.5 305.5 c 128,-1,19
 341 335 341 335 341 368 c 256,0,1
EndSplineSet
EndChar

StartChar: acircumflex
Encoding: 8218 8218 129
Width: 569
GlyphClass: 2
Flags: W
LayerCount: 2
Fore
SplineSet
285 702 m 1,0,-1
 352 607 l 1,1,-1
 434 607 l 1,2,-1
 333 752 l 1,3,-1
 238 752 l 1,4,-1
 136 607 l 1,5,-1
 217 607 l 1,6,-1
 285 702 l 1,0,-1
146 373 m 1,7,8
 149 393 149 393 155 409.5 c 128,-1,9
 161 426 161 426 173.5 441.5 c 128,-1,10
 186 457 186 457 209.5 466.5 c 128,-1,11
 233 476 233 476 269 476 c 0,12,13
 395 476 395 476 395 389 c 0,14,15
 395 353 395 353 382.5 340.5 c 128,-1,16
 370 328 370 328 348 326 c 2,17,-1
 200 307 l 2,18,19
 148 301 148 301 114.5 281 c 128,-1,20
 81 261 81 261 64 235.5 c 128,-1,21
 47 210 47 210 42 186 c 128,-1,22
 37 162 37 162 37 139 c 0,23,24
 37 70 37 70 84 27.5 c 128,-1,25
 131 -15 131 -15 205 -15 c 0,26,27
 275 -15 275 -15 319.5 9.5 c 128,-1,28
 364 34 364 34 398 72 c 1,29,30
 401 34 401 34 420 12 c 128,-1,31
 439 -10 439 -10 494 -10 c 0,32,33
 509 -10 509 -10 531 -3 c 0,34,35
 538 -1 538 -1 543 0 c 1,36,-1
 543 66 l 1,37,38
 523 62 523 62 513 61 c 0,39,40
 483 61 483 61 483 93 c 2,41,-1
 483 401 l 2,42,43
 483 449 483 449 460 480 c 128,-1,44
 437 511 437 511 404 526 c 128,-1,45
 371 541 371 541 339.5 546 c 128,-1,46
 308 551 308 551 285 551 c 0,47,48
 182 551 182 551 124.5 508.5 c 128,-1,49
 67 466 67 466 63 373 c 1,50,-1
 146 373 l 1,7,8
393 185 m 2,51,52
 393 158 393 158 379.5 135.5 c 128,-1,53
 366 113 366 113 342 96 c 128,-1,54
 318 79 318 79 288 69 c 128,-1,55
 258 59 258 59 227 59 c 0,56,57
 178 59 178 59 154 83.5 c 128,-1,58
 130 108 130 108 130 153 c 0,59,60
 130 177 130 177 141 193 c 128,-1,61
 152 209 152 209 169 218 c 128,-1,62
 186 227 186 227 205 232 c 128,-1,63
 224 237 224 237 245 240 c 0,64,65
 323 250 323 250 352 257 c 128,-1,66
 381 264 381 264 393 273 c 1,67,-1
 393 185 l 2,51,52
EndSplineSet
EndChar

StartChar: atilde
Encoding: 8222 8222 130
Width: 569
GlyphClass: 2
Flags: W
LayerCount: 2
Fore
SplineSet
398 739 m 1,0,1
 394 717 394 717 384 704.5 c 128,-1,2
 374 692 374 692 347 692 c 0,3,4
 340 692 340 692 326 695.5 c 128,-1,5
 312 699 312 699 299 706 c 2,6,-1
 276 715 l 2,7,8
 236 730 236 730 207 730 c 0,9,10
 159 730 159 730 133.5 700 c 128,-1,11
 108 670 108 670 100 621 c 1,12,-1
 150 621 l 1,13,14
 157 644 157 644 167.5 655 c 128,-1,15
 178 666 178 666 198 666 c 0,16,17
 207 666 207 666 220 662.5 c 128,-1,18
 233 659 233 659 260 650 c 2,19,-1
 287 641 l 2,20,21
 311 634 311 634 322.5 631 c 128,-1,22
 334 628 334 628 347 628 c 0,23,24
 389 628 389 628 416.5 659.5 c 128,-1,25
 444 691 444 691 450 739 c 1,26,-1
 398 739 l 1,0,1
146 373 m 1,27,28
 149 393 149 393 155 409.5 c 128,-1,29
 161 426 161 426 173.5 441.5 c 128,-1,30
 186 457 186 457 209.5 466.5 c 128,-1,31
 233 476 233 476 269 476 c 0,32,33
 395 476 395 476 395 389 c 0,34,35
 395 353 395 353 382.5 340.5 c 128,-1,36
 370 328 370 328 348 326 c 2,37,-1
 200 307 l 2,38,39
 148 301 148 301 114.5 281 c 128,-1,40
 81 261 81 261 64 235.5 c 128,-1,41
 47 210 47 210 42 186 c 128,-1,42
 37 162 37 162 37 139 c 0,43,44
 37 70 37 70 84 27.5 c 128,-1,45
 131 -15 131 -15 205 -15 c 0,46,47
 275 -15 275 -15 319.5 9.5 c 128,-1,48
 364 34 364 34 398 72 c 1,49,50
 401 34 401 34 420 12 c 128,-1,51
 439 -10 439 -10 494 -10 c 0,52,53
 509 -10 509 -10 531 -3 c 0,54,55
 538 -1 538 -1 543 0 c 1,56,-1
 543 66 l 1,57,58
 523 62 523 62 513 61 c 0,59,60
 483 61 483 61 483 93 c 2,61,-1
 483 401 l 2,62,63
 483 449 483 449 460 480 c 128,-1,64
 437 511 437 511 404 526 c 128,-1,65
 371 541 371 541 339.5 546 c 128,-1,66
 308 551 308 551 285 551 c 0,67,68
 182 551 182 551 124.5 508.5 c 128,-1,69
 67 466 67 466 63 373 c 1,70,-1
 146 373 l 1,27,28
393 185 m 2,71,72
 393 158 393 158 379.5 135.5 c 128,-1,73
 366 113 366 113 342 96 c 128,-1,74
 318 79 318 79 288 69 c 128,-1,75
 258 59 258 59 227 59 c 0,76,77
 178 59 178 59 154 83.5 c 128,-1,78
 130 108 130 108 130 153 c 0,79,80
 130 177 130 177 141 193 c 128,-1,81
 152 209 152 209 169 218 c 128,-1,82
 186 227 186 227 205 232 c 128,-1,83
 224 237 224 237 245 240 c 0,84,85
 323 250 323 250 352 257 c 128,-1,86
 381 264 381 264 393 273 c 1,87,-1
 393 185 l 2,71,72
EndSplineSet
EndChar

StartChar: adieresis
Encoding: 8240 8240 131
Width: 569
GlyphClass: 2
Flags: W
LayerCount: 2
Fore
SplineSet
249 723 m 1,0,-1
 156 723 l 1,1,-1
 156 618 l 1,2,-1
 249 618 l 1,3,-1
 249 723 l 1,0,-1
415 723 m 1,4,-1
 322 723 l 1,5,-1
 322 618 l 1,6,-1
 415 618 l 1,7,-1
 415 723 l 1,4,-1
146 373 m 1,8,9
 149 393 149 393 155 409.5 c 128,-1,10
 161 426 161 426 173.5 441.5 c 128,-1,11
 186 457 186 457 209.5 466.5 c 128,-1,12
 233 476 233 476 269 476 c 0,13,14
 395 476 395 476 395 389 c 0,15,16
 395 353 395 353 382.5 340.5 c 128,-1,17
 370 328 370 328 348 326 c 2,18,-1
 200 307 l 2,19,20
 148 301 148 301 114.5 281 c 128,-1,21
 81 261 81 261 64 235.5 c 128,-1,22
 47 210 47 210 42 186 c 128,-1,23
 37 162 37 162 37 139 c 0,24,25
 37 70 37 70 84 27.5 c 128,-1,26
 131 -15 131 -15 205 -15 c 0,27,28
 275 -15 275 -15 319.5 9.5 c 128,-1,29
 364 34 364 34 398 72 c 1,30,31
 401 34 401 34 420 12 c 128,-1,32
 439 -10 439 -10 494 -10 c 0,33,34
 509 -10 509 -10 531 -3 c 0,35,36
 538 -1 538 -1 543 0 c 1,37,-1
 543 66 l 1,38,39
 523 62 523 62 513 61 c 0,40,41
 483 61 483 61 483 93 c 2,42,-1
 483 401 l 2,43,44
 483 449 483 449 460 480 c 128,-1,45
 437 511 437 511 404 526 c 128,-1,46
 371 541 371 541 339.5 546 c 128,-1,47
 308 551 308 551 285 551 c 0,48,49
 182 551 182 551 124.5 508.5 c 128,-1,50
 67 466 67 466 63 373 c 1,51,-1
 146 373 l 1,8,9
393 185 m 2,52,53
 393 158 393 158 379.5 135.5 c 128,-1,54
 366 113 366 113 342 96 c 128,-1,55
 318 79 318 79 288 69 c 128,-1,56
 258 59 258 59 227 59 c 0,57,58
 178 59 178 59 154 83.5 c 128,-1,59
 130 108 130 108 130 153 c 0,60,61
 130 177 130 177 141 193 c 128,-1,62
 152 209 152 209 169 218 c 128,-1,63
 186 227 186 227 205 232 c 128,-1,64
 224 237 224 237 245 240 c 0,65,66
 323 250 323 250 352 257 c 128,-1,67
 381 264 381 264 393 273 c 1,68,-1
 393 185 l 2,52,53
EndSplineSet
EndChar

StartChar: Aacute
Encoding: 193 193 132
Width: 1009
GlyphClass: 2
Flags: W
LayerCount: 2
Fore
SplineSet
104 712 m 256,0,1
 117 712 117 712 127 701.5 c 128,-1,2
 137 691 137 691 137 678 c 0,3,4
 137 664 137 664 127.5 653.5 c 128,-1,5
 118 643 118 643 104 643 c 256,6,7
 91 643 91 643 81 653.5 c 128,-1,8
 71 664 71 664 71 678 c 0,9,10
 71 691 71 691 81 701.5 c 128,-1,11
 91 712 91 712 104 712 c 256,0,1
284 799 m 256,12,13
 297 799 297 799 306.5 788.5 c 128,-1,14
 316 778 316 778 316 765 c 0,15,16
 316 751 316 751 306.5 740.5 c 128,-1,17
 297 730 297 730 284 730 c 256,18,19
 271 730 271 730 260.5 740.5 c 128,-1,20
 250 751 250 751 250 765 c 0,21,22
 250 778 250 778 260.5 788.5 c 128,-1,23
 271 799 271 799 284 799 c 256,12,13
720 799 m 256,24,25
 733 799 733 799 743.5 788.5 c 128,-1,26
 754 778 754 778 754 765 c 0,27,28
 754 751 754 751 744 740.5 c 128,-1,29
 734 730 734 730 720 730 c 0,30,31
 707 730 707 730 697 740.5 c 128,-1,32
 687 751 687 751 687 765 c 0,33,34
 687 778 687 778 697 788.5 c 128,-1,35
 707 799 707 799 720 799 c 256,24,25
899 712 m 256,36,37
 912 712 912 712 922.5 701.5 c 128,-1,38
 933 691 933 691 933 678 c 0,39,40
 933 664 933 664 923 653.5 c 128,-1,41
 913 643 913 643 899 643 c 0,42,43
 886 643 886 643 876 653.5 c 128,-1,44
 866 664 866 664 866 678 c 0,45,46
 866 691 866 691 876 701.5 c 128,-1,47
 886 712 886 712 899 712 c 256,36,37
503 881 m 0,48,49
 471 881 471 881 448.5 858.5 c 128,-1,50
 426 836 426 836 426 804 c 0,51,52
 426 795 426 795 434 776 c 0,53,54
 444 754 444 754 450 732.5 c 128,-1,55
 456 711 456 711 456 673 c 0,56,57
 456 636 456 636 448.5 587.5 c 128,-1,58
 441 539 441 539 426 473 c 1,59,60
 385 560 385 560 368.5 616.5 c 128,-1,61
 352 673 352 673 352 708 c 0,62,63
 352 727 352 727 357 751 c 0,64,65
 360 762 360 762 360 767 c 0,66,67
 360 799 360 799 337.5 821.5 c 128,-1,68
 315 844 315 844 284 844 c 256,69,70
 252 844 252 844 229.5 821.5 c 128,-1,71
 207 799 207 799 207 767 c 0,72,73
 207 742 207 742 212.5 732 c 128,-1,74
 218 722 218 722 231 713 c 0,75,76
 249 699 249 699 259 675.5 c 128,-1,77
 269 652 269 652 269 591 c 0,78,79
 269 545 269 545 262 475 c 1,80,81
 212 525 212 525 193.5 561 c 128,-1,82
 175 597 175 597 175 625 c 0,83,84
 175 636 175 636 178 655 c 0,85,86
 181 670 181 670 181 678 c 0,87,88
 181 710 181 710 158.5 732.5 c 128,-1,89
 136 755 136 755 104 755 c 256,90,91
 72 755 72 755 50 732.5 c 128,-1,92
 28 710 28 710 28 678 c 0,93,94
 29 652 29 652 44.5 630 c 128,-1,95
 60 608 60 608 91 594 c 1,96,97
 93 549 93 549 102.5 504 c 128,-1,98
 112 459 112 459 130 385 c 0,99,100
 134 373 134 373 140 346 c 0,101,102
 141 332 141 332 152 317.5 c 128,-1,103
 163 303 163 303 184 281 c 0,104,105
 207 256 207 256 219 239.5 c 128,-1,106
 231 223 231 223 239 204 c 0,107,108
 242 196 242 196 242 188 c 0,109,110
 242 173 242 173 226 144 c 0,111,112
 216 122 216 122 210.5 106.5 c 128,-1,113
 205 91 205 91 205 71 c 0,114,115
 205 69 205 69 205 61 c 0,116,117
 206 55 206 55 206 51 c 0,118,119
 206 50 206 50 206 49 c 0,120,121
 206 47 l 2,122,123
 206 29 206 29 247.5 17.5 c 128,-1,124
 289 6 289 6 345 1 c 128,-1,125
 401 -4 401 -4 442 -5 c 128,-1,126
 483 -6 483 -6 502 -6 c 256,127,128
 520 -6 520 -6 562 -5 c 128,-1,129
 604 -4 604 -4 659 1 c 128,-1,130
 714 6 714 6 756.5 17.5 c 128,-1,131
 799 29 799 29 799 47 c 1,132,133
 798 49 l 0,134,135
 798 50 798 50 798 51 c 0,136,137
 798 55 798 55 799 61 c 0,138,139
 799 68 799 68 799 71 c 0,140,141
 799 91 799 91 793 107.5 c 128,-1,142
 787 124 787 124 777 144 c 0,143,144
 763 173 763 173 763 188 c 0,145,146
 763 195 763 195 765 204 c 0,147,148
 772 223 772 223 785 240 c 128,-1,149
 798 257 798 257 820 281 c 0,150,151
 840 304 840 304 851 318 c 128,-1,152
 862 332 862 332 863 346 c 0,153,154
 869 373 869 373 873 385 c 0,155,156
 891 459 891 459 900.5 503.5 c 128,-1,157
 910 548 910 548 912 594 c 1,158,159
 943 608 943 608 959 630 c 128,-1,160
 975 652 975 652 976 678 c 0,161,162
 976 710 976 710 953.5 732.5 c 128,-1,163
 931 755 931 755 899 755 c 256,164,165
 867 755 867 755 844.5 732.5 c 128,-1,166
 822 710 822 710 822 678 c 0,167,168
 822 671 822 671 825 655 c 0,169,170
 829 636 829 636 829 625 c 0,171,172
 829 597 829 597 810.5 561 c 128,-1,173
 792 525 792 525 741 475 c 1,174,175
 734 545 734 545 734 591 c 0,176,177
 734 651 734 651 744 674 c 128,-1,178
 754 697 754 697 772 712 c 0,179,180
 785 722 785 722 791 732 c 128,-1,181
 797 742 797 742 797 767 c 0,182,183
 797 799 797 799 774.5 821.5 c 128,-1,184
 752 844 752 844 720 844 c 256,185,186
 688 844 688 844 665.5 821.5 c 128,-1,187
 643 799 643 799 643 767 c 0,188,189
 643 762 643 762 646 751 c 0,190,191
 651 727 651 727 651 708 c 0,192,193
 651 673 651 673 635.5 616.5 c 128,-1,194
 620 560 620 560 578 473 c 1,195,196
 563 539 563 539 555.5 587.5 c 128,-1,197
 548 636 548 636 548 672 c 0,198,199
 548 710 548 710 553.5 732.5 c 128,-1,200
 559 755 559 755 569 775 c 0,201,202
 577 793 577 793 578 804 c 0,203,204
 578 836 578 836 555.5 858.5 c 128,-1,205
 533 881 533 881 503 881 c 0,48,49
503 841 m 256,206,207
 516 841 516 841 526 830.5 c 128,-1,208
 536 820 536 820 536 807 c 0,209,210
 536 793 536 793 526 782.5 c 128,-1,211
 516 772 516 772 503 772 c 256,212,213
 490 772 490 772 479.5 782.5 c 128,-1,214
 469 793 469 793 469 807 c 0,215,216
 469 820 469 820 479.5 830.5 c 128,-1,217
 490 841 490 841 503 841 c 256,206,207
400 413 m 1,218,219
 345 403 345 403 315 395 c 1,220,-1
 326 559 l 1,221,-1
 400 413 l 1,218,219
267 383 m 1,222,-1
 249 378 l 2,223,224
 221 370 221 370 203 364 c 1,225,-1
 169 481 l 1,226,-1
 267 383 l 1,222,-1
536 418 m 1,227,-1
 503 575 l 1,228,-1
 471 418 l 1,229,-1
 503 418 l 1,230,-1
 536 418 l 1,227,-1
503 368 m 1,231,232
 599 361 599 361 669.5 344.5 c 128,-1,233
 740 328 740 328 740 314 c 1,234,235
 749 314 749 314 750 302 c 0,236,237
 750 294 750 294 742 288.5 c 128,-1,238
 734 283 734 283 717 283 c 0,239,240
 702 283 702 283 680 288 c 0,241,242
 652 292 652 292 637 293 c 128,-1,243
 622 294 622 294 591 296 c 0,244,245
 565 297 565 297 545.5 299 c 128,-1,246
 526 301 526 301 503 304 c 1,247,248
 476 301 476 301 462.5 299.5 c 128,-1,249
 449 298 449 298 415 296 c 0,250,251
 392 295 392 295 371 293 c 128,-1,252
 350 291 350 291 326 288 c 0,253,254
 306 283 306 283 289 283 c 256,255,256
 273 283 273 283 265 288.5 c 128,-1,257
 257 294 257 294 257 302 c 0,258,259
 257 314 257 314 265 314 c 1,260,261
 265 327 265 327 335.5 344 c 128,-1,262
 406 361 406 361 503 368 c 1,231,232
503 123 m 0,263,264
 549 123 549 123 587.5 121.5 c 128,-1,265
 626 120 626 120 657.5 116 c 128,-1,266
 689 112 689 112 707.5 104 c 128,-1,267
 726 96 726 96 726 84 c 0,268,269
 726 68 726 68 664 59 c 128,-1,270
 602 50 602 50 503 50 c 256,271,272
 404 50 404 50 342 59 c 128,-1,273
 280 68 280 68 280 84 c 0,274,275
 280 96 280 96 298 104 c 128,-1,276
 316 112 316 112 348 116 c 128,-1,277
 380 120 380 120 415.5 121 c 128,-1,278
 451 122 451 122 503 123 c 0,263,264
503 251 m 0,279,280
 530 250 530 250 575 248 c 0,281,282
 655 246 655 246 678 238.5 c 128,-1,283
 701 231 701 231 701 203 c 0,284,285
 701 201 701 201 701 195 c 0,286,287
 700 189 700 189 700 185 c 0,288,289
 700 184 700 184 701 182 c 0,290,291
 701 180 701 180 701 179 c 0,292,293
 701 164 701 164 658 164 c 0,294,295
 641 164 641 164 592 167 c 0,296,297
 536 171 536 171 503 172 c 0,298,299
 470 171 470 171 414 167 c 0,300,301
 365 164 365 164 347 164 c 0,302,303
 304 164 304 164 304 179 c 0,304,305
 304 180 304 180 304 182 c 0,306,307
 305 184 305 184 305 185 c 0,308,309
 305 188 305 188 304 195 c 0,310,311
 304 201 304 201 304 203 c 0,312,313
 304 232 304 232 327 239 c 128,-1,314
 350 246 350 246 430 248 c 0,315,316
 476 250 476 250 503 251 c 0,279,280
738 383 m 1,317,-1
 837 481 l 1,318,-1
 803 364 l 1,319,320
 785 370 785 370 757 378 c 2,321,-1
 738 383 l 1,317,-1
605 413 m 1,322,-1
 680 559 l 1,323,-1
 690 395 l 1,324,325
 660 403 660 403 605 413 c 1,322,-1
EndSplineSet
EndChar

StartChar: egrave
Encoding: 203 203 133
Width: 646
GlyphClass: 2
Flags: W
LayerCount: 2
Fore
SplineSet
618 1 m 1,0,1
 620 34 620 34 621 59 c 0,2,3
 621 109 621 109 613 152 c 128,-1,4
 605 195 605 195 585 233.5 c 128,-1,5
 565 272 565 272 529 306 c 128,-1,6
 493 340 493 340 436 368 c 1,7,8
 471 380 471 380 492.5 414.5 c 128,-1,9
 514 449 514 449 514 489 c 256,10,11
 514 530 514 530 490.5 565.5 c 128,-1,12
 467 601 467 601 420 621 c 1,13,14
 444 662 444 662 443 698 c 0,15,16
 443 746 443 746 405.5 775.5 c 128,-1,17
 368 805 368 805 326 805 c 256,18,19
 284 805 284 805 246 775.5 c 128,-1,20
 208 746 208 746 208 698 c 0,21,22
 208 661 208 661 231 621 c 1,23,24
 184 602 184 602 160.5 566 c 128,-1,25
 137 530 137 530 137 489 c 256,26,27
 137 448 137 448 158.5 414 c 128,-1,28
 180 380 180 380 215 368 c 1,29,30
 160 341 160 341 123.5 307 c 128,-1,31
 87 273 87 273 67 235.5 c 128,-1,32
 47 198 47 198 39.5 155.5 c 128,-1,33
 32 113 32 113 32 63 c 0,34,35
 32 36 32 36 34 1 c 1,36,-1
 618 1 l 1,0,1
EndSplineSet
EndChar

StartChar: eacute
Encoding: 200 200 134
Width: 797
GlyphClass: 2
Flags: W
LayerCount: 2
Fore
SplineSet
401 803 m 1,0,-1
 326 803 l 1,1,-1
 302 779 l 1,2,-1
 302 744 l 1,3,-1
 263 744 l 1,4,-1
 263 779 l 1,5,-1
 240 803 l 1,6,-1
 114 803 l 1,7,-1
 75 764 l 1,8,-1
 75 641 l 1,9,-1
 197 536 l 1,10,-1
 197 262 l 1,11,-1
 55 122 l 1,12,-1
 55 28 l 1,13,-1
 82 1 l 1,14,-1
 401 1 l 1,15,-1
 721 1 l 1,16,-1
 748 28 l 1,17,-1
 748 122 l 1,18,-1
 606 262 l 1,19,-1
 606 536 l 1,20,-1
 728 641 l 1,21,-1
 728 764 l 1,22,-1
 689 803 l 1,23,-1
 563 803 l 1,24,-1
 540 779 l 1,25,-1
 540 744 l 1,26,-1
 501 744 l 1,27,-1
 501 779 l 1,28,-1
 477 803 l 1,29,-1
 401 803 l 1,0,-1
246 541 m 1,30,-1
 557 541 l 1,31,-1
 557 495 l 1,32,-1
 246 495 l 1,33,-1
 246 541 l 1,30,-1
246 294 m 1,34,-1
 557 294 l 1,35,-1
 557 248 l 1,36,-1
 246 248 l 1,37,-1
 246 294 l 1,34,-1
EndSplineSet
EndChar

StartChar: ecircumflex
Encoding: 205 205 135
Width: 514
GlyphClass: 2
Flags: W
LayerCount: 2
Fore
SplineSet
-1 0 m 1,0,-1
 511 0 l 1,1,-1
 511 512 l 1,2,-1
 -1 512 l 1,3,-1
 -1 0 l 1,0,-1
9 10 m 1,4,-1
 9 502 l 1,5,-1
 501 502 l 1,6,-1
 501 10 l 1,7,-1
 9 10 l 1,4,-1
EndSplineSet
EndChar

StartChar: edieresis
Encoding: 206 206 136
Width: 514
GlyphClass: 2
Flags: W
LayerCount: 2
Fore
SplineSet
-1 0 m 1,0,-1
 511 0 l 1,1,-1
 511 512 l 1,2,-1
 -1 512 l 1,3,-1
 -1 0 l 1,0,-1
9 10 m 1,4,-1
 9 502 l 1,5,-1
 501 502 l 1,6,-1
 501 10 l 1,7,-1
 9 10 l 1,4,-1
EndSplineSet
EndChar

StartChar: igrave
Encoding: 207 207 137
Width: 514
GlyphClass: 2
Flags: W
LayerCount: 2
Fore
SplineSet
-1 0 m 1,0,-1
 511 0 l 1,1,-1
 511 512 l 1,2,-1
 -1 512 l 1,3,-1
 -1 0 l 1,0,-1
9 10 m 1,4,-1
 9 502 l 1,5,-1
 501 502 l 1,6,-1
 501 10 l 1,7,-1
 9 10 l 1,4,-1
EndSplineSet
EndChar

StartChar: iacute
Encoding: 204 204 138
Width: 514
GlyphClass: 2
Flags: W
LayerCount: 2
Fore
SplineSet
-1 0 m 1,0,-1
 511 0 l 1,1,-1
 511 512 l 1,2,-1
 -1 512 l 1,3,-1
 -1 0 l 1,0,-1
9 10 m 1,4,-1
 9 502 l 1,5,-1
 501 502 l 1,6,-1
 501 10 l 1,7,-1
 9 10 l 1,4,-1
EndSplineSet
EndChar

StartChar: icircumflex
Encoding: 211 211 139
Width: 514
GlyphClass: 2
Flags: W
LayerCount: 2
Fore
SplineSet
-1 0 m 1,0,-1
 511 0 l 1,1,-1
 511 512 l 1,2,-1
 -1 512 l 1,3,-1
 -1 0 l 1,0,-1
9 10 m 1,4,-1
 9 502 l 1,5,-1
 501 502 l 1,6,-1
 501 10 l 1,7,-1
 9 10 l 1,4,-1
EndSplineSet
EndChar

StartChar: idieresis
Encoding: 212 212 140
Width: 514
GlyphClass: 2
Flags: W
LayerCount: 2
Fore
SplineSet
-1 0 m 1,0,-1
 511 0 l 1,1,-1
 511 512 l 1,2,-1
 -1 512 l 1,3,-1
 -1 0 l 1,0,-1
9 10 m 1,4,-1
 9 502 l 1,5,-1
 501 502 l 1,6,-1
 501 10 l 1,7,-1
 9 10 l 1,4,-1
EndSplineSet
EndChar

StartChar: ntilde
Encoding: 210 210 141
Width: 514
GlyphClass: 2
Flags: W
LayerCount: 2
Fore
SplineSet
-1 0 m 1,0,-1
 511 0 l 1,1,-1
 511 512 l 1,2,-1
 -1 512 l 1,3,-1
 -1 0 l 1,0,-1
9 10 m 1,4,-1
 9 502 l 1,5,-1
 501 502 l 1,6,-1
 501 10 l 1,7,-1
 9 10 l 1,4,-1
EndSplineSet
EndChar

StartChar: ograve
Encoding: 218 218 142
Width: 514
GlyphClass: 2
Flags: W
LayerCount: 2
Fore
SplineSet
-1 0 m 1,0,-1
 511 0 l 1,1,-1
 511 512 l 1,2,-1
 -1 512 l 1,3,-1
 -1 0 l 1,0,-1
9 10 m 1,4,-1
 9 502 l 1,5,-1
 501 502 l 1,6,-1
 501 10 l 1,7,-1
 9 10 l 1,4,-1
EndSplineSet
EndChar

StartChar: oacute
Encoding: 219 219 143
Width: 514
GlyphClass: 2
Flags: W
LayerCount: 2
Fore
SplineSet
-1 0 m 1,0,-1
 511 0 l 1,1,-1
 511 512 l 1,2,-1
 -1 512 l 1,3,-1
 -1 0 l 1,0,-1
9 10 m 1,4,-1
 9 502 l 1,5,-1
 501 502 l 1,6,-1
 501 10 l 1,7,-1
 9 10 l 1,4,-1
EndSplineSet
EndChar

StartChar: ocircumflex
Encoding: 217 217 144
Width: 514
GlyphClass: 2
Flags: W
LayerCount: 2
Fore
SplineSet
-1 0 m 1,0,-1
 511 0 l 1,1,-1
 511 512 l 1,2,-1
 -1 512 l 1,3,-1
 -1 0 l 1,0,-1
9 10 m 1,4,-1
 9 502 l 1,5,-1
 501 502 l 1,6,-1
 501 10 l 1,7,-1
 9 10 l 1,4,-1
EndSplineSet
EndChar

StartChar: dotlessi
Encoding: 305 305 145
Width: 284
GlyphClass: 2
Flags: W
LayerCount: 2
Fore
SplineSet
187 536 m 1,0,-1
 97 536 l 1,1,-1
 97 0 l 1,2,-1
 187 0 l 1,3,-1
 187 536 l 1,0,-1
EndSplineSet
EndChar

StartChar: odieresis
Encoding: 710 710 146
Width: 569
GlyphClass: 2
Flags: W
LayerCount: 2
Fore
SplineSet
249 723 m 1,0,-1
 156 723 l 1,1,-1
 156 618 l 1,2,-1
 249 618 l 1,3,-1
 249 723 l 1,0,-1
415 723 m 1,4,-1
 322 723 l 1,5,-1
 322 618 l 1,6,-1
 415 618 l 1,7,-1
 415 723 l 1,4,-1
36 268 m 256,8,9
 36 215 36 215 51.5 165 c 128,-1,10
 67 115 67 115 97.5 74 c 128,-1,11
 128 33 128 33 175.5 9.5 c 128,-1,12
 223 -14 223 -14 285 -14 c 0,13,14
 346 -14 346 -14 393.5 9.5 c 128,-1,15
 441 33 441 33 472 74 c 128,-1,16
 503 115 503 115 518.5 165 c 128,-1,17
 534 215 534 215 534 268 c 256,18,19
 534 321 534 321 518.5 372 c 128,-1,20
 503 423 503 423 472 463.5 c 128,-1,21
 441 504 441 504 393.5 527.5 c 128,-1,22
 346 551 346 551 285 551 c 256,23,24
 224 551 224 551 176 527.5 c 128,-1,25
 128 504 128 504 97.5 463 c 128,-1,26
 67 422 67 422 51.5 371.5 c 128,-1,27
 36 321 36 321 36 268 c 256,8,9
129 268 m 256,28,29
 129 299 129 299 136 334 c 128,-1,30
 143 369 143 369 160 400.5 c 128,-1,31
 177 432 177 432 208 452.5 c 128,-1,32
 239 473 239 473 285 473 c 256,33,34
 331 473 331 473 361.5 452.5 c 128,-1,35
 392 432 392 432 409.5 400.5 c 128,-1,36
 427 369 427 369 433.5 334 c 128,-1,37
 440 299 440 299 440 268 c 256,38,39
 440 237 440 237 433.5 202.5 c 128,-1,40
 427 168 427 168 409.5 136 c 128,-1,41
 392 104 392 104 361.5 83.5 c 128,-1,42
 331 63 331 63 285 63 c 256,43,44
 239 63 239 63 208 83.5 c 128,-1,45
 177 104 177 104 160 136 c 128,-1,46
 143 168 143 168 136 202.5 c 128,-1,47
 129 237 129 237 129 268 c 256,28,29
EndSplineSet
EndChar

StartChar: lslash
Encoding: 175 175 147
Width: 514
GlyphClass: 2
Flags: W
LayerCount: 2
Fore
SplineSet
-1 0 m 1,0,-1
 511 0 l 1,1,-1
 511 512 l 1,2,-1
 -1 512 l 1,3,-1
 -1 0 l 1,0,-1
9 10 m 1,4,-1
 9 502 l 1,5,-1
 501 502 l 1,6,-1
 501 10 l 1,7,-1
 9 10 l 1,4,-1
EndSplineSet
EndChar

StartChar: ugrave
Encoding: 728 728 148
Width: 569
GlyphClass: 2
Flags: W
LayerCount: 2
Fore
SplineSet
262 607 m 1,0,-1
 331 607 l 1,1,-1
 240 752 l 1,2,-1
 129 752 l 1,3,-1
 262 607 l 1,0,-1
501 0 m 1,4,-1
 501 536 l 1,5,-1
 411 536 l 1,6,-1
 411 241 l 2,7,8
 411 209 411 209 403 178 c 128,-1,9
 395 147 395 147 378 120.5 c 128,-1,10
 361 94 361 94 332.5 78 c 128,-1,11
 304 62 304 62 263 62 c 0,12,13
 215 62 215 62 187.5 90 c 128,-1,14
 160 118 160 118 160 180 c 2,15,-1
 160 536 l 1,16,-1
 70 536 l 1,17,-1
 70 151 l 2,18,19
 70 105 70 105 85 72.5 c 128,-1,20
 100 40 100 40 126 20.5 c 128,-1,21
 152 1 152 1 182 -7 c 128,-1,22
 212 -15 212 -15 244 -15 c 0,23,24
 306 -15 306 -15 345 8 c 128,-1,25
 384 31 384 31 414 80 c 1,26,-1
 416 78 l 1,27,-1
 416 0 l 1,28,-1
 501 0 l 1,4,-1
EndSplineSet
EndChar

StartChar: uacute
Encoding: 729 729 149
Width: 569
GlyphClass: 2
Flags: W
LayerCount: 2
Fore
SplineSet
441 752 m 1,0,-1
 331 752 l 1,1,-1
 240 607 l 1,2,-1
 308 607 l 1,3,-1
 441 752 l 1,0,-1
501 0 m 1,4,-1
 501 536 l 1,5,-1
 411 536 l 1,6,-1
 411 241 l 2,7,8
 411 209 411 209 403 178 c 128,-1,9
 395 147 395 147 378 120.5 c 128,-1,10
 361 94 361 94 332.5 78 c 128,-1,11
 304 62 304 62 263 62 c 0,12,13
 215 62 215 62 187.5 90 c 128,-1,14
 160 118 160 118 160 180 c 2,15,-1
 160 536 l 1,16,-1
 70 536 l 1,17,-1
 70 151 l 2,18,19
 70 105 70 105 85 72.5 c 128,-1,20
 100 40 100 40 126 20.5 c 128,-1,21
 152 1 152 1 182 -7 c 128,-1,22
 212 -15 212 -15 244 -15 c 0,23,24
 306 -15 306 -15 345 8 c 128,-1,25
 384 31 384 31 414 80 c 1,26,-1
 416 78 l 1,27,-1
 416 0 l 1,28,-1
 501 0 l 1,4,-1
EndSplineSet
EndChar

StartChar: ucircumflex
Encoding: 730 730 150
Width: 569
GlyphClass: 2
Flags: W
LayerCount: 2
Fore
SplineSet
285 702 m 1,0,-1
 352 607 l 1,1,-1
 434 607 l 1,2,-1
 333 752 l 1,3,-1
 238 752 l 1,4,-1
 136 607 l 1,5,-1
 217 607 l 1,6,-1
 285 702 l 1,0,-1
501 0 m 1,7,-1
 501 536 l 1,8,-1
 411 536 l 1,9,-1
 411 241 l 2,10,11
 411 209 411 209 403 178 c 128,-1,12
 395 147 395 147 378 120.5 c 128,-1,13
 361 94 361 94 332.5 78 c 128,-1,14
 304 62 304 62 263 62 c 0,15,16
 215 62 215 62 187.5 90 c 128,-1,17
 160 118 160 118 160 180 c 2,18,-1
 160 536 l 1,19,-1
 70 536 l 1,20,-1
 70 151 l 2,21,22
 70 105 70 105 85 72.5 c 128,-1,23
 100 40 100 40 126 20.5 c 128,-1,24
 152 1 152 1 182 -7 c 128,-1,25
 212 -15 212 -15 244 -15 c 0,26,27
 306 -15 306 -15 345 8 c 128,-1,28
 384 31 384 31 414 80 c 1,29,-1
 416 78 l 1,30,-1
 416 0 l 1,31,-1
 501 0 l 1,7,-1
EndSplineSet
EndChar

StartChar: udieresis
Encoding: 184 184 151
Width: 227
GlyphClass: 2
Flags: W
LayerCount: 2
Fore
SplineSet
54 0 m 1,0,-1
 109 0 l 1,1,2
 109 -17 109 -17 107 -33 c 128,-1,3
 105 -49 105 -49 100 -64 c 128,-1,4
 95 -79 95 -79 84 -90 c 128,-1,5
 73 -101 73 -101 54 -104 c 1,6,-1
 54 -153 l 1,7,8
 112 -140 112 -140 136.5 -98 c 128,-1,9
 161 -56 161 -56 161 8 c 2,10,-1
 161 109 l 1,11,-1
 54 109 l 1,12,-1
 54 0 l 1,0,-1
EndSplineSet
EndChar

StartChar: yacute
Encoding: 733 733 152
Width: 512
GlyphClass: 2
Flags: W
LayerCount: 2
Fore
SplineSet
413 752 m 1,0,-1
 302 752 l 1,1,-1
 211 607 l 1,2,-1
 280 607 l 1,3,-1
 413 752 l 1,0,-1
258 99 m 1,4,-1
 256 99 l 1,5,-1
 114 536 l 1,6,-1
 11 536 l 1,7,-1
 210 -14 l 1,8,-1
 210 -14 l 1,9,10
 192 -62 192 -62 182 -84 c 128,-1,11
 172 -106 172 -106 163.5 -118 c 128,-1,12
 155 -130 155 -130 144 -134 c 128,-1,13
 133 -138 133 -138 115 -138 c 0,14,15
 86 -138 86 -138 60 -129 c 1,16,-1
 60 -211 l 1,17,18
 67 -213 67 -213 69 -213 c 0,19,20
 88 -219 88 -219 98 -219 c 0,21,22
 146 -219 146 -219 171 -213 c 128,-1,23
 196 -207 196 -207 214.5 -186 c 128,-1,24
 233 -165 233 -165 252 -124.5 c 128,-1,25
 271 -84 271 -84 308 10 c 0,26,27
 367 163 367 163 477 470 c 2,28,-1
 501 536 l 1,29,-1
 401 536 l 1,30,-1
 258 99 l 1,4,-1
EndSplineSet
EndChar

StartChar: ydieresis
Encoding: 711 711 153
Width: 512
GlyphClass: 2
Flags: W
LayerCount: 2
Fore
SplineSet
220 723 m 1,0,-1
 127 723 l 1,1,-1
 127 618 l 1,2,-1
 220 618 l 1,3,-1
 220 723 l 1,0,-1
386 723 m 1,4,-1
 293 723 l 1,5,-1
 293 618 l 1,6,-1
 386 618 l 1,7,-1
 386 723 l 1,4,-1
258 99 m 1,8,-1
 256 99 l 1,9,-1
 114 536 l 1,10,-1
 11 536 l 1,11,-1
 210 -14 l 1,12,-1
 210 -14 l 1,13,14
 192 -62 192 -62 182 -84 c 128,-1,15
 172 -106 172 -106 163.5 -118 c 128,-1,16
 155 -130 155 -130 144 -134 c 128,-1,17
 133 -138 133 -138 115 -138 c 0,18,19
 86 -138 86 -138 60 -129 c 1,20,-1
 60 -211 l 1,21,22
 67 -213 67 -213 69 -213 c 0,23,24
 88 -219 88 -219 98 -219 c 0,25,26
 146 -219 146 -219 171 -213 c 128,-1,27
 196 -207 196 -207 214.5 -186 c 128,-1,28
 233 -165 233 -165 252 -124.5 c 128,-1,29
 271 -84 271 -84 308 10 c 0,30,31
 367 163 367 163 477 470 c 2,32,-1
 501 536 l 1,33,-1
 401 536 l 1,34,-1
 258 99 l 1,8,-1
EndSplineSet
EndChar

StartChar: uni007F
Encoding: 127 127 154
Width: 514
Flags: W
LayerCount: 2
Fore
SplineSet
-1 0 m 1,0,-1
 511 0 l 1,1,-1
 511 512 l 1,2,-1
 -1 512 l 1,3,-1
 -1 0 l 1,0,-1
9 10 m 1,4,-1
 9 502 l 1,5,-1
 501 502 l 1,6,-1
 501 10 l 1,7,-1
 9 10 l 1,4,-1
EndSplineSet
EndChar

StartChar: uni0080
Encoding: 128 128 155
Width: 514
Flags: W
LayerCount: 2
Fore
SplineSet
-1 0 m 1,0,-1
 511 0 l 1,1,-1
 511 512 l 1,2,-1
 -1 512 l 1,3,-1
 -1 0 l 1,0,-1
9 10 m 1,4,-1
 9 502 l 1,5,-1
 501 502 l 1,6,-1
 501 10 l 1,7,-1
 9 10 l 1,4,-1
EndSplineSet
EndChar

StartChar: uni0081
Encoding: 129 129 156
Width: 514
Flags: W
LayerCount: 2
Fore
SplineSet
-1 0 m 1,0,-1
 511 0 l 1,1,-1
 511 512 l 1,2,-1
 -1 512 l 1,3,-1
 -1 0 l 1,0,-1
9 10 m 1,4,-1
 9 502 l 1,5,-1
 501 502 l 1,6,-1
 501 10 l 1,7,-1
 9 10 l 1,4,-1
EndSplineSet
EndChar

StartChar: uni0082
Encoding: 130 130 157
Width: 514
Flags: W
LayerCount: 2
Fore
SplineSet
-1 0 m 1,0,-1
 511 0 l 1,1,-1
 511 512 l 1,2,-1
 -1 512 l 1,3,-1
 -1 0 l 1,0,-1
9 10 m 1,4,-1
 9 502 l 1,5,-1
 501 502 l 1,6,-1
 501 10 l 1,7,-1
 9 10 l 1,4,-1
EndSplineSet
EndChar

StartChar: uni0083
Encoding: 131 131 158
Width: 514
Flags: W
LayerCount: 2
Fore
SplineSet
-1 0 m 1,0,-1
 511 0 l 1,1,-1
 511 512 l 1,2,-1
 -1 512 l 1,3,-1
 -1 0 l 1,0,-1
9 10 m 1,4,-1
 9 502 l 1,5,-1
 501 502 l 1,6,-1
 501 10 l 1,7,-1
 9 10 l 1,4,-1
EndSplineSet
EndChar

StartChar: uni0084
Encoding: 132 132 159
Width: 514
Flags: W
LayerCount: 2
Fore
SplineSet
-1 0 m 1,0,-1
 511 0 l 1,1,-1
 511 512 l 1,2,-1
 -1 512 l 1,3,-1
 -1 0 l 1,0,-1
9 10 m 1,4,-1
 9 502 l 1,5,-1
 501 502 l 1,6,-1
 501 10 l 1,7,-1
 9 10 l 1,4,-1
EndSplineSet
EndChar

StartChar: uni0085
Encoding: 133 133 160
Width: 514
Flags: W
LayerCount: 2
Fore
SplineSet
-1 0 m 1,0,-1
 511 0 l 1,1,-1
 511 512 l 1,2,-1
 -1 512 l 1,3,-1
 -1 0 l 1,0,-1
9 10 m 1,4,-1
 9 502 l 1,5,-1
 501 502 l 1,6,-1
 501 10 l 1,7,-1
 9 10 l 1,4,-1
EndSplineSet
EndChar

StartChar: uni0086
Encoding: 134 134 161
Width: 514
Flags: W
LayerCount: 2
Fore
SplineSet
-1 0 m 1,0,-1
 511 0 l 1,1,-1
 511 512 l 1,2,-1
 -1 512 l 1,3,-1
 -1 0 l 1,0,-1
9 10 m 1,4,-1
 9 502 l 1,5,-1
 501 502 l 1,6,-1
 501 10 l 1,7,-1
 9 10 l 1,4,-1
EndSplineSet
EndChar

StartChar: uni0087
Encoding: 135 135 162
Width: 514
Flags: W
LayerCount: 2
Fore
SplineSet
-1 0 m 1,0,-1
 511 0 l 1,1,-1
 511 512 l 1,2,-1
 -1 512 l 1,3,-1
 -1 0 l 1,0,-1
9 10 m 1,4,-1
 9 502 l 1,5,-1
 501 502 l 1,6,-1
 501 10 l 1,7,-1
 9 10 l 1,4,-1
EndSplineSet
EndChar

StartChar: uni0088
Encoding: 136 136 163
Width: 514
Flags: W
LayerCount: 2
Fore
SplineSet
-1 0 m 1,0,-1
 511 0 l 1,1,-1
 511 512 l 1,2,-1
 -1 512 l 1,3,-1
 -1 0 l 1,0,-1
9 10 m 1,4,-1
 9 502 l 1,5,-1
 501 502 l 1,6,-1
 501 10 l 1,7,-1
 9 10 l 1,4,-1
EndSplineSet
EndChar

StartChar: uni0089
Encoding: 137 137 164
Width: 514
Flags: W
LayerCount: 2
Fore
SplineSet
-1 0 m 1,0,-1
 511 0 l 1,1,-1
 511 512 l 1,2,-1
 -1 512 l 1,3,-1
 -1 0 l 1,0,-1
9 10 m 1,4,-1
 9 502 l 1,5,-1
 501 502 l 1,6,-1
 501 10 l 1,7,-1
 9 10 l 1,4,-1
EndSplineSet
EndChar

StartChar: uni008A
Encoding: 138 138 165
Width: 514
Flags: W
LayerCount: 2
Fore
SplineSet
-1 0 m 1,0,-1
 511 0 l 1,1,-1
 511 512 l 1,2,-1
 -1 512 l 1,3,-1
 -1 0 l 1,0,-1
9 10 m 1,4,-1
 9 502 l 1,5,-1
 501 502 l 1,6,-1
 501 10 l 1,7,-1
 9 10 l 1,4,-1
EndSplineSet
EndChar

StartChar: uni008B
Encoding: 139 139 166
Width: 514
Flags: W
LayerCount: 2
Fore
SplineSet
-1 0 m 1,0,-1
 511 0 l 1,1,-1
 511 512 l 1,2,-1
 -1 512 l 1,3,-1
 -1 0 l 1,0,-1
9 10 m 1,4,-1
 9 502 l 1,5,-1
 501 502 l 1,6,-1
 501 10 l 1,7,-1
 9 10 l 1,4,-1
EndSplineSet
EndChar

StartChar: uni008C
Encoding: 140 140 167
Width: 514
Flags: W
LayerCount: 2
Fore
SplineSet
-1 0 m 1,0,-1
 511 0 l 1,1,-1
 511 512 l 1,2,-1
 -1 512 l 1,3,-1
 -1 0 l 1,0,-1
9 10 m 1,4,-1
 9 502 l 1,5,-1
 501 502 l 1,6,-1
 501 10 l 1,7,-1
 9 10 l 1,4,-1
EndSplineSet
EndChar

StartChar: uni008D
Encoding: 141 141 168
Width: 514
Flags: W
LayerCount: 2
Fore
SplineSet
-1 0 m 1,0,-1
 511 0 l 1,1,-1
 511 512 l 1,2,-1
 -1 512 l 1,3,-1
 -1 0 l 1,0,-1
9 10 m 1,4,-1
 9 502 l 1,5,-1
 501 502 l 1,6,-1
 501 10 l 1,7,-1
 9 10 l 1,4,-1
EndSplineSet
EndChar

StartChar: uni008E
Encoding: 142 142 169
Width: 514
Flags: W
LayerCount: 2
Fore
SplineSet
-1 0 m 1,0,-1
 511 0 l 1,1,-1
 511 512 l 1,2,-1
 -1 512 l 1,3,-1
 -1 0 l 1,0,-1
9 10 m 1,4,-1
 9 502 l 1,5,-1
 501 502 l 1,6,-1
 501 10 l 1,7,-1
 9 10 l 1,4,-1
EndSplineSet
EndChar

StartChar: uni008F
Encoding: 143 143 170
Width: 514
Flags: W
LayerCount: 2
Fore
SplineSet
-1 0 m 1,0,-1
 511 0 l 1,1,-1
 511 512 l 1,2,-1
 -1 512 l 1,3,-1
 -1 0 l 1,0,-1
9 10 m 1,4,-1
 9 502 l 1,5,-1
 501 502 l 1,6,-1
 501 10 l 1,7,-1
 9 10 l 1,4,-1
EndSplineSet
EndChar

StartChar: uni0090
Encoding: 144 144 171
Width: 514
Flags: W
LayerCount: 2
Fore
SplineSet
-1 0 m 1,0,-1
 511 0 l 1,1,-1
 511 512 l 1,2,-1
 -1 512 l 1,3,-1
 -1 0 l 1,0,-1
9 10 m 1,4,-1
 9 502 l 1,5,-1
 501 502 l 1,6,-1
 501 10 l 1,7,-1
 9 10 l 1,4,-1
EndSplineSet
EndChar

StartChar: uni0091
Encoding: 145 145 172
Width: 514
Flags: W
LayerCount: 2
Fore
SplineSet
-1 0 m 1,0,-1
 511 0 l 1,1,-1
 511 512 l 1,2,-1
 -1 512 l 1,3,-1
 -1 0 l 1,0,-1
9 10 m 1,4,-1
 9 502 l 1,5,-1
 501 502 l 1,6,-1
 501 10 l 1,7,-1
 9 10 l 1,4,-1
EndSplineSet
EndChar

StartChar: uni0092
Encoding: 146 146 173
Width: 514
Flags: W
LayerCount: 2
Fore
SplineSet
-1 0 m 1,0,-1
 511 0 l 1,1,-1
 511 512 l 1,2,-1
 -1 512 l 1,3,-1
 -1 0 l 1,0,-1
9 10 m 1,4,-1
 9 502 l 1,5,-1
 501 502 l 1,6,-1
 501 10 l 1,7,-1
 9 10 l 1,4,-1
EndSplineSet
EndChar

StartChar: uni0093
Encoding: 147 147 174
Width: 514
Flags: W
LayerCount: 2
Fore
SplineSet
-1 0 m 1,0,-1
 511 0 l 1,1,-1
 511 512 l 1,2,-1
 -1 512 l 1,3,-1
 -1 0 l 1,0,-1
9 10 m 1,4,-1
 9 502 l 1,5,-1
 501 502 l 1,6,-1
 501 10 l 1,7,-1
 9 10 l 1,4,-1
EndSplineSet
EndChar

StartChar: uni0094
Encoding: 148 148 175
Width: 514
Flags: W
LayerCount: 2
Fore
SplineSet
-1 0 m 1,0,-1
 511 0 l 1,1,-1
 511 512 l 1,2,-1
 -1 512 l 1,3,-1
 -1 0 l 1,0,-1
9 10 m 1,4,-1
 9 502 l 1,5,-1
 501 502 l 1,6,-1
 501 10 l 1,7,-1
 9 10 l 1,4,-1
EndSplineSet
EndChar

StartChar: uni0095
Encoding: 149 149 176
Width: 514
Flags: W
LayerCount: 2
Fore
SplineSet
-1 0 m 1,0,-1
 511 0 l 1,1,-1
 511 512 l 1,2,-1
 -1 512 l 1,3,-1
 -1 0 l 1,0,-1
9 10 m 1,4,-1
 9 502 l 1,5,-1
 501 502 l 1,6,-1
 501 10 l 1,7,-1
 9 10 l 1,4,-1
EndSplineSet
EndChar

StartChar: uni0096
Encoding: 150 150 177
Width: 514
Flags: W
LayerCount: 2
Fore
SplineSet
-1 0 m 1,0,-1
 511 0 l 1,1,-1
 511 512 l 1,2,-1
 -1 512 l 1,3,-1
 -1 0 l 1,0,-1
9 10 m 1,4,-1
 9 502 l 1,5,-1
 501 502 l 1,6,-1
 501 10 l 1,7,-1
 9 10 l 1,4,-1
EndSplineSet
EndChar

StartChar: uni0097
Encoding: 151 151 178
Width: 514
Flags: W
LayerCount: 2
Fore
SplineSet
-1 0 m 1,0,-1
 511 0 l 1,1,-1
 511 512 l 1,2,-1
 -1 512 l 1,3,-1
 -1 0 l 1,0,-1
9 10 m 1,4,-1
 9 502 l 1,5,-1
 501 502 l 1,6,-1
 501 10 l 1,7,-1
 9 10 l 1,4,-1
EndSplineSet
EndChar

StartChar: uni0098
Encoding: 152 152 179
Width: 514
Flags: W
LayerCount: 2
Fore
SplineSet
-1 0 m 1,0,-1
 511 0 l 1,1,-1
 511 512 l 1,2,-1
 -1 512 l 1,3,-1
 -1 0 l 1,0,-1
9 10 m 1,4,-1
 9 502 l 1,5,-1
 501 502 l 1,6,-1
 501 10 l 1,7,-1
 9 10 l 1,4,-1
EndSplineSet
EndChar

StartChar: uni0099
Encoding: 153 153 180
Width: 514
Flags: W
LayerCount: 2
Fore
SplineSet
-1 0 m 1,0,-1
 511 0 l 1,1,-1
 511 512 l 1,2,-1
 -1 512 l 1,3,-1
 -1 0 l 1,0,-1
9 10 m 1,4,-1
 9 502 l 1,5,-1
 501 502 l 1,6,-1
 501 10 l 1,7,-1
 9 10 l 1,4,-1
EndSplineSet
EndChar

StartChar: uni009A
Encoding: 154 154 181
Width: 514
Flags: W
LayerCount: 2
Fore
SplineSet
-1 0 m 1,0,-1
 511 0 l 1,1,-1
 511 512 l 1,2,-1
 -1 512 l 1,3,-1
 -1 0 l 1,0,-1
9 10 m 1,4,-1
 9 502 l 1,5,-1
 501 502 l 1,6,-1
 501 10 l 1,7,-1
 9 10 l 1,4,-1
EndSplineSet
EndChar

StartChar: uni009B
Encoding: 155 155 182
Width: 514
Flags: W
LayerCount: 2
Fore
SplineSet
-1 0 m 1,0,-1
 511 0 l 1,1,-1
 511 512 l 1,2,-1
 -1 512 l 1,3,-1
 -1 0 l 1,0,-1
9 10 m 1,4,-1
 9 502 l 1,5,-1
 501 502 l 1,6,-1
 501 10 l 1,7,-1
 9 10 l 1,4,-1
EndSplineSet
EndChar

StartChar: uni009C
Encoding: 156 156 183
Width: 514
Flags: W
LayerCount: 2
Fore
SplineSet
-1 0 m 1,0,-1
 511 0 l 1,1,-1
 511 512 l 1,2,-1
 -1 512 l 1,3,-1
 -1 0 l 1,0,-1
9 10 m 1,4,-1
 9 502 l 1,5,-1
 501 502 l 1,6,-1
 501 10 l 1,7,-1
 9 10 l 1,4,-1
EndSplineSet
EndChar

StartChar: uni009D
Encoding: 157 157 184
Width: 514
Flags: W
LayerCount: 2
Fore
SplineSet
-1 0 m 1,0,-1
 511 0 l 1,1,-1
 511 512 l 1,2,-1
 -1 512 l 1,3,-1
 -1 0 l 1,0,-1
9 10 m 1,4,-1
 9 502 l 1,5,-1
 501 502 l 1,6,-1
 501 10 l 1,7,-1
 9 10 l 1,4,-1
EndSplineSet
EndChar

StartChar: uni009E
Encoding: 158 158 185
Width: 514
Flags: W
LayerCount: 2
Fore
SplineSet
-1 0 m 1,0,-1
 511 0 l 1,1,-1
 511 512 l 1,2,-1
 -1 512 l 1,3,-1
 -1 0 l 1,0,-1
9 10 m 1,4,-1
 9 502 l 1,5,-1
 501 502 l 1,6,-1
 501 10 l 1,7,-1
 9 10 l 1,4,-1
EndSplineSet
EndChar

StartChar: uni009F
Encoding: 159 159 186
Width: 514
Flags: W
LayerCount: 2
Fore
SplineSet
-1 0 m 1,0,-1
 511 0 l 1,1,-1
 511 512 l 1,2,-1
 -1 512 l 1,3,-1
 -1 0 l 1,0,-1
9 10 m 1,4,-1
 9 502 l 1,5,-1
 501 502 l 1,6,-1
 501 10 l 1,7,-1
 9 10 l 1,4,-1
EndSplineSet
EndChar

StartChar: cent
Encoding: 162 162 187
Width: 514
Flags: W
LayerCount: 2
Fore
SplineSet
-1 0 m 1,0,-1
 511 0 l 1,1,-1
 511 512 l 1,2,-1
 -1 512 l 1,3,-1
 -1 0 l 1,0,-1
9 10 m 1,4,-1
 9 502 l 1,5,-1
 501 502 l 1,6,-1
 501 10 l 1,7,-1
 9 10 l 1,4,-1
EndSplineSet
EndChar

StartChar: sterling
Encoding: 163 163 188
Width: 514
Flags: W
LayerCount: 2
Fore
SplineSet
-1 0 m 1,0,-1
 511 0 l 1,1,-1
 511 512 l 1,2,-1
 -1 512 l 1,3,-1
 -1 0 l 1,0,-1
9 10 m 1,4,-1
 9 502 l 1,5,-1
 501 502 l 1,6,-1
 501 10 l 1,7,-1
 9 10 l 1,4,-1
EndSplineSet
EndChar

StartChar: currency
Encoding: 164 164 189
Width: 171
Flags: W
LayerCount: 2
Fore
SplineSet
341 720 m 1,0,-1
 283 720 l 1,1,-1
 -170 -19 l 1,2,-1
 -112 -19 l 1,3,-1
 341 720 l 1,0,-1
EndSplineSet
EndChar

StartChar: brokenbar
Encoding: 166 166 190
Width: 514
Flags: W
LayerCount: 2
Fore
SplineSet
-1 0 m 1,0,-1
 511 0 l 1,1,-1
 511 512 l 1,2,-1
 -1 512 l 1,3,-1
 -1 0 l 1,0,-1
9 10 m 1,4,-1
 9 502 l 1,5,-1
 501 502 l 1,6,-1
 501 10 l 1,7,-1
 9 10 l 1,4,-1
EndSplineSet
EndChar

StartChar: dieresis
Encoding: 168 168 191
Width: 514
Flags: W
LayerCount: 2
Fore
SplineSet
-1 0 m 1,0,-1
 511 0 l 1,1,-1
 511 512 l 1,2,-1
 -1 512 l 1,3,-1
 -1 0 l 1,0,-1
9 10 m 1,4,-1
 9 502 l 1,5,-1
 501 502 l 1,6,-1
 501 10 l 1,7,-1
 9 10 l 1,4,-1
EndSplineSet
EndChar

StartChar: uni00AD
Encoding: 173 173 192
Width: 514
Flags: W
LayerCount: 2
Fore
SplineSet
-1 0 m 1,0,-1
 511 0 l 1,1,-1
 511 512 l 1,2,-1
 -1 512 l 1,3,-1
 -1 0 l 1,0,-1
9 10 m 1,4,-1
 9 502 l 1,5,-1
 501 502 l 1,6,-1
 501 10 l 1,7,-1
 9 10 l 1,4,-1
EndSplineSet
EndChar

StartChar: registered
Encoding: 174 174 193
Width: 514
Flags: W
LayerCount: 2
Fore
SplineSet
-1 0 m 1,0,-1
 511 0 l 1,1,-1
 511 512 l 1,2,-1
 -1 512 l 1,3,-1
 -1 0 l 1,0,-1
9 10 m 1,4,-1
 9 502 l 1,5,-1
 501 502 l 1,6,-1
 501 10 l 1,7,-1
 9 10 l 1,4,-1
EndSplineSet
EndChar

StartChar: degree
Encoding: 176 176 194
Width: 409
Flags: W
LayerCount: 2
Fore
SplineSet
205 676 m 256,0,1
 245 676 245 676 275 643.5 c 128,-1,2
 305 611 305 611 305 570 c 256,3,4
 305 529 305 529 275 497 c 128,-1,5
 245 465 245 465 205 465 c 256,6,7
 165 465 165 465 134.5 497 c 128,-1,8
 104 529 104 529 104 570 c 256,9,10
 104 611 104 611 134.5 643.5 c 128,-1,11
 165 676 165 676 205 676 c 256,0,1
354 570 m 256,12,13
 354 633 354 633 311 676.5 c 128,-1,14
 268 720 268 720 205 720 c 256,15,16
 142 720 142 720 98.5 677 c 128,-1,17
 55 634 55 634 55 570 c 256,18,19
 55 507 55 507 98 464 c 128,-1,20
 141 421 141 421 205 421 c 256,21,22
 268 421 268 421 311 464 c 128,-1,23
 354 507 354 507 354 570 c 256,12,13
EndSplineSet
EndChar

StartChar: plusminus
Encoding: 177 177 195
Width: 514
Flags: W
LayerCount: 2
Fore
SplineSet
-1 0 m 1,0,-1
 511 0 l 1,1,-1
 511 512 l 1,2,-1
 -1 512 l 1,3,-1
 -1 0 l 1,0,-1
9 10 m 1,4,-1
 9 502 l 1,5,-1
 501 502 l 1,6,-1
 501 10 l 1,7,-1
 9 10 l 1,4,-1
EndSplineSet
EndChar

StartChar: uni00B2
Encoding: 178 178 196
Width: 340
Flags: W
LayerCount: 2
Fore
SplineSet
81 565 m 1,0,-1
 81 566 l 2,1,2
 82 582 82 582 85 596 c 128,-1,3
 88 610 88 610 97 625 c 128,-1,4
 106 640 106 640 124.5 650 c 128,-1,5
 143 660 143 660 173 660 c 0,6,7
 218 660 218 660 238.5 641.5 c 128,-1,8
 259 623 259 623 259 593 c 0,9,10
 259 556 259 556 241.5 538 c 128,-1,11
 224 520 224 520 179 497 c 2,12,-1
 172 493 l 1,13,-1
 111 459 l 2,14,15
 63 432 63 432 35 391.5 c 128,-1,16
 7 351 7 351 4 288 c 1,17,-1
 331 288 l 1,18,-1
 331 350 l 1,19,-1
 81 350 l 1,20,21
 93 370 93 370 111.5 387 c 128,-1,22
 130 404 130 404 163 422 c 2,23,-1
 209 445 l 2,24,25
 270 476 270 476 300.5 507 c 128,-1,26
 331 538 331 538 331 591 c 0,27,28
 331 649 331 649 288.5 684.5 c 128,-1,29
 246 720 246 720 181 720 c 0,30,31
 156 720 156 720 130 715 c 128,-1,32
 104 710 104 710 78.5 694 c 128,-1,33
 53 678 53 678 36 646 c 128,-1,34
 19 614 19 614 19 565 c 1,35,-1
 81 565 l 1,0,-1
EndSplineSet
EndChar

StartChar: uni00B3
Encoding: 179 179 197
Width: 340
Flags: W
LayerCount: 2
Fore
SplineSet
5 420 m 1,0,1
 9 377 9 377 24.5 345 c 128,-1,2
 40 313 40 313 76 296 c 0,3,4
 115 277 115 277 162 276 c 0,5,6
 248 276 248 276 290.5 316.5 c 128,-1,7
 333 357 333 357 333 416 c 0,8,9
 333 457 333 457 312.5 481 c 128,-1,10
 292 505 292 505 255 515 c 1,11,-1
 255 517 l 1,12,13
 279 523 279 523 297 545.5 c 128,-1,14
 315 568 315 568 315 606 c 0,15,16
 315 656 315 656 276.5 688 c 128,-1,17
 238 720 238 720 171 720 c 0,18,19
 127 720 127 720 97 707.5 c 128,-1,20
 67 695 67 695 49 674 c 128,-1,21
 31 653 31 653 23.5 629 c 128,-1,22
 16 605 16 605 16 579 c 1,23,-1
 79 579 l 1,24,25
 81 614 81 614 98.5 637 c 128,-1,26
 116 660 116 660 162 660 c 0,27,28
 209 660 209 660 226.5 643 c 128,-1,29
 244 626 244 626 244 603 c 0,30,31
 244 565 244 565 221 550 c 128,-1,32
 198 535 198 535 160 535 c 2,33,-1
 132 535 l 1,34,-1
 132 482 l 1,35,-1
 156 482 l 2,36,37
 176 482 176 482 192.5 480.5 c 128,-1,38
 209 479 209 479 225 472 c 128,-1,39
 241 465 241 465 251 449.5 c 128,-1,40
 261 434 261 434 261 409 c 0,41,42
 261 372 261 372 235 354 c 128,-1,43
 209 336 209 336 163 336 c 0,44,45
 135 336 135 336 117.5 343.5 c 128,-1,46
 100 351 100 351 91.5 363.5 c 128,-1,47
 83 376 83 376 79.5 389.5 c 128,-1,48
 76 403 76 403 75 420 c 1,49,-1
 5 420 l 1,0,1
EndSplineSet
EndChar

StartChar: mu
Encoding: 181 181 198
Width: 514
Flags: W
LayerCount: 2
Fore
SplineSet
-1 0 m 1,0,-1
 511 0 l 1,1,-1
 511 512 l 1,2,-1
 -1 512 l 1,3,-1
 -1 0 l 1,0,-1
9 10 m 1,4,-1
 9 502 l 1,5,-1
 501 502 l 1,6,-1
 501 10 l 1,7,-1
 9 10 l 1,4,-1
EndSplineSet
EndChar

StartChar: paragraph
Encoding: 182 182 199
Width: 549
Flags: W
LayerCount: 2
Fore
SplineSet
238 -177 m 1,0,-1
 312 -177 l 1,1,-1
 312 674 l 1,2,-1
 434 674 l 1,3,-1
 434 -177 l 1,4,-1
 509 -177 l 1,5,-1
 509 735 l 1,6,-1
 255 735 l 2,7,8
 143 735 143 735 80.5 687 c 128,-1,9
 18 639 18 639 18 541 c 0,10,11
 18 501 18 501 34 466.5 c 128,-1,12
 50 432 50 432 79.5 406.5 c 128,-1,13
 109 381 109 381 149 366.5 c 128,-1,14
 189 352 189 352 238 352 c 1,15,-1
 238 -177 l 1,0,-1
EndSplineSet
EndChar

StartChar: uni00B9
Encoding: 185 185 200
Width: 340
Flags: W
LayerCount: 2
Fore
SplineSet
27 0 m 1,0,-1
 81 0 l 1,1,2
 81 -17 81 -17 79.5 -33 c 128,-1,3
 78 -49 78 -49 73 -64 c 128,-1,4
 68 -79 68 -79 56.5 -90 c 128,-1,5
 45 -101 45 -101 27 -104 c 1,6,-1
 27 -153 l 1,7,8
 85 -140 85 -140 109 -98 c 128,-1,9
 133 -56 133 -56 133 8 c 2,10,-1
 133 109 l 1,11,-1
 27 109 l 1,12,-1
 27 0 l 1,0,-1
196 0 m 1,13,-1
 250 0 l 1,14,15
 250 -17 250 -17 248.5 -33 c 128,-1,16
 247 -49 247 -49 242 -64 c 128,-1,17
 237 -79 237 -79 225.5 -90 c 128,-1,18
 214 -101 214 -101 196 -104 c 1,19,-1
 196 -153 l 1,20,21
 254 -140 254 -140 278 -98 c 128,-1,22
 302 -56 302 -56 302 8 c 2,23,-1
 302 109 l 1,24,-1
 196 109 l 1,25,-1
 196 0 l 1,13,-1
EndSplineSet
EndChar

StartChar: onequarter
Encoding: 188 188 201
Width: 1024
Flags: W
LayerCount: 2
Fore
SplineSet
224 109 m 1,0,-1
 118 109 l 1,1,-1
 118 0 l 1,2,-1
 224 0 l 1,3,-1
 224 109 l 1,0,-1
565 109 m 1,4,-1
 459 109 l 1,5,-1
 459 0 l 1,6,-1
 565 0 l 1,7,-1
 565 109 l 1,4,-1
906 109 m 1,8,-1
 800 109 l 1,9,-1
 800 0 l 1,10,-1
 906 0 l 1,11,-1
 906 109 l 1,8,-1
EndSplineSet
EndChar

StartChar: onehalf
Encoding: 189 189 202
Width: 1024
Flags: W
LayerCount: 2
Fore
SplineSet
7 552 m 256,0,1
 7 519 7 519 19.5 490 c 128,-1,2
 32 461 32 461 54 439 c 128,-1,3
 76 417 76 417 105 404.5 c 128,-1,4
 134 392 134 392 167 392 c 256,5,6
 200 392 200 392 229 404.5 c 128,-1,7
 258 417 258 417 280 439 c 128,-1,8
 302 461 302 461 314.5 490.5 c 128,-1,9
 327 520 327 520 327 552 c 0,10,11
 327 585 327 585 314.5 614 c 128,-1,12
 302 643 302 643 280 665 c 128,-1,13
 258 687 258 687 229 699.5 c 128,-1,14
 200 712 200 712 167 712 c 0,15,16
 135 712 135 712 105.5 699.5 c 128,-1,17
 76 687 76 687 54 665 c 128,-1,18
 32 643 32 643 19.5 614 c 128,-1,19
 7 585 7 585 7 552 c 256,0,1
72 552 m 256,20,21
 72 591 72 591 99.5 619 c 128,-1,22
 127 647 127 647 167 647 c 0,23,24
 206 647 206 647 234 619.5 c 128,-1,25
 262 592 262 592 262 552 c 0,26,27
 262 513 262 513 234 485 c 128,-1,28
 206 457 206 457 167 457 c 0,29,30
 127 457 127 457 99.5 485 c 128,-1,31
 72 513 72 513 72 552 c 256,20,21
327 153 m 256,32,33
 327 120 327 120 339 90.5 c 128,-1,34
 351 61 351 61 373 39 c 128,-1,35
 395 17 395 17 424.5 5 c 128,-1,36
 454 -7 454 -7 486 -7 c 256,37,38
 519 -7 519 -7 548.5 5 c 128,-1,39
 578 17 578 17 600 39 c 128,-1,40
 622 61 622 61 634 91 c 128,-1,41
 646 121 646 121 646 153 c 0,42,43
 646 186 646 186 634 215 c 128,-1,44
 622 244 622 244 600 266 c 128,-1,45
 578 288 578 288 548.5 300 c 128,-1,46
 519 312 519 312 486 312 c 0,47,48
 454 312 454 312 424.5 300 c 128,-1,49
 395 288 395 288 373 266 c 128,-1,50
 351 244 351 244 339 215 c 128,-1,51
 327 186 327 186 327 153 c 256,32,33
391 153 m 256,52,53
 391 192 391 192 418.5 220 c 128,-1,54
 446 248 446 248 486 248 c 0,55,56
 525 248 525 248 553.5 220.5 c 128,-1,57
 582 193 582 193 582 153 c 0,58,59
 582 114 582 114 553.5 85.5 c 128,-1,60
 525 57 525 57 486 57 c 0,61,62
 446 57 446 57 418.5 85.5 c 128,-1,63
 391 114 391 114 391 153 c 256,52,53
698 153 m 256,64,65
 698 120 698 120 710.5 90.5 c 128,-1,66
 723 61 723 61 745 39 c 128,-1,67
 767 17 767 17 796 5 c 128,-1,68
 825 -7 825 -7 858 -7 c 256,69,70
 891 -7 891 -7 920 5 c 128,-1,71
 949 17 949 17 971 39 c 128,-1,72
 993 61 993 61 1005.5 91 c 128,-1,73
 1018 121 1018 121 1018 153 c 0,74,75
 1018 186 1018 186 1005.5 215 c 128,-1,76
 993 244 993 244 971 266 c 128,-1,77
 949 288 949 288 920 300 c 128,-1,78
 891 312 891 312 858 312 c 0,79,80
 826 312 826 312 796.5 300 c 128,-1,81
 767 288 767 288 745 266 c 128,-1,82
 723 244 723 244 710.5 215 c 128,-1,83
 698 186 698 186 698 153 c 256,64,65
763 153 m 256,84,85
 763 192 763 192 790.5 220 c 128,-1,86
 818 248 818 248 858 248 c 0,87,88
 897 248 897 248 925 220.5 c 128,-1,89
 953 193 953 193 953 153 c 0,90,91
 953 114 953 114 925 85.5 c 128,-1,92
 897 57 897 57 858 57 c 0,93,94
 818 57 818 57 790.5 85.5 c 128,-1,95
 763 114 763 114 763 153 c 256,84,85
557 720 m 1,96,-1
 501 720 l 1,97,-1
 94 -19 l 1,98,-1
 151 -19 l 1,99,-1
 557 720 l 1,96,-1
EndSplineSet
EndChar

StartChar: threequarters
Encoding: 190 190 203
Width: 514
Flags: W
LayerCount: 2
Fore
SplineSet
-1 0 m 1,0,-1
 511 0 l 1,1,-1
 511 512 l 1,2,-1
 -1 512 l 1,3,-1
 -1 0 l 1,0,-1
9 10 m 1,4,-1
 9 502 l 1,5,-1
 501 502 l 1,6,-1
 501 10 l 1,7,-1
 9 10 l 1,4,-1
EndSplineSet
EndChar

StartChar: Acircumflex
Encoding: 194 194 204
Width: 771
Flags: W
LayerCount: 2
Fore
SplineSet
394 586 m 1,0,-1
 246 586 l 1,1,-1
 150 675 l 1,2,-1
 150 732 l 1,3,-1
 186 732 l 1,4,-1
 186 698 l 1,5,-1
 214 671 l 1,6,-1
 338 671 l 1,7,-1
 369 701 l 1,8,-1
 369 732 l 1,9,-1
 394 732 l 1,10,-1
 420 732 l 1,11,-1
 420 701 l 1,12,-1
 451 671 l 1,13,-1
 574 671 l 1,14,-1
 602 698 l 1,15,-1
 602 732 l 1,16,-1
 639 732 l 1,17,-1
 639 675 l 1,18,-1
 543 586 l 1,19,-1
 394 586 l 1,0,-1
394 291 m 1,20,-1
 259 291 l 1,21,-1
 258 517 l 1,22,-1
 394 517 l 1,23,-1
 530 517 l 1,24,-1
 529 291 l 1,25,-1
 394 291 l 1,20,-1
394 801 m 1,26,-1
 318 801 l 1,27,-1
 295 777 l 1,28,-1
 295 742 l 1,29,-1
 256 742 l 1,30,-1
 256 777 l 1,31,-1
 232 801 l 1,32,-1
 106 801 l 1,33,-1
 68 762 l 1,34,-1
 68 639 l 1,35,-1
 189 534 l 1,36,-1
 189 260 l 1,37,-1
 48 120 l 1,38,-1
 48 26 l 1,39,-1
 75 -1 l 1,40,-1
 394 -1 l 1,41,-1
 714 -1 l 1,42,-1
 740 26 l 1,43,-1
 740 120 l 1,44,-1
 599 260 l 1,45,-1
 599 534 l 1,46,-1
 721 639 l 1,47,-1
 721 762 l 1,48,-1
 682 801 l 1,49,-1
 556 801 l 1,50,-1
 532 777 l 1,51,-1
 532 742 l 1,52,-1
 494 742 l 1,53,-1
 494 777 l 1,54,-1
 470 801 l 1,55,-1
 394 801 l 1,26,-1
394 100 m 1,56,-1
 631 100 l 1,57,-1
 643 90 l 1,58,-1
 643 63 l 1,59,-1
 394 63 l 1,60,-1
 145 63 l 1,61,-1
 145 90 l 1,62,-1
 158 100 l 1,63,-1
 394 100 l 1,56,-1
394 167 m 1,64,-1
 226 167 l 1,65,-1
 226 191 l 1,66,-1
 259 224 l 1,67,-1
 394 224 l 1,68,-1
 529 224 l 1,69,-1
 562 191 l 1,70,-1
 562 167 l 1,71,-1
 394 167 l 1,64,-1
EndSplineSet
EndChar

StartChar: Atilde
Encoding: 195 195 205
Width: 944
Flags: W
LayerCount: 2
Fore
SplineSet
486 55 m 1,0,1
 524 17 524 17 578.5 3.5 c 128,-1,2
 633 -10 633 -10 715 -17 c 0,3,4
 773 -22 773 -22 801 -29.5 c 128,-1,5
 829 -37 829 -37 835 -56 c 1,6,7
 859 -46 859 -46 872 -31 c 128,-1,8
 885 -16 885 -16 902 13 c 0,9,10
 918 41 918 41 930 55 c 1,11,12
 902 107 902 107 876.5 124.5 c 128,-1,13
 851 142 851 142 816 142 c 0,14,15
 806 142 806 142 782 141 c 0,16,17
 751 138 751 138 736 138 c 0,18,19
 706 138 706 138 673.5 144.5 c 128,-1,20
 641 151 641 151 604 165 c 1,21,22
 657 171 657 171 679 186 c 128,-1,23
 701 201 701 201 701 222 c 0,24,25
 701 237 701 237 687 272 c 256,26,27
 673 307 673 307 673 324 c 0,28,29
 673 332 673 332 676 339 c 0,30,31
 718 381 718 381 737 421.5 c 128,-1,32
 756 462 756 462 756 501 c 0,33,34
 756 549 756 549 730.5 591.5 c 128,-1,35
 705 634 705 634 668.5 665 c 128,-1,36
 632 696 632 696 598 715 c 128,-1,37
 564 734 564 734 552 736 c 1,38,39
 582 772 582 772 582 813 c 0,40,41
 582 849 582 849 557 873 c 128,-1,42
 532 897 532 897 486 897 c 256,43,44
 440 897 440 897 415.5 873 c 128,-1,45
 391 849 391 849 391 813 c 0,46,47
 391 772 391 772 421 736 c 1,48,49
 409 734 409 734 375 715 c 128,-1,50
 341 696 341 696 304.5 665.5 c 128,-1,51
 268 635 268 635 242.5 592 c 128,-1,52
 217 549 217 549 217 501 c 0,53,54
 217 462 217 462 236 421.5 c 128,-1,55
 255 381 255 381 297 339 c 0,56,57
 300 332 300 332 300 324 c 0,58,59
 300 308 300 308 286 272 c 0,60,61
 273 237 273 237 272 222 c 0,62,63
 272 200 272 200 293 185.5 c 128,-1,64
 314 171 314 171 369 165 c 1,65,66
 332 151 332 151 299 144.5 c 128,-1,67
 266 138 266 138 237 138 c 0,68,69
 222 138 222 138 190 141 c 0,70,71
 166 142 166 142 157 142 c 0,72,73
 122 142 122 142 96.5 125 c 128,-1,74
 71 108 71 108 43 55 c 1,75,76
 54 41 54 41 71 13 c 0,77,78
 88 -16 88 -16 102 -31 c 128,-1,79
 116 -46 116 -46 138 -56 c 1,80,81
 143 -37 143 -37 171 -30 c 128,-1,82
 199 -23 199 -23 258 -17 c 0,83,84
 340 -10 340 -10 380 0 c 0,85,86
 413 8 413 8 439.5 21.5 c 128,-1,87
 466 35 466 35 486 55 c 1,0,1
486 141 m 1,88,89
 468 115 468 115 436 97 c 128,-1,90
 404 79 404 79 366.5 68 c 128,-1,91
 329 57 329 57 290.5 53 c 128,-1,92
 252 49 252 49 219 49 c 0,93,94
 192 49 192 49 175 51.5 c 128,-1,95
 158 54 158 54 158 58 c 2,96,97
 158 59 l 0,98,99
 159 60 l 2,100,101
 159 64 159 64 169 66 c 128,-1,102
 179 68 179 68 207 70 c 0,103,104
 247 72 247 72 279 75.5 c 128,-1,105
 311 79 311 79 349 89.5 c 128,-1,106
 387 100 387 100 423.5 122.5 c 128,-1,107
 460 145 460 145 486 181 c 1,108,109
 513 145 513 145 549.5 122.5 c 128,-1,110
 586 100 586 100 624 89.5 c 128,-1,111
 662 79 662 79 694 75.5 c 128,-1,112
 726 72 726 72 767 70 c 0,113,114
 792 69 792 69 803 67 c 128,-1,115
 814 65 814 65 814 60 c 2,116,117
 815 59 l 0,118,119
 815 58 l 2,120,121
 815 54 815 54 798 51.5 c 128,-1,122
 781 49 781 49 754 49 c 0,123,124
 721 49 721 49 682.5 53.5 c 128,-1,125
 644 58 644 58 606 68.5 c 128,-1,126
 568 79 568 79 536 97 c 128,-1,127
 504 115 504 115 486 141 c 1,88,89
486 455 m 1,128,-1
 512 455 l 1,129,-1
 512 517 l 1,130,-1
 558 517 l 1,131,-1
 558 569 l 1,132,-1
 512 569 l 1,133,-1
 512 629 l 1,134,-1
 486 629 l 1,135,-1
 461 629 l 1,136,-1
 461 569 l 1,137,-1
 415 569 l 1,138,-1
 415 517 l 1,139,-1
 461 517 l 1,140,-1
 461 455 l 1,141,-1
 486 455 l 1,128,-1
486 398 m 0,142,143
 445 396 445 396 421 396 c 0,144,145
 384 396 384 396 362 401.5 c 128,-1,146
 340 407 340 407 327 419 c 128,-1,147
 314 431 314 431 308.5 452 c 128,-1,148
 303 473 303 473 300 510 c 0,149,150
 298 516 298 516 298 522 c 0,151,152
 298 546 298 546 319.5 576 c 128,-1,153
 341 606 341 606 373.5 634 c 128,-1,154
 406 662 406 662 437.5 680 c 128,-1,155
 469 698 469 698 486 700 c 0,156,157
 503 698 503 698 535 680 c 128,-1,158
 567 662 567 662 599.5 634 c 128,-1,159
 632 606 632 606 653.5 576 c 128,-1,160
 675 546 675 546 675 522 c 0,161,162
 675 516 675 516 673 510 c 0,163,164
 671 474 671 474 664.5 452.5 c 128,-1,165
 658 431 658 431 645.5 419 c 128,-1,166
 633 407 633 407 611 401.5 c 128,-1,167
 589 396 589 396 552 396 c 0,168,169
 527 396 527 396 486 398 c 0,142,143
486 257 m 0,170,171
 526 257 526 257 547.5 252 c 128,-1,172
 569 247 569 247 569 231 c 0,173,174
 569 215 569 215 550 210.5 c 128,-1,175
 531 206 531 206 486 206 c 0,176,177
 445 206 445 206 423.5 211 c 128,-1,178
 402 216 402 216 402 231 c 0,179,180
 402 247 402 247 420.5 252 c 128,-1,181
 439 257 439 257 486 257 c 0,170,171
486 350 m 1,182,-1
 497 350 l 2,183,184
 563 347 563 347 593 341 c 128,-1,185
 623 335 623 335 623 315 c 0,186,187
 623 300 623 300 593.5 296 c 128,-1,188
 564 292 564 292 486 292 c 256,189,190
 408 292 408 292 379 296 c 128,-1,191
 350 300 350 300 350 315 c 0,192,193
 350 333 350 333 382.5 339.5 c 128,-1,194
 415 346 415 346 484 350 c 1,195,-1
 486 350 l 1,182,-1
486 841 m 256,196,197
 500 841 500 841 510.5 831 c 128,-1,198
 521 821 521 821 521 808 c 256,199,200
 521 795 521 795 511 784.5 c 128,-1,201
 501 774 501 774 486 774 c 256,202,203
 472 774 472 774 461.5 784.5 c 128,-1,204
 451 795 451 795 451 808 c 256,205,206
 451 821 451 821 461.5 831 c 128,-1,207
 472 841 472 841 486 841 c 256,196,197
EndSplineSet
EndChar

StartChar: Adieresis
Encoding: 196 196 206
Width: 873
Flags: W
LayerCount: 2
Fore
SplineSet
837 -3 m 1,0,1
 842 56 842 56 842 113 c 0,2,3
 842 261 842 261 807 373.5 c 128,-1,4
 772 486 772 486 718 557.5 c 128,-1,5
 664 629 664 629 605.5 663.5 c 128,-1,6
 547 698 547 698 501 698 c 0,7,8
 488 698 488 698 477 695 c 1,9,10
 462 747 462 747 448.5 768.5 c 128,-1,11
 435 790 435 790 401 807 c 0,12,13
 394 807 394 807 376.5 790.5 c 128,-1,14
 359 774 359 774 340 741 c 1,15,16
 340 743 340 743 325.5 751 c 128,-1,17
 311 759 311 759 288 767.5 c 128,-1,18
 265 776 265 776 238.5 781.5 c 128,-1,19
 212 787 212 787 187 787 c 1,20,-1
 187 786 l 1,21,22
 192 756 192 756 194 740 c 128,-1,23
 196 724 196 724 196 711 c 0,24,25
 196 696 196 696 194 678 c 0,26,27
 181 632 181 632 161 587 c 128,-1,28
 141 542 141 542 106 472 c 0,29,30
 69 397 69 397 50 351 c 128,-1,31
 31 305 31 305 24 262 c 1,32,33
 36 237 36 237 47.5 221.5 c 128,-1,34
 59 206 59 206 73 197 c 128,-1,35
 87 188 87 188 102.5 182.5 c 128,-1,36
 118 177 118 177 144 169 c 0,37,38
 187 157 187 157 218 145 c 1,39,40
 229 146 229 146 237.5 156 c 128,-1,41
 246 166 246 166 258 189 c 0,42,43
 285 235 285 235 318 270.5 c 128,-1,44
 351 306 351 306 417 334 c 1,45,46
 413 294 413 294 396.5 265.5 c 128,-1,47
 380 237 380 237 348 198 c 0,48,49
 309 149 309 149 287.5 107.5 c 128,-1,50
 266 66 266 66 262 -1 c 1,51,-1
 528 -2 l 1,52,-1
 837 -3 l 1,0,1
237 556 m 0,53,54
 236 556 236 556 233 556 c 0,55,56
 231 555 231 555 230 555 c 0,57,58
 217 555 217 555 217 567 c 0,59,60
 217 576 217 576 226 586 c 1,61,62
 278 592 278 592 310 616.5 c 128,-1,63
 342 641 342 641 370 676 c 0,64,65
 388 700 388 700 394 699 c 0,66,67
 399 697 399 697 402.5 690 c 128,-1,68
 406 683 406 683 410 666 c 0,69,70
 416 641 416 641 423 627 c 128,-1,71
 430 613 430 613 443 613 c 0,72,73
 444 613 444 613 446 613 c 0,74,75
 448 612 448 612 449 612 c 2,76,77
 455 612 455 612 465 622 c 0,78,79
 473 629 473 629 479.5 633 c 128,-1,80
 486 637 486 637 497 637 c 0,81,82
 506 637 506 637 517 633 c 1,83,84
 536 633 536 633 578.5 601.5 c 128,-1,85
 621 570 621 570 666 508.5 c 128,-1,86
 711 447 711 447 741.5 355 c 128,-1,87
 772 263 772 263 772 146 c 0,88,89
 772 102 772 102 767 58 c 1,90,-1
 350 58 l 1,91,92
 359 85 359 85 371 107 c 128,-1,93
 383 129 383 129 402 160 c 0,94,95
 426 196 426 196 441.5 224 c 128,-1,96
 457 252 457 252 470.5 293.5 c 128,-1,97
 484 335 484 335 492.5 392 c 128,-1,98
 501 449 501 449 501 524 c 1,99,100
 497 528 497 528 493 528 c 0,101,102
 482 528 482 528 467.5 511 c 128,-1,103
 453 494 453 494 427 456 c 0,104,105
 410 429 410 429 397.5 412 c 128,-1,106
 385 395 385 395 373 383 c 0,107,108
 360 369 360 369 326 352 c 0,109,110
 294 338 294 338 273.5 321 c 128,-1,111
 253 304 253 304 234 269 c 1,112,113
 226 275 226 275 215 275 c 256,114,115
 204 275 204 275 191.5 270.5 c 128,-1,116
 179 266 179 266 161 257 c 0,117,118
 138 246 138 246 132 246 c 0,119,120
 125 246 125 246 125 254 c 0,121,122
 125 255 125 255 126 258 c 0,123,124
 126 261 126 261 126 262 c 0,125,126
 174 289 174 289 174 318 c 0,127,128
 174 347 174 347 129 362 c 1,129,130
 140 376 140 376 160 420 c 0,131,132
 174 450 174 450 183.5 465 c 128,-1,133
 193 480 193 480 202 484 c 0,134,135
 205 486 205 486 208 486 c 0,136,137
 213 486 213 486 225 482 c 0,138,139
 242 476 242 476 253 476 c 0,140,141
 267 476 267 476 279.5 486 c 128,-1,142
 292 496 292 496 303 518 c 0,143,144
 309 535 309 535 309 550 c 0,145,146
 309 562 309 562 305 574 c 1,147,148
 293 580 293 580 282 581 c 0,149,150
 272 581 272 581 264 575.5 c 128,-1,151
 256 570 256 570 249 562 c 0,152,153
 242 555 242 555 240 555 c 256,154,155
 238 555 238 555 237 556 c 0,53,54
EndSplineSet
EndChar

StartChar: Aring
Encoding: 197 197 207
Width: 656
Flags: W
LayerCount: 2
Fore
SplineSet
632 4 m 1,0,1
 634 37 634 37 634 62 c 0,2,3
 634 112 634 112 626 155 c 128,-1,4
 618 198 618 198 598.5 236.5 c 128,-1,5
 579 275 579 275 542.5 309 c 128,-1,6
 506 343 506 343 450 371 c 1,7,8
 485 383 485 383 506 417.5 c 128,-1,9
 527 452 527 452 527 493 c 256,10,11
 527 534 527 534 503.5 569 c 128,-1,12
 480 604 480 604 433 624 c 1,13,14
 457 665 457 665 457 701 c 0,15,16
 457 749 457 749 419 778.5 c 128,-1,17
 381 808 381 808 339 808 c 256,18,19
 297 808 297 808 259 779 c 128,-1,20
 221 750 221 750 221 701 c 0,21,22
 221 664 221 664 245 624 c 1,23,24
 198 605 198 605 174.5 569.5 c 128,-1,25
 151 534 151 534 151 493 c 256,26,27
 151 452 151 452 172.5 417.5 c 128,-1,28
 194 383 194 383 228 371 c 1,29,30
 173 344 173 344 136.5 310 c 128,-1,31
 100 276 100 276 80 238.5 c 128,-1,32
 60 201 60 201 52.5 158.5 c 128,-1,33
 45 116 45 116 45 67 c 0,34,35
 45 40 45 40 47 4 c 1,36,-1
 632 4 l 1,0,1
548 77 m 1,37,-1
 124 77 l 1,38,39
 122 97 122 97 122 116 c 0,40,41
 122 154 122 154 132 184 c 128,-1,42
 142 214 142 214 159.5 235.5 c 128,-1,43
 177 257 177 257 195.5 271.5 c 128,-1,44
 214 286 214 286 242 304 c 0,45,46
 276 327 276 327 291.5 341.5 c 128,-1,47
 307 356 307 356 308 378 c 0,48,49
 308 391 308 391 300 400 c 128,-1,50
 292 409 292 409 274 419 c 0,51,52
 251 433 251 433 239 447 c 128,-1,53
 227 461 227 461 227 487 c 0,54,55
 228 519 228 519 241.5 535.5 c 128,-1,56
 255 552 255 552 281 568 c 0,57,58
 299 579 299 579 308 589 c 128,-1,59
 317 599 317 599 318 615 c 0,60,61
 318 628 318 628 314 638 c 128,-1,62
 310 648 310 648 303 658 c 0,63,64
 294 673 294 673 294 683 c 0,65,66
 294 689 294 689 296 695 c 0,67,68
 296 697 296 697 296 699 c 0,69,70
 295 703 l 1,71,72
 295 721 295 721 308.5 731.5 c 128,-1,73
 322 742 322 742 336 742 c 256,74,75
 350 742 350 742 363.5 732.5 c 128,-1,76
 377 723 377 723 377 703 c 1,77,-1
 376 699 l 2,78,79
 376 697 376 697 376 695 c 0,80,81
 378 688 378 688 378 682 c 0,82,83
 378 673 378 673 369 658 c 0,84,85
 362 647 362 647 358 638.5 c 128,-1,86
 354 630 354 630 353 615 c 0,87,88
 354 599 354 599 363 590 c 128,-1,89
 372 581 372 581 391 568 c 0,90,91
 417 552 417 552 430 535.5 c 128,-1,92
 443 519 443 519 444 487 c 0,93,94
 444 460 444 460 432 446.5 c 128,-1,95
 420 433 420 433 397 419 c 0,96,97
 380 409 380 409 372 400 c 128,-1,98
 364 391 364 391 364 378 c 0,99,100
 366 356 366 356 381.5 341.5 c 128,-1,101
 397 327 397 327 430 304 c 0,102,103
 457 287 457 287 476.5 272 c 128,-1,104
 496 257 496 257 512.5 235.5 c 128,-1,105
 529 214 529 214 540 184.5 c 128,-1,106
 551 155 551 155 551 116 c 0,107,108
 551 97 551 97 548 77 c 1,37,-1
EndSplineSet
EndChar

StartChar: AE
Encoding: 198 198 208
Width: 879
Flags: W
LayerCount: 2
Fore
SplineSet
106 474 m 0,0,1
 106 451 106 451 119.5 424.5 c 128,-1,2
 133 398 133 398 153 373.5 c 128,-1,3
 173 349 173 349 194.5 331 c 128,-1,4
 216 313 216 313 230 305 c 0,5,6
 235 304 235 304 243 303 c 0,7,8
 262 299 262 299 273 299 c 0,9,10
 275 299 275 299 283 299 c 0,11,12
 293 300 293 300 300 300 c 0,13,14
 308 301 308 301 317 301 c 0,15,16
 345 302 345 302 357.5 308 c 128,-1,17
 370 314 370 314 370 336 c 0,18,19
 369 392 369 392 351.5 433.5 c 128,-1,20
 334 475 334 475 308.5 501 c 128,-1,21
 283 527 283 527 254 540 c 128,-1,22
 225 553 225 553 200 553 c 0,23,24
 157 553 157 553 131.5 530.5 c 128,-1,25
 106 508 106 508 106 474 c 0,0,1
720 91 m 1,26,27
 720 141 720 141 727 180 c 128,-1,28
 734 219 734 219 746 247 c 128,-1,29
 758 275 758 275 770.5 296 c 128,-1,30
 783 317 783 317 803 342 c 0,31,32
 831 379 831 379 843.5 405.5 c 128,-1,33
 856 432 856 432 856 471 c 0,34,35
 856 508 856 508 841.5 538 c 128,-1,36
 827 568 827 568 802.5 590 c 128,-1,37
 778 612 778 612 747.5 624 c 128,-1,38
 717 636 717 636 686 636 c 0,39,40
 638 635 638 635 606 619 c 128,-1,41
 574 603 574 603 552 583 c 1,42,43
 551 594 551 594 550 613 c 0,44,45
 549 650 549 650 540 670 c 0,46,47
 532 684 532 684 517 700 c 128,-1,48
 502 716 502 716 475 734 c 1,49,-1
 475 766 l 1,50,-1
 530 800 l 1,51,-1
 530 849 l 1,52,-1
 481 849 l 1,53,-1
 463 901 l 1,54,-1
 442 901 l 1,55,-1
 418 901 l 1,56,-1
 400 849 l 1,57,-1
 350 849 l 1,58,-1
 350 800 l 1,59,-1
 406 766 l 1,60,-1
 406 734 l 1,61,62
 357 699 357 699 344.5 674.5 c 128,-1,63
 332 650 332 650 332 612 c 0,64,65
 331 592 331 592 330 583 c 1,66,-1
 330 583 l 1,67,68
 305 605 305 605 274 620 c 128,-1,69
 243 635 243 635 195 636 c 0,70,71
 164 636 164 636 133.5 624 c 128,-1,72
 103 612 103 612 78 590 c 128,-1,73
 53 568 53 568 39 537.5 c 128,-1,74
 25 507 25 507 25 471 c 0,75,76
 25 432 25 432 37.5 405.5 c 128,-1,77
 50 379 50 379 78 343 c 0,78,79
 98 315 98 315 110.5 295.5 c 128,-1,80
 123 276 123 276 135 247.5 c 128,-1,81
 147 219 147 219 154.5 179.5 c 128,-1,82
 162 140 162 140 162 89 c 1,83,84
 166 42 166 42 233.5 19.5 c 128,-1,85
 301 -3 301 -3 440 -3 c 256,86,87
 579 -3 579 -3 647.5 19.5 c 128,-1,88
 716 42 716 42 720 91 c 1,26,27
441 161 m 256,89,90
 445 161 445 161 456 161 c 0,91,92
 467 162 467 162 474 162 c 0,93,94
 501 162 501 162 530 159.5 c 128,-1,95
 559 157 559 157 584 152.5 c 128,-1,96
 609 148 609 148 625.5 142.5 c 128,-1,97
 642 137 642 137 642 130 c 0,98,99
 642 127 642 127 639 125 c 2,100,101
 640 122 l 0,102,103
 640 120 640 120 640 119 c 0,104,105
 640 107 640 107 609 106 c 0,106,107
 593 106 593 106 546 112 c 0,108,109
 476 119 476 119 440 119 c 256,110,111
 404 119 404 119 335 112 c 0,112,113
 288 107 288 107 271 106 c 0,114,115
 240 106 240 106 241 119 c 0,116,117
 241 120 241 120 242 122 c 0,118,119
 242 125 l 2,120,121
 239 128 239 128 239 130 c 0,122,123
 239 137 239 137 254.5 142.5 c 128,-1,124
 270 148 270 148 297 153 c 128,-1,125
 324 158 324 158 352.5 160 c 128,-1,126
 381 162 381 162 408 162 c 0,127,128
 415 162 415 162 427 161 c 0,129,130
 437 161 437 161 441 161 c 256,89,90
772 474 m 0,131,132
 772 508 772 508 747 530.5 c 128,-1,133
 722 553 722 553 679 553 c 0,134,135
 653 553 653 553 624.5 540 c 128,-1,136
 596 527 596 527 570.5 501 c 128,-1,137
 545 475 545 475 527.5 433.5 c 128,-1,138
 510 392 510 392 509 336 c 0,139,140
 509 314 509 314 521.5 308 c 128,-1,141
 534 302 534 302 561 301 c 0,142,143
 570 301 570 301 579 300 c 0,144,145
 586 300 586 300 596 299 c 0,146,147
 603 299 603 299 605 299 c 0,148,149
 616 299 616 299 636 303 c 0,150,151
 643 304 643 304 648 305 c 0,152,153
 662 312 662 312 684 330.5 c 128,-1,154
 706 349 706 349 725.5 373.5 c 128,-1,155
 745 398 745 398 758.5 424.5 c 128,-1,156
 772 451 772 451 772 474 c 0,131,132
476 340 m 0,157,158
 476 400 476 400 497.5 448 c 128,-1,159
 519 496 519 496 552 526.5 c 128,-1,160
 585 557 585 557 619.5 572.5 c 128,-1,161
 654 588 654 588 681 588 c 0,162,163
 735 588 735 588 769 558.5 c 128,-1,164
 803 529 803 529 803 473 c 0,165,166
 803 451 803 451 789 422 c 128,-1,167
 775 393 775 393 754.5 364.5 c 128,-1,168
 734 336 734 336 714.5 313.5 c 128,-1,169
 695 291 695 291 685 283 c 0,170,171
 672 271 672 271 660 268 c 128,-1,172
 648 265 648 265 616 265 c 0,173,174
 556 265 556 265 439 286 c 1,175,176
 322 266 322 266 262 265 c 0,177,178
 230 265 230 265 219 267.5 c 128,-1,179
 208 270 208 270 194 283 c 0,180,181
 184 291 184 291 164 313.5 c 128,-1,182
 144 336 144 336 123.5 364.5 c 128,-1,183
 103 393 103 393 89.5 422.5 c 128,-1,184
 76 452 76 452 76 473 c 0,185,186
 76 529 76 529 109.5 558.5 c 128,-1,187
 143 588 143 588 198 588 c 0,188,189
 225 588 225 588 259.5 572.5 c 128,-1,190
 294 557 294 557 326.5 526.5 c 128,-1,191
 359 496 359 496 380.5 448 c 128,-1,192
 402 400 402 400 402 340 c 0,193,194
 403 326 403 326 413.5 321 c 128,-1,195
 424 316 424 316 441 316 c 0,196,197
 455 316 455 316 465.5 322.5 c 128,-1,198
 476 329 476 329 476 340 c 0,157,158
EndSplineSet
EndChar

StartChar: Ccedilla
Encoding: 199 199 209
Width: 998
Flags: W
LayerCount: 2
Fore
SplineSet
257 315 m 0,0,1
 257 323 257 323 277.5 329.5 c 128,-1,2
 298 336 298 336 333 340.5 c 128,-1,3
 368 345 368 345 411 347 c 128,-1,4
 454 349 454 349 503 349 c 0,5,6
 551 349 551 349 594.5 347 c 128,-1,7
 638 345 638 345 672.5 341 c 128,-1,8
 707 337 707 337 727.5 330.5 c 128,-1,9
 748 324 748 324 748 315 c 0,10,11
 748 314 748 314 748 312 c 0,12,13
 749 307 749 307 749 305 c 0,14,15
 749 296 749 296 741.5 290.5 c 128,-1,16
 734 285 734 285 715 285 c 0,17,18
 701 285 701 285 680 288 c 0,19,20
 604 292 604 292 570 293 c 128,-1,21
 536 294 536 294 505 294 c 0,22,23
 475 294 475 294 439.5 293 c 128,-1,24
 404 292 404 292 326 288 c 0,25,26
 306 285 306 285 290 285 c 0,27,28
 271 285 271 285 263.5 290.5 c 128,-1,29
 256 296 256 296 256 304 c 0,30,31
 256 306 256 306 257 311 c 0,32,33
 257 314 257 314 257 315 c 0,0,1
503 841 m 256,34,35
 516 841 516 841 526 830.5 c 128,-1,36
 536 820 536 820 536 807 c 0,37,38
 536 793 536 793 526 782.5 c 128,-1,39
 516 772 516 772 503 772 c 256,40,41
 490 772 490 772 479.5 782.5 c 128,-1,42
 469 793 469 793 469 807 c 0,43,44
 469 820 469 820 479.5 830.5 c 128,-1,45
 490 841 490 841 503 841 c 256,34,35
503 881 m 0,46,47
 471 881 471 881 448.5 858.5 c 128,-1,48
 426 836 426 836 426 804 c 0,49,50
 426 795 426 795 434 776 c 0,51,52
 444 754 444 754 450 732.5 c 128,-1,53
 456 711 456 711 456 673 c 0,54,55
 456 636 456 636 448.5 587.5 c 128,-1,56
 441 539 441 539 426 473 c 1,57,58
 385 560 385 560 368.5 616.5 c 128,-1,59
 352 673 352 673 352 708 c 0,60,61
 352 727 352 727 357 751 c 0,62,63
 360 762 360 762 360 767 c 0,64,65
 360 799 360 799 337.5 821.5 c 128,-1,66
 315 844 315 844 284 844 c 256,67,68
 252 844 252 844 229.5 821.5 c 128,-1,69
 207 799 207 799 207 767 c 0,70,71
 207 742 207 742 212.5 732 c 128,-1,72
 218 722 218 722 231 713 c 0,73,74
 249 699 249 699 259 675.5 c 128,-1,75
 269 652 269 652 269 591 c 0,76,77
 269 545 269 545 262 475 c 1,78,79
 212 525 212 525 193.5 561 c 128,-1,80
 175 597 175 597 175 625 c 0,81,82
 175 636 175 636 178 655 c 0,83,84
 181 670 181 670 181 678 c 0,85,86
 181 710 181 710 158.5 732.5 c 128,-1,87
 136 755 136 755 104 755 c 256,88,89
 72 755 72 755 50 732.5 c 128,-1,90
 28 710 28 710 28 678 c 0,91,92
 29 652 29 652 44.5 630 c 128,-1,93
 60 608 60 608 91 594 c 1,94,95
 93 549 93 549 102.5 504 c 128,-1,96
 112 459 112 459 130 385 c 0,97,98
 134 373 134 373 140 346 c 0,99,100
 141 332 141 332 152 317.5 c 128,-1,101
 163 303 163 303 184 281 c 0,102,103
 207 256 207 256 219 239.5 c 128,-1,104
 231 223 231 223 239 204 c 0,105,106
 242 196 242 196 242 188 c 0,107,108
 242 173 242 173 226 144 c 0,109,110
 216 122 216 122 210.5 106.5 c 128,-1,111
 205 91 205 91 205 71 c 0,112,113
 205 69 205 69 205 61 c 0,114,115
 206 55 206 55 206 51 c 0,116,117
 206 50 206 50 206 49 c 0,118,119
 206 47 l 2,120,121
 206 29 206 29 247.5 17.5 c 128,-1,122
 289 6 289 6 345 1 c 128,-1,123
 401 -4 401 -4 442 -5 c 128,-1,124
 483 -6 483 -6 502 -6 c 256,125,126
 520 -6 520 -6 562 -5 c 128,-1,127
 604 -4 604 -4 659 1 c 128,-1,128
 714 6 714 6 756.5 17.5 c 128,-1,129
 799 29 799 29 799 47 c 1,130,131
 798 49 l 0,132,133
 798 50 798 50 798 51 c 0,134,135
 798 55 798 55 799 61 c 0,136,137
 799 68 799 68 799 71 c 0,138,139
 799 91 799 91 793 107.5 c 128,-1,140
 787 124 787 124 777 144 c 0,141,142
 763 173 763 173 763 188 c 0,143,144
 763 195 763 195 765 204 c 0,145,146
 772 223 772 223 785 240 c 128,-1,147
 798 257 798 257 820 281 c 0,148,149
 840 304 840 304 851 318 c 128,-1,150
 862 332 862 332 863 346 c 0,151,152
 869 373 869 373 873 385 c 0,153,154
 891 459 891 459 900.5 503.5 c 128,-1,155
 910 548 910 548 912 594 c 1,156,157
 943 608 943 608 959 630 c 128,-1,158
 975 652 975 652 976 678 c 0,159,160
 976 710 976 710 953.5 732.5 c 128,-1,161
 931 755 931 755 899 755 c 256,162,163
 867 755 867 755 844.5 732.5 c 128,-1,164
 822 710 822 710 822 678 c 0,165,166
 822 671 822 671 825 655 c 0,167,168
 829 636 829 636 829 625 c 0,169,170
 829 597 829 597 810.5 561 c 128,-1,171
 792 525 792 525 741 475 c 1,172,173
 734 545 734 545 734 591 c 0,174,175
 734 651 734 651 744 674 c 128,-1,176
 754 697 754 697 772 712 c 0,177,178
 785 722 785 722 791 732 c 128,-1,179
 797 742 797 742 797 767 c 0,180,181
 797 799 797 799 774.5 821.5 c 128,-1,182
 752 844 752 844 720 844 c 256,183,184
 688 844 688 844 665.5 821.5 c 128,-1,185
 643 799 643 799 643 767 c 0,186,187
 643 762 643 762 646 751 c 0,188,189
 651 727 651 727 651 708 c 0,190,191
 651 673 651 673 635.5 616.5 c 128,-1,192
 620 560 620 560 578 473 c 1,193,194
 563 539 563 539 555.5 587.5 c 128,-1,195
 548 636 548 636 548 672 c 0,196,197
 548 710 548 710 553.5 732.5 c 128,-1,198
 559 755 559 755 569 775 c 0,199,200
 577 793 577 793 578 804 c 0,201,202
 578 836 578 836 555.5 858.5 c 128,-1,203
 533 881 533 881 503 881 c 0,46,47
899 712 m 256,204,205
 912 712 912 712 922.5 701.5 c 128,-1,206
 933 691 933 691 933 678 c 0,207,208
 933 664 933 664 923 653.5 c 128,-1,209
 913 643 913 643 899 643 c 0,210,211
 886 643 886 643 876 653.5 c 128,-1,212
 866 664 866 664 866 678 c 0,213,214
 866 691 866 691 876 701.5 c 128,-1,215
 886 712 886 712 899 712 c 256,204,205
720 799 m 256,216,217
 733 799 733 799 743.5 788.5 c 128,-1,218
 754 778 754 778 754 765 c 0,219,220
 754 751 754 751 744 740.5 c 128,-1,221
 734 730 734 730 720 730 c 0,222,223
 707 730 707 730 697 740.5 c 128,-1,224
 687 751 687 751 687 765 c 0,225,226
 687 778 687 778 697 788.5 c 128,-1,227
 707 799 707 799 720 799 c 256,216,217
284 799 m 256,228,229
 297 799 297 799 306.5 788.5 c 128,-1,230
 316 778 316 778 316 765 c 0,231,232
 316 751 316 751 306.5 740.5 c 128,-1,233
 297 730 297 730 284 730 c 256,234,235
 271 730 271 730 260.5 740.5 c 128,-1,236
 250 751 250 751 250 765 c 0,237,238
 250 778 250 778 260.5 788.5 c 128,-1,239
 271 799 271 799 284 799 c 256,228,229
104 712 m 256,240,241
 117 712 117 712 127 701.5 c 128,-1,242
 137 691 137 691 137 678 c 0,243,244
 137 664 137 664 127.5 653.5 c 128,-1,245
 118 643 118 643 104 643 c 256,246,247
 91 643 91 643 81 653.5 c 128,-1,248
 71 664 71 664 71 678 c 0,249,250
 71 691 71 691 81 701.5 c 128,-1,251
 91 712 91 712 104 712 c 256,240,241
278 148 m 0,252,253
 278 156 278 156 296 162.5 c 128,-1,254
 314 169 314 169 347 173.5 c 128,-1,255
 380 178 380 178 419 180 c 128,-1,256
 458 182 458 182 503 182 c 0,257,258
 547 182 547 182 587 180 c 128,-1,259
 627 178 627 178 658 174 c 128,-1,260
 689 170 689 170 708 163.5 c 128,-1,261
 727 157 727 157 727 148 c 0,262,263
 727 147 727 147 727 144 c 0,264,265
 728 140 728 140 728 138 c 0,266,267
 728 129 728 129 721.5 123.5 c 128,-1,268
 715 118 715 118 697 118 c 0,269,270
 684 118 684 118 666 121 c 0,271,272
 596 125 596 125 565 126 c 128,-1,273
 534 127 534 127 505 127 c 0,274,275
 477 127 477 127 445 126 c 128,-1,276
 413 125 413 125 341 121 c 1,277,-1
 340 121 l 2,278,279
 322 118 322 118 307 118 c 0,280,281
 290 118 290 118 283 123 c 128,-1,282
 276 128 276 128 276 137 c 0,283,284
 276 140 276 140 278 144 c 0,285,286
 278 147 278 147 278 148 c 0,252,253
EndSplineSet
EndChar

StartChar: Eacute
Encoding: 201 201 210
Width: 971
Flags: W
LayerCount: 2
Fore
SplineSet
508 841 m 256,0,1
 522 841 522 841 532.5 831 c 128,-1,2
 543 821 543 821 543 808 c 256,3,4
 543 795 543 795 532.5 784.5 c 128,-1,5
 522 774 522 774 508 774 c 256,6,7
 494 774 494 774 483 784.5 c 128,-1,8
 472 795 472 795 472 808 c 256,9,10
 472 821 472 821 483 831 c 128,-1,11
 494 841 494 841 508 841 c 256,0,1
508 455 m 1,12,-1
 482 455 l 1,13,-1
 482 517 l 1,14,-1
 436 517 l 1,15,-1
 436 569 l 1,16,-1
 482 569 l 1,17,-1
 482 629 l 1,18,-1
 508 629 l 1,19,-1
 534 629 l 1,20,-1
 534 569 l 1,21,-1
 580 569 l 1,22,-1
 580 517 l 1,23,-1
 534 517 l 1,24,-1
 534 455 l 1,25,-1
 508 455 l 1,12,-1
508 55 m 1,26,27
 546 17 546 17 600 3.5 c 128,-1,28
 654 -10 654 -10 736 -17 c 0,29,30
 794 -22 794 -22 822.5 -29.5 c 128,-1,31
 851 -37 851 -37 856 -56 c 1,32,33
 880 -46 880 -46 893 -31 c 128,-1,34
 906 -16 906 -16 924 13 c 0,35,36
 940 41 940 41 951 55 c 1,37,38
 923 107 923 107 898 124.5 c 128,-1,39
 873 142 873 142 839 142 c 0,40,41
 828 142 828 142 805 140 c 0,42,43
 775 138 775 138 758 138 c 0,44,45
 727 138 727 138 695 144.5 c 128,-1,46
 663 151 663 151 626 165 c 1,47,48
 679 171 679 171 700.5 186 c 128,-1,49
 722 201 722 201 722 222 c 0,50,51
 722 236 722 236 708 274 c 0,52,53
 695 312 695 312 694 326 c 0,54,55
 694 334 694 334 697 339 c 0,56,57
 739 381 739 381 758 421.5 c 128,-1,58
 777 462 777 462 777 501 c 0,59,60
 777 549 777 549 751 591.5 c 128,-1,61
 725 634 725 634 688.5 665 c 128,-1,62
 652 696 652 696 619 715 c 128,-1,63
 586 734 586 734 573 736 c 1,64,65
 603 772 603 772 603 813 c 0,66,67
 603 849 603 849 578.5 873 c 128,-1,68
 554 897 554 897 508 897 c 256,69,70
 462 897 462 897 437.5 873 c 128,-1,71
 413 849 413 849 413 813 c 0,72,73
 413 772 413 772 442 736 c 1,74,75
 430 734 430 734 397 715 c 128,-1,76
 364 696 364 696 327 665 c 128,-1,77
 290 634 290 634 264.5 591.5 c 128,-1,78
 239 549 239 549 239 501 c 0,79,80
 239 462 239 462 257.5 421.5 c 128,-1,81
 276 381 276 381 318 339 c 0,82,83
 321 331 321 331 322 322 c 0,84,85
 322 306 322 306 307 270 c 0,86,87
 294 237 294 237 294 222 c 0,88,89
 294 200 294 200 315.5 185.5 c 128,-1,90
 337 171 337 171 390 165 c 1,91,92
 353 151 353 151 321 144.5 c 128,-1,93
 289 138 289 138 258 138 c 0,94,95
 241 138 241 138 211 140 c 0,96,97
 188 142 188 142 177 142 c 0,98,99
 143 142 143 142 117.5 124 c 128,-1,100
 92 106 92 106 65 55 c 1,101,102
 76 41 76 41 92 13 c 0,103,104
 109 -16 109 -16 123 -31 c 128,-1,105
 137 -46 137 -46 160 -56 c 1,106,107
 165 -37 165 -37 192.5 -30 c 128,-1,108
 220 -23 220 -23 280 -17 c 0,109,110
 362 -10 362 -10 401 0 c 0,111,112
 434 8 434 8 461 21.5 c 128,-1,113
 488 35 488 35 508 55 c 1,26,27
441 386 m 2,114,-1
 574 386 l 2,115,116
 610 386 610 386 627.5 382 c 128,-1,117
 645 378 645 378 645 365 c 0,118,119
 645 351 645 351 617 346.5 c 128,-1,120
 589 342 589 342 508 342 c 256,121,122
 427 342 427 342 399 346 c 128,-1,123
 371 350 371 350 371 365 c 0,124,125
 371 378 371 378 388 382 c 128,-1,126
 405 386 405 386 441 386 c 2,114,-1
441 300 m 2,127,-1
 574 300 l 2,128,129
 610 300 610 300 627.5 296 c 128,-1,130
 645 292 645 292 645 279 c 0,131,132
 645 265 645 265 617 260.5 c 128,-1,133
 589 256 589 256 508 256 c 256,134,135
 427 256 427 256 399 260 c 128,-1,136
 371 264 371 264 371 279 c 0,137,138
 371 292 371 292 388 296 c 128,-1,139
 405 300 405 300 441 300 c 2,127,-1
EndSplineSet
EndChar

StartChar: Ecircumflex
Encoding: 202 202 211
Width: 939
Flags: W
LayerCount: 2
Fore
SplineSet
896 -3 m 1,0,1
 901 56 901 56 901 113 c 0,2,3
 901 261 901 261 866 373.5 c 128,-1,4
 831 486 831 486 777 557.5 c 128,-1,5
 723 629 723 629 664.5 663.5 c 128,-1,6
 606 698 606 698 560 698 c 0,7,8
 547 698 547 698 537 695 c 1,9,10
 522 747 522 747 508.5 768.5 c 128,-1,11
 495 790 495 790 461 807 c 0,12,13
 454 807 454 807 436.5 790.5 c 128,-1,14
 419 774 419 774 399 741 c 1,15,16
 399 743 399 743 385 751 c 128,-1,17
 371 759 371 759 348 767.5 c 128,-1,18
 325 776 325 776 298 781.5 c 128,-1,19
 271 787 271 787 247 787 c 1,20,-1
 247 786 l 1,21,22
 252 756 252 756 253.5 740 c 128,-1,23
 255 724 255 724 255 711 c 0,24,25
 255 696 255 696 253 678 c 0,26,27
 240 632 240 632 220.5 587 c 128,-1,28
 201 542 201 542 166 472 c 0,29,30
 129 397 129 397 109.5 351 c 128,-1,31
 90 305 90 305 83 262 c 1,32,33
 106 216 106 216 127 200 c 128,-1,34
 148 184 148 184 183 176 c 0,35,36
 200 170 200 170 210 170 c 0,37,38
 228 170 228 170 242 187 c 1,39,40
 242 164 242 164 252 154.5 c 128,-1,41
 262 145 262 145 278 145 c 0,42,43
 289 146 289 146 297 156 c 128,-1,44
 305 166 305 166 317 189 c 0,45,46
 344 235 344 235 377.5 270.5 c 128,-1,47
 411 306 411 306 476 334 c 1,48,49
 472 294 472 294 455.5 265.5 c 128,-1,50
 439 237 439 237 408 198 c 0,51,52
 369 149 369 149 347.5 107.5 c 128,-1,53
 326 66 326 66 322 -1 c 1,54,-1
 588 -2 l 1,55,-1
 896 -3 l 1,0,1
263 488 m 0,56,57
 253 497 253 497 253 511 c 0,58,59
 253 535 253 535 278 558 c 128,-1,60
 303 581 303 581 332 581 c 0,61,62
 346 581 346 581 358 573 c 0,63,64
 362 569 362 569 362 562 c 0,65,66
 362 552 362 552 353 539 c 128,-1,67
 344 526 344 526 330 514.5 c 128,-1,68
 316 503 316 503 300.5 495 c 128,-1,69
 285 487 285 487 271 487 c 0,70,71
 269 487 269 487 267 488 c 0,72,73
 264 488 264 488 263 488 c 0,56,57
834 94 m 0,74,75
 834 77 834 77 827 67.5 c 128,-1,76
 820 58 820 58 811 58 c 0,77,78
 801 58 801 58 793 67 c 128,-1,79
 785 76 785 76 783 90 c 0,80,81
 783 97 783 97 783 110 c 0,82,83
 784 119 784 119 784 128 c 0,84,85
 784 259 784 259 752 352.5 c 128,-1,86
 720 446 720 446 673.5 500.5 c 128,-1,87
 627 555 627 555 583 579.5 c 128,-1,88
 539 604 539 604 513 606 c 1,89,90
 505 612 505 612 505 621 c 0,91,92
 505 635 505 635 523 635 c 0,93,94
 524 635 524 635 526 635 c 0,95,96
 529 634 529 634 530 634 c 0,97,98
 536 636 536 636 544 636 c 0,99,100
 576 636 576 636 625 604.5 c 128,-1,101
 674 573 674 573 722 512 c 128,-1,102
 770 451 770 451 803 357 c 128,-1,103
 836 263 836 263 836 145 c 0,104,105
 836 120 836 120 834 94 c 0,74,75
166 306 m 1,106,107
 170 298 170 298 170 290 c 0,108,109
 170 274 170 274 156.5 262 c 128,-1,110
 143 250 143 250 124 250 c 1,111,112
 121 256 121 256 121 264 c 0,113,114
 121 280 121 280 132.5 293 c 128,-1,115
 144 306 144 306 166 306 c 1,106,107
EndSplineSet
EndChar

StartChar: Eth
Encoding: 208 208 212
Width: 514
Flags: W
LayerCount: 2
Fore
SplineSet
-1 0 m 1,0,-1
 511 0 l 1,1,-1
 511 512 l 1,2,-1
 -1 512 l 1,3,-1
 -1 0 l 1,0,-1
9 10 m 1,4,-1
 9 502 l 1,5,-1
 501 502 l 1,6,-1
 501 10 l 1,7,-1
 9 10 l 1,4,-1
EndSplineSet
EndChar

StartChar: Ntilde
Encoding: 209 209 213
Width: 514
Flags: W
LayerCount: 2
Fore
SplineSet
-1 0 m 1,0,-1
 511 0 l 1,1,-1
 511 512 l 1,2,-1
 -1 512 l 1,3,-1
 -1 0 l 1,0,-1
9 10 m 1,4,-1
 9 502 l 1,5,-1
 501 502 l 1,6,-1
 501 10 l 1,7,-1
 9 10 l 1,4,-1
EndSplineSet
EndChar

StartChar: Otilde
Encoding: 213 213 214
Width: 514
Flags: W
LayerCount: 2
Fore
SplineSet
-1 0 m 1,0,-1
 511 0 l 1,1,-1
 511 512 l 1,2,-1
 -1 512 l 1,3,-1
 -1 0 l 1,0,-1
9 10 m 1,4,-1
 9 502 l 1,5,-1
 501 502 l 1,6,-1
 501 10 l 1,7,-1
 9 10 l 1,4,-1
EndSplineSet
EndChar

StartChar: Odieresis
Encoding: 214 214 215
Width: 514
Flags: W
LayerCount: 2
Fore
SplineSet
-1 0 m 1,0,-1
 511 0 l 1,1,-1
 511 512 l 1,2,-1
 -1 512 l 1,3,-1
 -1 0 l 1,0,-1
9 10 m 1,4,-1
 9 502 l 1,5,-1
 501 502 l 1,6,-1
 501 10 l 1,7,-1
 9 10 l 1,4,-1
EndSplineSet
EndChar

StartChar: multiply
Encoding: 215 215 216
Width: 514
Flags: W
LayerCount: 2
Fore
SplineSet
-1 0 m 1,0,-1
 511 0 l 1,1,-1
 511 512 l 1,2,-1
 -1 512 l 1,3,-1
 -1 0 l 1,0,-1
9 10 m 1,4,-1
 9 502 l 1,5,-1
 501 502 l 1,6,-1
 501 10 l 1,7,-1
 9 10 l 1,4,-1
EndSplineSet
EndChar

StartChar: Oslash
Encoding: 216 216 217
Width: 514
Flags: W
LayerCount: 2
Fore
SplineSet
-1 0 m 1,0,-1
 511 0 l 1,1,-1
 511 512 l 1,2,-1
 -1 512 l 1,3,-1
 -1 0 l 1,0,-1
9 10 m 1,4,-1
 9 502 l 1,5,-1
 501 502 l 1,6,-1
 501 10 l 1,7,-1
 9 10 l 1,4,-1
EndSplineSet
EndChar

StartChar: Udieresis
Encoding: 220 220 218
Width: 514
Flags: W
LayerCount: 2
Fore
SplineSet
-1 0 m 1,0,-1
 511 0 l 1,1,-1
 511 512 l 1,2,-1
 -1 512 l 1,3,-1
 -1 0 l 1,0,-1
9 10 m 1,4,-1
 9 502 l 1,5,-1
 501 502 l 1,6,-1
 501 10 l 1,7,-1
 9 10 l 1,4,-1
EndSplineSet
EndChar

StartChar: Yacute
Encoding: 221 221 219
Width: 514
Flags: W
LayerCount: 2
Fore
SplineSet
-1 0 m 1,0,-1
 511 0 l 1,1,-1
 511 512 l 1,2,-1
 -1 512 l 1,3,-1
 -1 0 l 1,0,-1
9 10 m 1,4,-1
 9 502 l 1,5,-1
 501 502 l 1,6,-1
 501 10 l 1,7,-1
 9 10 l 1,4,-1
EndSplineSet
EndChar

StartChar: Thorn
Encoding: 222 222 220
Width: 514
Flags: W
LayerCount: 2
Fore
SplineSet
-1 0 m 1,0,-1
 511 0 l 1,1,-1
 511 512 l 1,2,-1
 -1 512 l 1,3,-1
 -1 0 l 1,0,-1
9 10 m 1,4,-1
 9 502 l 1,5,-1
 501 502 l 1,6,-1
 501 10 l 1,7,-1
 9 10 l 1,4,-1
EndSplineSet
EndChar

